<svg width="859" height="792" viewBox="0 0 859 792" fill="none" xmlns="http://www.w3.org/2000/svg">
<path d="M850.643 324.975V624.917C850.643 630.138 847.84 634.954 843.299 637.518L825.693 647.455L821.533 366.112L821.038 332.623L488.826 135.417L505.13 125.983C510.486 122.885 517.083 122.885 522.439 125.983L842.743 311.26C845.668 312.955 847.916 315.504 849.249 318.488C850.155 320.495 850.643 322.701 850.643 324.975Z" fill="#CDE9F9"/>
<path d="M850.644 324.975V624.917C850.644 630.138 847.841 634.954 843.3 637.518L825.694 647.455L821.534 366.112V334.111L849.25 318.488C850.157 320.495 850.644 322.701 850.644 324.975Z" fill="#AECFDC"/>
<path d="M488.832 442.645V135.413L814.591 323.843C821.462 327.817 825.696 335.163 825.696 343.111V647.456L497.745 458.098C492.23 454.913 488.832 449.021 488.832 442.645Z" fill="#7CCAF1"/>
<path d="M488.832 442.645V135.413L814.591 323.843C821.462 327.817 825.696 335.163 825.696 343.111V647.456L497.745 458.098C492.23 454.913 488.832 449.021 488.832 442.645Z" fill="url(#paint0_linear_29_7562)"/>
<path d="M506.567 369.343L583.06 413.588C586.514 415.586 588.642 419.279 588.642 423.275V423.447C588.642 426.915 584.895 429.082 581.896 427.348L505.517 383.168C502.912 381.662 501.307 378.877 501.307 375.863V372.384C501.306 369.681 504.229 367.991 506.567 369.343Z" fill="#17A1DB"/>
<path d="M506.567 390.478L583.06 434.724C586.514 436.722 588.642 440.414 588.642 444.411V444.582C588.642 448.05 584.895 450.218 581.896 448.484L505.517 404.304C502.912 402.797 501.307 400.012 501.307 396.998V393.52C501.306 390.816 504.229 389.126 506.567 390.478Z" fill="#E7F6FD"/>
<path d="M506.567 411.116L583.06 455.361C586.514 457.359 588.642 461.052 588.642 465.048V465.22C588.642 468.688 584.895 470.855 581.896 469.121L505.517 424.942C502.912 423.435 501.307 420.65 501.307 417.637V414.158C501.306 411.454 504.229 409.763 506.567 411.116Z" fill="#17A1DB"/>
<path d="M506.567 432.251L583.06 476.496C586.514 478.494 588.642 482.187 588.642 486.183V486.355C588.642 489.823 584.895 491.99 581.896 490.256L505.517 446.076C502.912 444.57 501.307 441.785 501.307 438.771V435.292C501.306 432.589 504.229 430.899 506.567 432.251Z" fill="#17A1DB"/>
<path d="M616.957 241.634L808.412 352.379C810.739 353.725 812.173 356.213 812.173 358.905V560.291C812.173 565.076 807.002 568.067 802.866 565.674L619.297 459.492C615.122 457.077 612.55 452.614 612.55 447.784V244.183C612.55 241.917 614.998 240.502 616.957 241.634Z" fill="url(#paint1_linear_29_7562)"/>
<path d="M605.527 246.214L796.982 356.958C799.309 358.304 800.743 360.792 800.743 363.484V564.87C800.743 569.655 795.573 572.646 791.436 570.253L607.868 464.072C603.692 461.657 601.12 457.193 601.12 452.363V248.763C601.121 246.497 603.569 245.081 605.527 246.214Z" fill="white"/>
<path d="M613.103 288.553V390.119C613.103 393.447 614.887 396.52 617.776 398.164L666.547 425.931C670.756 428.327 675.98 425.281 675.98 420.432V321.107C675.98 317.597 674.089 314.361 671.035 312.641L620.517 284.207C617.199 282.341 613.103 284.742 613.103 288.553Z" fill="url(#paint2_linear_29_7562)"/>
<path d="M688.34 330.122L688.441 361.515C688.45 364.327 689.948 366.923 692.376 368.335L781.275 420.019C784.379 421.823 788.267 419.58 788.267 415.985V385.701C788.267 382.658 786.647 379.846 784.016 378.325L694.5 326.546C691.758 324.959 688.33 326.949 688.34 330.122Z" fill="#BD8AAE"/>
<path d="M693.938 383.955L784.213 436.172C786.722 437.624 788.268 440.306 788.268 443.209V445.325C788.268 448.714 784.605 450.833 781.675 449.138L692.016 397.276C689.728 395.953 688.318 393.507 688.318 390.861V387.205C688.318 384.316 691.441 382.51 693.938 383.955Z" fill="#BD8AAE"/>
<path d="M688.455 416.913V477.514C688.455 480.129 689.846 482.546 692.105 483.856L731.72 506.834C734.638 508.527 738.291 506.417 738.291 503.039V443.545C738.291 440.412 736.617 437.518 733.903 435.96L694.549 413.375C691.836 411.817 688.455 413.78 688.455 416.913Z" fill="#306097"/>
<path d="M750.838 453.055V513.118C750.838 516.079 752.415 518.815 754.975 520.296L781.195 535.462C784.339 537.28 788.268 535.008 788.268 531.371V473.506C788.268 469.719 786.252 466.219 782.977 464.325L757.168 449.396C754.354 447.769 750.838 449.802 750.838 453.055Z" fill="#3C7FBE"/>
<path d="M639.972 424.392C629.679 418.5 621.257 423.308 621.257 435.074C621.257 446.84 629.679 461.404 639.972 467.437C650.265 473.469 658.687 468.662 658.687 456.755C658.687 444.847 650.264 430.284 639.972 424.392Z" fill="#3C7FBE"/>
<path d="M601.12 257.546L800.674 373.527V363.402C800.674 360.761 799.268 358.32 796.985 356.999L605.467 246.181C603.535 245.063 601.12 246.459 601.12 248.695V257.546Z" fill="#3C7FBE"/>
<path d="M609.817 252.338C608.01 251.304 606.532 252.148 606.532 254.213C606.532 256.278 608.011 258.835 609.817 259.894C611.625 260.954 613.103 260.11 613.103 258.019C613.103 255.929 611.624 253.372 609.817 252.338Z" fill="white"/>
<path d="M620.35 258.547C618.543 257.513 617.065 258.356 617.065 260.422C617.065 262.488 618.543 265.044 620.35 266.104C622.157 267.163 623.635 266.319 623.635 264.229C623.635 262.138 622.157 259.581 620.35 258.547Z" fill="#E7F6FD"/>
<path d="M630.714 264.228C628.907 263.193 627.429 264.037 627.429 266.103C627.429 268.169 628.908 270.725 630.714 271.784C632.522 272.844 634 271.999 634 269.909C634 267.819 632.522 265.263 630.714 264.228Z" fill="#CDE9F9"/>
<path d="M522.163 188.655L595.976 231.351C598.979 233.088 600.83 236.299 600.83 239.773V395.361C600.83 400.694 595.066 404.027 590.456 401.36L518.059 359.484C515.234 357.85 513.494 354.831 513.494 351.562V193.668C513.494 189.211 518.311 186.427 522.163 188.655Z" fill="url(#paint3_linear_29_7562)"/>
<path d="M509.973 190.945L583.787 233.64C586.79 235.377 588.64 238.588 588.64 242.062V397.651C588.64 402.984 582.877 406.317 578.267 403.65L505.87 361.773C503.045 360.139 501.305 357.12 501.305 353.852V195.957C501.305 191.501 506.122 188.716 509.973 190.945Z" fill="#222457"/>
<path d="M509.973 190.945L583.787 233.64C586.79 235.377 588.64 238.588 588.64 242.062V397.651C588.64 402.984 582.877 406.317 578.267 403.65L505.87 361.773C503.045 360.139 501.305 357.12 501.305 353.852V195.957C501.305 191.501 506.122 188.716 509.973 190.945Z" fill="url(#paint4_linear_29_7562)"/>
<path d="M507.314 202.832V205.197L517.232 210.928V208.563L507.314 202.832Z" fill="#CDE9F9"/>
<path d="M507.313 207.152V209.517L517.231 215.248V212.883L507.313 207.152Z" fill="#CDE9F9"/>
<path d="M507.313 211.473V213.839L517.231 219.57V217.204L507.313 211.473Z" fill="#CDE9F9"/>
<path d="M582.164 261.41V259.044L520.953 223.674V226.04L582.164 261.41Z" fill="#CDE9F9"/>
<path d="M507.313 215.794V218.158L517.231 223.89V221.524L507.313 215.794Z" fill="#CDE9F9"/>
<path d="M507.313 220.114V222.48L517.231 228.211V225.845L507.313 220.114Z" fill="#CDE9F9"/>
<path d="M582.164 265.73V263.365L520.953 227.995V230.361L582.164 265.73Z" fill="#CDE9F9"/>
<path d="M507.313 233.077V235.441L517.231 241.172V238.807L507.313 233.077Z" fill="#CDE9F9"/>
<path d="M507.313 237.397V239.762L517.231 245.493V243.128L507.313 237.397Z" fill="#CDE9F9"/>
<path d="M507.313 254.68V257.045L517.231 262.776V260.411L507.313 254.68Z" fill="#CDE9F9"/>
<path d="M507.313 259.001V261.366L517.231 267.096V264.731L507.313 259.001Z" fill="#CDE9F9"/>
<path d="M559.569 289.196L520.953 266.882V269.247L559.569 291.561V289.196Z" fill="#CDE9F9"/>
<path d="M561.606 290.371V292.737L582.166 304.617V302.252L561.606 290.371Z" fill="#CDE9F9"/>
<path d="M540.355 273.771L520.953 262.561V264.927L540.355 276.137V273.771Z" fill="#CDE9F9"/>
<path d="M542.392 274.948V277.314L582.166 300.296V297.931L542.392 274.948Z" fill="#CDE9F9"/>
<path d="M576.932 281.946V284.311L582.164 287.334V284.969L576.932 281.946Z" fill="#CDE9F9"/>
<path d="M548.457 261.171L520.953 245.278V247.644L548.457 263.537V261.171Z" fill="#CDE9F9"/>
<path d="M537.187 220.093L520.953 210.713V213.079L537.187 222.458V220.093Z" fill="#CDE9F9"/>
<path d="M563.8 235.47L539.225 221.269V223.635L563.8 237.836V235.47Z" fill="#CDE9F9"/>
<path d="M549.474 231.515L532.172 221.517V223.882L549.474 233.88V231.515Z" fill="#CDE9F9"/>
<path d="M567.628 242.004L551.51 232.69V235.056L567.628 244.369V242.004Z" fill="#CDE9F9"/>
<path d="M569.667 243.18V245.546L582.167 252.769V250.403L569.667 243.18Z" fill="#CDE9F9"/>
<path d="M524.149 221.202V223.567L537.186 231.099V228.734L524.149 221.202Z" fill="#CDE9F9"/>
<path d="M577.067 251.777L539.225 229.911V232.276L577.067 254.142V251.777Z" fill="#CDE9F9"/>
<path d="M555.399 252.22L530.668 237.93V240.295L555.399 254.586V252.22Z" fill="#CDE9F9"/>
<path d="M577.064 264.739L557.434 253.396V255.762L577.064 267.105V264.739Z" fill="#CDE9F9"/>
<path d="M574.898 276.449L550.494 262.347V264.712L574.898 278.814V276.449Z" fill="#CDE9F9"/>
<path d="M561.604 273.089V275.454L574.896 283.134V280.769L561.604 273.089Z" fill="#CDE9F9"/>
<path d="M525.74 252.365L520.953 249.599V251.964L525.74 254.73V252.365Z" fill="#CDE9F9"/>
<path d="M534.706 257.545V259.911L559.571 274.278V271.913L534.706 257.545Z" fill="#CDE9F9"/>
<path d="M532.668 256.369L527.774 253.541V255.906L532.668 258.734V256.369Z" fill="#CDE9F9"/>
<path d="M554.969 273.575L527.774 257.861V260.227L554.969 275.94V273.575Z" fill="#CDE9F9"/>
<path d="M507.314 271.393V273.758L517.232 279.489V277.124L507.314 271.393Z" fill="#BD8AAE"/>
<path d="M507.313 275.715V278.08L517.231 283.811V281.446L507.313 275.715Z" fill="#BD8AAE"/>
<path d="M507.313 280.034V282.4L517.231 288.131V285.766L507.313 280.034Z" fill="#BD8AAE"/>
<path d="M582.164 329.971V327.606L520.953 292.236V294.602L582.164 329.971Z" fill="#BD8AAE"/>
<path d="M507.313 284.356V286.721L517.231 292.452V290.086L507.313 284.356Z" fill="#BD8AAE"/>
<path d="M507.313 288.676V291.041L517.231 296.772V294.407L507.313 288.676Z" fill="#BD8AAE"/>
<path d="M582.164 334.293V331.927L520.953 296.557V298.922L582.164 334.293Z" fill="#BD8AAE"/>
<path d="M507.313 301.638V304.004L517.231 309.735V307.369L507.313 301.638Z" fill="#BD8AAE"/>
<path d="M507.313 305.959V308.324L517.231 314.055V311.69L507.313 305.959Z" fill="#BD8AAE"/>
<path d="M507.313 323.242V325.607L517.231 331.338V328.972L507.313 323.242Z" fill="#BD8AAE"/>
<path d="M507.313 327.562V329.928L517.231 335.659V333.293L507.313 327.562Z" fill="#BD8AAE"/>
<path d="M559.569 357.757L520.953 335.443V337.809L559.569 360.123V357.757Z" fill="#BD8AAE"/>
<path d="M561.606 358.934V361.299L582.166 373.178V370.814L561.606 358.934Z" fill="#BD8AAE"/>
<path d="M540.355 342.334L520.953 331.123V333.488L540.355 344.699V342.334Z" fill="#BD8AAE"/>
<path d="M542.392 343.51V345.875L582.166 368.858V366.492L542.392 343.51Z" fill="#BD8AAE"/>
<path d="M576.932 350.507V352.872L582.164 355.895V353.531L576.932 350.507Z" fill="#BD8AAE"/>
<path d="M548.457 329.733L520.953 313.84V316.205L548.457 332.098V329.733Z" fill="#BD8AAE"/>
<path d="M537.187 288.655L520.953 279.275V281.64L537.187 291.021V288.655Z" fill="#BD8AAE"/>
<path d="M563.8 304.032L539.225 289.831V292.197L563.8 306.397V304.032Z" fill="#BD8AAE"/>
<path d="M549.474 300.076L532.172 290.078V292.443L549.474 302.441V300.076Z" fill="#BD8AAE"/>
<path d="M567.628 310.566L551.51 301.252V303.617L567.628 312.931V310.566Z" fill="#BD8AAE"/>
<path d="M569.667 311.742V314.107L582.167 321.33V318.965L569.667 311.742Z" fill="#BD8AAE"/>
<path d="M524.149 289.763V292.129L537.186 299.661V297.296L524.149 289.763Z" fill="#BD8AAE"/>
<path d="M577.067 320.339L539.225 298.473V300.838L577.067 322.704V320.339Z" fill="#BD8AAE"/>
<path d="M555.399 320.782L530.668 306.492V308.857L555.399 323.147V320.782Z" fill="#BD8AAE"/>
<path d="M577.064 333.301L557.434 321.957V324.323L577.064 335.666V333.301Z" fill="#BD8AAE"/>
<path d="M574.898 345.01L550.494 330.909V333.274L574.898 347.375V345.01Z" fill="#BD8AAE"/>
<path d="M561.604 341.65V344.016L574.896 351.696V349.331L561.604 341.65Z" fill="#BD8AAE"/>
<path d="M525.74 320.926L520.953 318.16V320.526L525.74 323.292V320.926Z" fill="#BD8AAE"/>
<path d="M534.706 326.107V328.472L559.571 342.84V340.475L534.706 326.107Z" fill="#BD8AAE"/>
<path d="M532.668 324.931L527.774 322.102V324.468L532.668 327.296V324.931Z" fill="#BD8AAE"/>
<path d="M554.969 342.137L527.774 326.423V328.789L554.969 344.503V342.137Z" fill="#BD8AAE"/>
<path d="M524.245 346.856C523.99 347.117 523.868 347.624 523.866 348.37L523.857 351.685V351.769C523.856 352.4 523.654 352.738 523.252 352.783C522.851 352.828 522.275 352.634 521.534 352.205L521.527 354.512C522.269 354.941 522.843 355.411 523.243 355.928C523.643 356.445 523.842 357.045 523.84 357.729L523.831 361.005C523.829 361.751 523.948 362.397 524.2 362.959C524.446 363.517 524.839 364.045 525.38 364.55C525.921 365.055 526.668 365.58 527.617 366.129L527.623 363.945C527.008 363.566 526.595 363.196 526.375 362.831C526.156 362.457 526.05 362.026 526.051 361.526L526.06 358.389V358.266C526.064 357.013 525.378 355.876 523.99 354.834V354.712C525.36 355.273 526.05 354.886 526.074 353.561L526.083 350.423C526.084 349.916 526.198 349.612 526.42 349.501C526.641 349.39 527.055 349.506 527.663 349.835L527.67 347.651C526.735 347.11 525.993 346.774 525.444 346.649C524.888 346.519 524.493 346.591 524.245 346.856Z" fill="#CDE9F9"/>
<path d="M537.173 360.833C536.786 360.332 536.587 359.762 536.589 359.132V359.047L536.598 355.733C536.601 354.664 536.322 353.747 535.749 352.977C535.183 352.21 534.201 351.427 532.799 350.616L532.793 352.8C533.401 353.174 533.821 353.541 534.04 353.906C534.26 354.265 534.366 354.703 534.365 355.211L534.356 358.348C534.379 359.701 535.078 360.892 536.446 361.914V362.037C535.765 361.766 535.243 361.71 534.888 361.883C534.526 362.058 534.344 362.453 534.342 363.085V363.176L534.333 366.314C534.332 366.821 534.223 367.136 534.002 367.247C533.781 367.35 533.36 367.238 532.752 366.909L532.746 369.093C534.142 369.9 535.125 370.245 535.701 370.139C536.27 370.029 536.559 369.441 536.562 368.365L536.571 365.09C536.573 364.406 536.775 364.037 537.163 363.976C537.558 363.92 538.126 364.11 538.881 364.546L538.888 362.239C538.134 361.805 537.566 361.338 537.173 360.833Z" fill="#CDE9F9"/>
<path d="M545.479 358.812C545.224 359.073 545.102 359.579 545.1 360.325L545.09 363.64V363.724C545.089 364.355 544.887 364.693 544.486 364.737C544.084 364.782 543.509 364.588 542.768 364.159L542.761 366.467C543.503 366.896 544.077 367.366 544.477 367.882C544.877 368.399 545.076 368.999 545.074 369.684L545.065 372.959C545.063 373.705 545.182 374.351 545.434 374.913C545.68 375.472 546.073 375.999 546.614 376.504C547.154 377.01 547.902 377.535 548.851 378.083L548.857 375.899C548.242 375.521 547.829 375.15 547.609 374.785C547.39 374.412 547.284 373.98 547.285 373.48L547.294 370.343V370.22C547.298 368.967 546.611 367.83 545.222 366.789L545.223 366.666C546.593 367.228 547.283 366.841 547.307 365.515L547.317 362.377C547.318 361.87 547.432 361.566 547.653 361.455C547.874 361.344 548.289 361.461 548.897 361.79L548.903 359.605C547.967 359.065 547.226 358.728 546.677 358.603C546.122 358.475 545.727 358.547 545.479 358.812Z" fill="#CDE9F9"/>
<path d="M558.404 372.788C558.017 372.287 557.818 371.717 557.82 371.087V371.002L557.829 367.688C557.832 366.619 557.554 365.703 556.98 364.932C556.414 364.165 555.432 363.382 554.03 362.571L554.024 364.755C554.632 365.13 555.052 365.496 555.272 365.862C555.492 366.221 555.597 366.659 555.595 367.166L555.587 370.304C555.61 371.657 556.309 372.847 557.678 373.87V373.993C556.996 373.722 556.474 373.666 556.119 373.838C555.757 374.014 555.576 374.409 555.573 375.04V375.133L555.565 378.27C555.563 378.778 555.455 379.093 555.234 379.204C555.013 379.307 554.592 379.195 553.984 378.866L553.978 381.049C555.375 381.857 556.357 382.202 556.932 382.096C557.502 381.986 557.791 381.398 557.794 380.322L557.803 377.046C557.806 376.362 558.007 375.994 558.395 375.933C558.79 375.876 559.358 376.066 560.113 376.503L560.119 374.196C559.365 373.761 558.797 373.293 558.404 372.788Z" fill="#CDE9F9"/>
<path d="M508.745 195.597C508.745 196.525 509.409 197.673 510.221 198.149C511.032 198.624 511.696 198.246 511.696 197.306C511.696 196.366 511.032 195.219 510.221 194.755C509.408 194.291 508.745 194.669 508.745 195.597Z" fill="#E7F6FD"/>
<path d="M513.477 198.386C513.477 199.314 514.141 200.462 514.952 200.937C515.764 201.413 516.428 201.034 516.428 200.095C516.428 199.155 515.764 198.008 514.952 197.543C514.14 197.079 513.477 197.459 513.477 198.386Z" fill="#E7F6FD"/>
<path d="M519.605 200.096C518.793 199.631 518.129 200.01 518.129 200.938C518.129 201.866 518.793 203.014 519.605 203.49C520.416 203.965 521.08 203.587 521.08 202.647C521.08 201.707 520.416 200.56 519.605 200.096Z" fill="#E7F6FD"/>
<path d="M342.377 617.767C303.541 595.303 303.541 558.419 342.377 535.803C381.212 513.187 444.762 513.187 483.598 535.803C522.434 558.419 522.434 595.303 483.598 617.767C444.762 640.23 381.212 640.23 342.377 617.767Z" fill="#2A2F6D"/>
<path d="M362.797 467.932C372.641 467.932 380.622 455.468 380.622 440.092C380.622 424.717 372.641 412.253 362.797 412.253C352.952 412.253 344.971 424.717 344.971 440.092C344.971 455.468 352.952 467.932 362.797 467.932Z" fill="url(#paint5_linear_29_7562)"/>
<path d="M461.659 403.822C458.933 407.532 455.751 411.117 452.031 414.492C419.323 444.162 384.612 444.055 367.972 441.745C362.658 441.007 359.097 435.741 360.498 430.713L362.523 423.443L360.26 431.567L360.476 430.779C361.568 426.786 365.458 424.299 369.671 424.892C382.874 426.753 412.093 427.09 440.077 401.706C458.255 385.214 460.241 361.461 459.941 349.527C459.832 345.249 462.893 341.668 467.164 341.157C472.334 340.537 477.052 344.598 477.189 349.777C477.518 362.298 475.735 384.663 461.659 403.822Z" fill="#CDE9F9"/>
<path d="M478.057 302.518C478.057 302.518 458.902 311.92 455.749 328.689C452.597 345.458 463.751 362.482 478.057 361.465C492.363 360.448 505.941 347.999 505.941 347.999L497.94 329.705C497.94 329.705 488.916 339.799 480.577 340.215C472.238 340.631 466.581 323.353 484.443 315.477L478.057 302.518Z" fill="url(#paint6_linear_29_7562)"/>
<path d="M510.098 548.334V511.837L480.314 515.421C467.006 509.74 450.666 506.963 433.363 506.963V508.419C436.122 508.419 438.844 508.494 441.524 508.637C431.122 508.455 419.03 509.126 405.264 510.757C414.546 509.226 423.993 508.419 433.357 508.419L433.363 506.963C433.361 506.963 433.36 506.963 433.357 506.963C405.058 506.964 374.204 514.38 349.928 528.617C348.207 529.626 346.566 530.661 344.962 531.708L312.97 535.557V579.02C312.97 579.02 313.001 579.031 313.051 579.05C313.601 590.853 320.625 601.809 334.517 609.957C349 618.451 368.679 622.573 389.783 622.573C418.081 622.573 448.937 615.156 473.213 600.919C497.574 586.632 510.196 568.466 510.108 551.822C510.238 549.607 510.098 548.334 510.098 548.334ZM369.611 619.739C365.192 619.116 360.939 618.285 356.891 617.256C361.256 618.285 365.493 619.096 369.611 619.739ZM356.408 617.138C356.242 617.096 356.077 617.052 355.912 617.009C356.081 617.05 356.238 617.097 356.408 617.138Z" fill="#2A2F6D"/>
<path d="M498.216 466.626L502.232 494.293L476.048 543.281" stroke="#C4CACB" stroke-width="5" stroke-miterlimit="10"/>
<path d="M490.263 478.026C490.263 478.026 491.447 470.821 496.275 470.397C496.275 470.397 497.456 470.175 498.101 469.099C498.745 468.024 499.107 469.901 498.389 471.544C497.671 473.186 497.671 473.186 497.671 473.186C497.671 473.186 501.428 469.864 500.999 468.782C500.57 467.701 504.649 469.207 504.22 471.68C503.791 474.154 506.612 475.509 505.524 479.779C504.436 484.049 502.233 488.131 498.02 488.725C493.807 489.319 490.263 478.026 490.263 478.026Z" fill="#FDE0D9"/>
<path d="M412.238 398.44V383.459C412.238 374.718 407.889 367.356 392.734 371.733C377.578 376.11 374.364 387.14 379.416 398.44C381.591 403.305 383.931 407.675 386.9 410.9V424.967L405.302 423.652L404.458 415.802C415.508 412.689 412.238 398.44 412.238 398.44Z" fill="#FDE0D9"/>
<path d="M362.785 466.626L355.627 456.229C355.627 456.229 360.707 428.347 368.94 424.25C383.95 416.781 422.973 413.865 442.392 428.66C461.811 443.457 457.804 487.689 466.679 486.084C475.554 484.479 491.086 475.764 491.086 475.764C491.086 475.764 499.609 475.296 498.014 488.725C498.014 488.725 473.563 521.609 455.32 523.543C437.077 525.477 419.108 498.57 419.108 498.57L362.785 466.626Z" fill="#BD8AAE"/>
<path d="M484.607 542.602C484.607 542.602 462.438 453.626 448.328 450.554C436.274 447.929 358.289 445.157 335.825 444.406C331.371 444.257 327.165 446.547 324.974 450.436C322.629 454.597 320.611 460.671 322.141 468.132C325.14 482.759 345.917 524.163 334.241 555.517C334.24 555.516 384.079 584.345 484.607 542.602Z" fill="#222457"/>
<path d="M498.824 473.713C501.738 473.713 504.1 471.346 504.1 468.427C504.1 465.508 501.738 463.142 498.824 463.142C495.91 463.142 493.548 465.508 493.548 468.427C493.548 471.346 495.91 473.713 498.824 473.713Z" fill="#2A2F6D"/>
<path d="M406.091 392.091C406.091 392.091 405.34 389.941 403.515 389.618C401.689 389.295 401.904 398.33 403.515 400.265C405.125 402.202 406.091 401.233 406.091 401.233C406.091 401.233 405.984 406.503 402.763 408.869C399.542 411.235 402.479 414.785 394.945 414.785C387.41 414.785 377.748 411.773 374.419 408.332C371.09 404.89 369.132 391.553 377.197 384.455C377.197 384.455 374.312 368.751 393.208 366.601C412.103 364.45 414.466 365.525 416.613 362.944C418.759 360.363 418.545 358.857 418.545 358.857C418.545 358.857 420.054 366.601 417.796 368.322C417.796 368.322 419.201 369.612 420.054 366.601C420.054 366.601 421.087 373.915 417.776 379.077C414.466 384.24 407.38 388.758 406.091 392.091Z" fill="#2A2F6D"/>
<path d="M407.15 593.131C402.01 593.131 396.489 593.018 389.773 592.774C365.394 591.89 353.623 588.877 335.011 578.76C321.672 571.51 314.255 560.46 314.126 547.646H314.061V282.183L314.123 282.182C314.08 273.76 317.401 263.453 323.236 253.903C327.908 246.257 336.423 235.415 350.454 227.18C374.673 212.966 405.918 211.775 433.304 211.773C457.876 211.772 478.116 221.497 487.993 227.294C493.661 230.62 498.245 234.47 501.664 238.738L500.523 239.621C501.543 240.997 502.448 242.296 503.289 243.591L504.508 242.83C506.659 246.447 508.047 250.309 508.628 254.362L508.68 254.728L508.665 254.771L508.697 255.034C508.897 256.687 508.966 258.353 508.902 259.985L508.89 260.294L508.966 260.437V544.134L508.906 544.133C508.521 560.147 497.028 572.141 472.735 581.878C453.062 589.766 433.447 593.131 407.15 593.131Z" fill="url(#paint7_linear_29_7562)"/>
<path d="M433.311 212.919C457.611 212.919 477.641 222.545 487.418 228.283C492.948 231.529 497.418 235.277 500.746 239.424L499.608 240.305C500.615 241.664 501.506 242.944 502.333 244.217L503.549 243.457C505.612 246.935 506.942 250.642 507.499 254.527L507.512 254.618L507.501 254.648L507.564 255.173C507.756 256.765 507.823 258.37 507.762 259.942L507.738 260.55L507.825 260.717V542.271L507.762 542.272L507.765 544.135C507.378 559.621 496.113 571.276 472.313 580.816C452.781 588.645 433.293 591.985 407.152 591.985C402.025 591.985 396.517 591.872 389.816 591.629C365.647 590.752 353.984 587.769 335.557 577.753C322.6 570.709 315.395 560.013 315.27 547.634H315.205V282.177L315.268 282.176C315.226 273.961 318.486 263.874 324.213 254.501C328.816 246.967 337.206 236.282 351.033 228.168C375.005 214.099 406.07 212.92 433.306 212.918H433.311V212.919ZM433.311 210.629C433.309 210.629 433.308 210.629 433.307 210.629C405.009 210.631 374.153 211.946 349.878 226.193C325.52 240.488 312.898 265.534 312.983 282.189L312.92 275.327V552.795L312.985 547.658C313.109 559.917 319.846 571.819 334.468 579.766C353.423 590.07 365.668 593.045 389.735 593.918C395.733 594.135 401.52 594.276 407.153 594.276C430.203 594.276 450.74 591.93 473.164 582.942C498.742 572.69 509.669 560.106 510.052 544.162L510.049 542.268C510.067 542.905 510.068 543.536 510.052 544.162L510.113 578.19V260.182C510.084 260.132 510.074 260.082 510.048 260.031C510.116 258.302 510.04 256.591 509.836 254.898C509.983 254.472 510.113 254.201 510.113 254.201H509.763C508.237 243.554 501.27 233.758 488.574 226.307C474.092 217.808 454.413 210.629 433.311 210.629ZM504.249 242.968C503.447 241.732 502.527 240.401 501.444 238.94C502.49 240.245 503.428 241.588 504.249 242.968Z" fill="#FDFEFE"/>
<g opacity="0.5">
<path opacity="0.5" d="M329.512 566.096V288.42C329.512 288.42 346.894 260.32 376.769 263.331C406.645 266.342 411.467 283.402 411.467 283.402V592.489C411.467 592.489 412.623 579.75 407.768 582.359C393.064 590.26 360.992 602.007 341.236 568.42C338.423 563.636 331.74 572.862 329.512 566.096Z" fill="url(#paint8_linear_29_7562)"/>
</g>
<path d="M455.066 495.699C464.911 495.699 472.891 483.234 472.891 467.859C472.891 452.484 464.911 440.019 455.066 440.019C445.221 440.019 437.24 452.484 437.24 467.859C437.24 483.234 445.221 495.699 455.066 495.699Z" fill="url(#paint9_linear_29_7562)"/>
<path d="M535.133 525.332C530.535 525.332 525.767 524.89 520.848 523.889C477.608 515.087 457.118 487.018 449.111 472.223C446.555 467.498 448.677 461.504 453.551 459.653L460.595 456.978L452.723 459.968L453.484 459.674C457.342 458.189 461.647 459.852 463.666 463.603C469.997 475.359 487.046 499.133 524.041 506.664C548.075 511.554 568.349 499.077 577.765 491.76C581.14 489.137 585.832 489.483 588.776 492.626C592.339 496.43 591.871 502.645 587.788 505.824C577.917 513.514 558.881 525.332 535.133 525.332Z" fill="#CDE9F9"/>
<path d="M593.893 460.144C593.893 460.144 574.738 469.546 571.586 486.315C568.434 503.084 579.587 520.108 593.893 519.091C608.199 518.074 621.778 505.625 621.778 505.625L613.776 487.331C613.776 487.331 604.753 497.425 596.413 497.841C588.074 498.257 582.418 480.979 600.279 473.103L593.893 460.144Z" fill="url(#paint10_linear_29_7562)"/>
<path d="M510.109 552.879H508.664V585.909H510.109V552.879Z" fill="#2A2F6D"/>
<path d="M597.069 566.789H508.818V661.094H597.069V566.789Z" fill="url(#paint11_linear_29_7562)"/>
<path d="M552.945 684.949C577.362 684.949 597.156 673.5 597.156 659.376C597.156 645.252 577.362 633.803 552.945 633.803C528.527 633.803 508.733 645.252 508.733 659.376C508.733 673.5 528.527 684.949 552.945 684.949Z" fill="#3C7FBE"/>
<path d="M552.945 593.198C577.362 593.198 597.156 581.749 597.156 567.625C597.156 553.502 577.362 542.052 552.945 542.052C528.527 542.052 508.733 553.502 508.733 567.625C508.733 581.749 528.527 593.198 552.945 593.198Z" fill="#17A1DB"/>
<path d="M546.763 542.399L546.751 540.057L546.744 542.225L546.757 544.567L546.763 542.399Z" fill="#2A2F6D"/>
<path d="M568.248 545.217L565.403 546.874L565.397 549.04L568.242 547.384L568.248 545.217Z" fill="#2A2F6D"/>
<path d="M535.146 546.874L532.283 545.217L532.277 547.385L535.14 549.04L535.146 546.874Z" fill="#2A2F6D"/>
<path d="M541.22 554.38C541.234 554.302 541.258 554.224 541.278 554.146C541.303 554.054 541.325 553.962 541.357 553.872C541.383 553.797 541.418 553.723 541.451 553.649C541.492 553.553 541.534 553.459 541.585 553.364C541.621 553.295 541.666 553.228 541.707 553.16C541.773 553.053 541.844 552.947 541.921 552.841C541.968 552.779 542.018 552.718 542.069 552.657C542.186 552.515 542.316 552.376 542.456 552.239C542.507 552.189 542.554 552.139 542.607 552.091C542.695 552.012 542.793 551.935 542.888 551.858C542.972 551.79 543.053 551.722 543.143 551.656C543.247 551.58 543.36 551.509 543.472 551.436C543.587 551.361 543.696 551.284 543.819 551.213C544.093 551.053 544.384 550.91 544.681 550.776C544.767 550.738 544.854 550.701 544.941 550.665C545.175 550.567 545.415 550.475 545.66 550.392C545.747 550.362 545.833 550.33 545.923 550.302C546.076 550.253 546.234 550.211 546.392 550.168C546.511 550.135 546.63 550.1 546.752 550.071C546.918 550.03 547.087 549.998 547.255 549.963C547.371 549.94 547.485 549.914 547.602 549.893C547.945 549.833 548.291 549.785 548.642 549.748C548.749 549.737 548.857 549.73 548.965 549.721C549.17 549.704 549.376 549.689 549.583 549.679C549.715 549.673 549.848 549.671 549.979 549.668C550.146 549.665 550.313 549.663 550.48 549.666C550.619 549.667 550.759 549.672 550.898 549.677C551.053 549.683 551.207 549.692 551.361 549.702C551.502 549.712 551.643 549.724 551.783 549.737C551.937 549.752 552.088 549.769 552.24 549.788C552.377 549.806 552.513 549.825 552.649 549.846C552.812 549.872 552.973 549.9 553.133 549.931C553.261 549.956 553.387 549.981 553.512 550.008C553.703 550.049 553.891 550.097 554.079 550.146C554.184 550.174 554.289 550.201 554.393 550.231C554.728 550.329 555.056 550.439 555.373 550.562C555.53 550.623 555.682 550.691 555.834 550.759C555.913 550.794 555.994 550.825 556.071 550.862C556.302 550.971 556.526 551.088 556.742 551.213C558.541 552.254 559.44 553.62 559.436 554.984L559.442 552.816C559.446 551.452 558.548 550.086 556.748 549.045C556.532 548.921 556.308 548.805 556.077 548.695C556 548.658 555.919 548.626 555.84 548.591C555.704 548.531 555.569 548.467 555.429 548.412C555.413 548.406 555.395 548.401 555.379 548.395C555.061 548.271 554.733 548.161 554.397 548.063C554.371 548.055 554.346 548.045 554.319 548.036C554.243 548.015 554.163 548 554.086 547.979C553.898 547.929 553.709 547.881 553.517 547.839C553.466 547.828 553.418 547.813 553.367 547.802C553.292 547.787 553.214 547.777 553.139 547.762C552.978 547.732 552.817 547.703 552.655 547.678C552.589 547.668 552.526 547.654 552.461 547.645C552.39 547.635 552.318 547.629 552.247 547.62C552.094 547.601 551.943 547.584 551.79 547.569C551.716 547.562 551.645 547.551 551.572 547.545C551.505 547.539 551.436 547.539 551.368 547.533C551.214 547.523 551.059 547.515 550.904 547.508C550.827 547.505 550.75 547.497 550.672 547.496C550.61 547.494 550.548 547.497 550.488 547.497C550.319 547.494 550.152 547.496 549.984 547.499C549.902 547.5 549.819 547.497 549.737 547.5C549.688 547.502 549.64 547.508 549.591 547.51C549.384 547.519 549.178 547.535 548.972 547.552C548.889 547.558 548.806 547.56 548.724 547.568C548.698 547.571 548.674 547.576 548.648 547.579C548.298 547.616 547.951 547.664 547.609 547.724C547.592 547.727 547.575 547.729 547.558 547.731C547.459 547.749 547.364 547.774 547.266 547.793C547.096 547.829 546.926 547.862 546.759 547.903C546.638 547.932 546.521 547.967 546.402 547.999C546.243 548.042 546.085 548.085 545.93 548.134C545.897 548.145 545.862 548.152 545.829 548.163C545.773 548.181 545.722 548.206 545.667 548.224C545.422 548.308 545.183 548.398 544.949 548.496C544.861 548.533 544.774 548.569 544.689 548.608C544.391 548.742 544.101 548.885 543.827 549.044C543.79 549.066 543.753 549.088 543.716 549.111C543.632 549.161 543.561 549.216 543.482 549.267C543.37 549.34 543.255 549.412 543.152 549.488C543.062 549.553 542.981 549.622 542.896 549.69C542.801 549.767 542.703 549.843 542.615 549.923C542.598 549.939 542.577 549.953 542.559 549.969C542.523 550.002 542.499 550.038 542.465 550.072C542.324 550.208 542.194 550.347 542.077 550.488C542.052 550.52 542.017 550.549 541.992 550.58C541.968 550.61 541.953 550.642 541.929 550.674C541.85 550.779 541.78 550.886 541.714 550.993C541.686 551.038 541.649 551.081 541.624 551.127C541.611 551.15 541.604 551.174 541.591 551.197C541.54 551.29 541.5 551.386 541.458 551.481C541.434 551.537 541.401 551.591 541.38 551.648C541.374 551.667 541.37 551.686 541.364 551.705C541.332 551.796 541.31 551.887 541.286 551.977C541.27 552.039 541.245 552.1 541.233 552.163C541.229 552.179 541.23 552.196 541.226 552.212C541.209 552.309 541.202 552.405 541.194 552.501C541.188 552.563 541.175 552.626 541.172 552.689C541.172 552.715 541.171 552.742 541.171 552.769L541.165 554.936C541.165 554.846 541.179 554.757 541.188 554.667C541.196 554.571 541.203 554.475 541.22 554.38Z" fill="#2A2F6D"/>
<path d="M568.228 554.814C568.185 554.944 568.134 555.074 568.083 555.204C568.048 555.292 568.011 555.381 567.972 555.469C567.935 555.551 567.898 555.634 567.857 555.717C567.815 555.805 567.769 555.892 567.723 555.979C567.68 556.059 567.636 556.138 567.589 556.218C567.531 556.319 567.467 556.419 567.403 556.52C567.356 556.593 567.31 556.667 567.259 556.74C567.189 556.843 567.113 556.945 567.037 557.046C566.987 557.114 566.938 557.181 566.885 557.248C566.735 557.436 566.578 557.622 566.409 557.805C566.386 557.83 566.361 557.854 566.338 557.878C566.188 558.038 566.031 558.195 565.866 558.35C565.736 558.471 565.607 558.593 565.468 558.713L565.462 560.88C565.576 560.782 565.687 560.683 565.794 560.583C565.818 560.561 565.838 560.539 565.861 560.517C566.024 560.363 566.181 560.206 566.33 560.047C566.354 560.022 566.38 559.998 566.404 559.972C566.573 559.789 566.73 559.603 566.879 559.415C566.891 559.399 566.907 559.384 566.919 559.368C566.959 559.316 566.994 559.264 567.032 559.212C567.108 559.111 567.184 559.009 567.254 558.907C567.304 558.834 567.352 558.76 567.399 558.686C567.463 558.586 567.526 558.485 567.585 558.384C567.604 558.352 567.627 558.319 567.646 558.286C567.672 558.239 567.694 558.191 567.719 558.145C567.765 558.058 567.81 557.971 567.853 557.884C567.893 557.801 567.931 557.718 567.968 557.635C568.007 557.547 568.044 557.459 568.079 557.372C568.094 557.333 568.113 557.294 568.129 557.254C568.163 557.163 568.195 557.072 568.225 556.981H572.261L572.267 554.814H568.228Z" fill="#2A2F6D"/>
<path d="M535.205 560.879L535.211 558.712C533.807 557.513 532.871 556.185 532.407 554.814H528.371L528.365 556.981H532.401C532.864 558.354 533.8 559.682 535.205 560.879Z" fill="#2A2F6D"/>
<path d="M560.557 561.571C560.073 561.762 559.574 561.934 559.068 562.095C558.788 562.183 558.5 562.257 558.215 562.337C557.947 562.411 557.684 562.491 557.412 562.557C557.121 562.627 556.823 562.685 556.527 562.746C556.253 562.803 555.981 562.866 555.703 562.915C555.092 563.024 554.473 563.115 553.848 563.185L553.842 565.353C554.467 565.283 555.085 565.191 555.696 565.083C555.726 565.077 555.757 565.075 555.787 565.069C556.038 565.024 556.28 564.963 556.528 564.911C556.821 564.85 557.117 564.794 557.405 564.724C557.68 564.658 557.945 564.577 558.214 564.502C558.497 564.423 558.784 564.349 559.062 564.261C559.094 564.251 559.13 564.243 559.162 564.232C559.635 564.081 560.099 563.916 560.551 563.737L563.415 565.393L568.327 562.534L568.333 560.368L563.421 563.227L560.557 561.571Z" fill="#2A2F6D"/>
<path d="M546.88 563.186C546.442 563.137 546.01 563.069 545.579 563.001C545.27 562.953 544.961 562.899 544.657 562.841C544.388 562.789 544.122 562.735 543.857 562.677C543.493 562.596 543.133 562.506 542.776 562.411C542.495 562.336 542.213 562.264 541.937 562.181C541.813 562.144 541.691 562.106 541.569 562.067C541.09 561.914 540.616 561.752 540.156 561.572C540.156 561.572 540.154 561.571 540.154 561.571L537.304 563.23L532.36 560.371L532.354 562.538L537.298 565.397L540.147 563.739C540.607 563.919 541.083 564.081 541.564 564.235C541.685 564.274 541.807 564.311 541.93 564.349C542.054 564.386 542.175 564.428 542.3 564.463C542.454 564.508 542.615 564.537 542.77 564.579C543.127 564.673 543.486 564.763 543.851 564.844C543.97 564.87 544.084 564.906 544.203 564.93C544.349 564.961 544.501 564.98 544.649 565.008C544.956 565.067 545.264 565.12 545.575 565.169C545.716 565.191 545.854 565.223 545.995 565.243C546.286 565.284 546.578 565.321 546.871 565.353L546.874 565.354L546.887 567.696H553.854L553.86 565.529H546.893L546.88 563.186Z" fill="#2A2F6D"/>
<path d="M563.418 563.227L560.554 561.571C558.494 562.382 556.208 562.921 553.845 563.185L553.858 565.528H546.891L546.878 563.185C544.512 562.921 542.221 562.382 540.152 561.571L537.302 563.23L532.359 560.371L535.208 558.712C533.804 557.514 532.868 556.186 532.404 554.815H528.367L528.344 550.772H532.381C532.83 549.4 533.754 548.075 535.142 546.873L532.278 545.217L537.19 542.358L540.053 544.014C542.118 543.206 544.399 542.664 546.762 542.399L546.749 540.057H553.716L553.729 542.399C556.095 542.664 558.382 543.205 560.456 544.014L563.3 542.358L568.244 545.218L565.399 546.874C566.8 548.075 567.74 549.4 568.204 550.773H572.24L572.263 554.815H568.226C567.778 556.188 566.857 557.516 565.466 558.713L568.33 560.369L563.418 563.227ZM543.865 556.544C547.444 558.615 553.224 558.612 556.781 556.542C560.338 554.471 560.322 551.118 556.743 549.047C553.164 546.976 547.379 546.976 543.823 549.047C540.266 551.117 540.285 554.473 543.865 556.544Z" fill="white"/>
<path d="M555.334 566.557L555.323 564.643L555.318 566.414L555.329 568.327L555.334 566.557Z" fill="#BD8AAE"/>
<path d="M572.882 568.859L570.557 570.212L570.553 571.983L572.877 570.629L572.882 568.859Z" fill="#BD8AAE"/>
<path d="M545.841 570.212L543.501 568.859L543.496 570.629L545.835 571.983L545.841 570.212Z" fill="#BD8AAE"/>
<path d="M550.803 576.345C550.815 576.281 550.834 576.218 550.851 576.153C550.871 576.079 550.889 576.004 550.915 575.93C550.937 575.869 550.965 575.808 550.992 575.747C551.025 575.67 551.06 575.592 551.101 575.515C551.131 575.459 551.167 575.404 551.201 575.348C551.255 575.26 551.312 575.173 551.376 575.088C551.415 575.037 551.456 574.986 551.497 574.937C551.593 574.821 551.699 574.707 551.813 574.596C551.855 574.555 551.892 574.514 551.936 574.474C552.008 574.41 552.088 574.348 552.166 574.284C552.234 574.229 552.301 574.173 552.374 574.119C552.458 574.058 552.551 573.999 552.643 573.94C552.736 573.879 552.825 573.816 552.926 573.758C553.149 573.628 553.387 573.511 553.63 573.401C553.699 573.369 553.771 573.339 553.842 573.31C554.032 573.23 554.228 573.156 554.429 573.087C554.501 573.062 554.572 573.036 554.644 573.013C554.77 572.973 554.898 572.938 555.027 572.903C555.125 572.876 555.222 572.847 555.321 572.824C555.456 572.791 555.594 572.763 555.732 572.735C555.826 572.716 555.92 572.695 556.015 572.678C556.295 572.628 556.578 572.589 556.864 572.559C556.952 572.55 557.04 572.545 557.128 572.537C557.296 572.523 557.464 572.511 557.633 572.504C557.741 572.498 557.849 572.497 557.957 572.495C558.094 572.492 558.23 572.491 558.366 572.493C558.481 572.495 558.594 572.498 558.708 572.502C558.835 572.508 558.961 572.514 559.087 572.522C559.202 572.53 559.317 572.54 559.431 572.551C559.556 572.563 559.681 572.577 559.804 572.593C559.916 572.608 560.027 572.623 560.138 572.64C560.271 572.661 560.403 572.685 560.533 572.71C560.637 572.73 560.74 572.75 560.842 572.772C560.999 572.807 561.152 572.846 561.306 572.886C561.391 572.909 561.477 572.93 561.562 572.955C561.835 573.035 562.103 573.125 562.362 573.226C562.491 573.275 562.615 573.331 562.739 573.386C562.803 573.414 562.87 573.44 562.933 573.471C563.121 573.56 563.305 573.655 563.481 573.757C564.951 574.607 565.685 575.724 565.682 576.838L565.687 575.067C565.69 573.953 564.956 572.837 563.485 571.986C563.309 571.885 563.126 571.789 562.937 571.7C562.874 571.67 562.808 571.644 562.743 571.615C562.632 571.566 562.522 571.515 562.408 571.469C562.395 571.463 562.381 571.46 562.367 571.455C562.108 571.354 561.84 571.264 561.565 571.184C561.543 571.178 561.523 571.169 561.501 571.163C561.439 571.145 561.374 571.132 561.311 571.116C561.158 571.075 561.004 571.036 560.847 571.002C560.805 570.993 560.765 570.98 560.723 570.971C560.663 570.958 560.599 570.951 560.538 570.938C560.407 570.913 560.276 570.89 560.142 570.87C560.089 570.861 560.037 570.85 559.984 570.842C559.926 570.834 559.867 570.83 559.809 570.822C559.685 570.806 559.561 570.793 559.436 570.78C559.377 570.774 559.318 570.765 559.258 570.761C559.203 570.756 559.147 570.755 559.092 570.751C558.965 570.743 558.839 570.736 558.712 570.731C558.649 570.729 558.587 570.722 558.523 570.721C558.473 570.719 558.423 570.722 558.372 570.722C558.235 570.72 558.098 570.721 557.961 570.723C557.894 570.725 557.826 570.722 557.759 570.724C557.72 570.725 557.68 570.73 557.64 570.732C557.47 570.739 557.302 570.751 557.134 570.765C557.067 570.771 556.998 570.772 556.931 570.779C556.91 570.781 556.89 570.786 556.869 570.788C556.584 570.818 556.3 570.857 556.021 570.906C556.007 570.909 555.993 570.909 555.979 570.912C555.899 570.927 555.821 570.948 555.741 570.964C555.602 570.992 555.463 571.019 555.326 571.053C555.227 571.077 555.132 571.105 555.034 571.132C554.905 571.167 554.775 571.202 554.649 571.241C554.622 571.25 554.593 571.257 554.566 571.265C554.521 571.28 554.479 571.299 554.435 571.315C554.234 571.384 554.038 571.458 553.847 571.538C553.775 571.568 553.705 571.598 553.635 571.629C553.392 571.739 553.154 571.856 552.931 571.986C552.899 572.003 552.87 572.021 552.839 572.04C552.771 572.081 552.713 572.125 552.647 572.168C552.556 572.227 552.463 572.286 552.378 572.348C552.304 572.401 552.239 572.457 552.17 572.513C552.092 572.576 552.012 572.638 551.941 572.703C551.927 572.716 551.909 572.728 551.894 572.741C551.866 572.768 551.845 572.798 551.818 572.824C551.703 572.936 551.597 573.049 551.501 573.165C551.481 573.191 551.453 573.214 551.432 573.24C551.412 573.265 551.399 573.291 551.381 573.317C551.317 573.403 551.26 573.49 551.206 573.578C551.183 573.614 551.153 573.65 551.132 573.687C551.121 573.705 551.115 573.724 551.105 573.743C551.064 573.82 551.03 573.898 550.996 573.976C550.977 574.022 550.95 574.066 550.933 574.112C550.927 574.127 550.925 574.143 550.919 574.158C550.893 574.232 550.875 574.306 550.855 574.381C550.842 574.432 550.822 574.482 550.812 574.533C550.809 574.546 550.81 574.56 550.807 574.574C550.793 574.651 550.788 574.731 550.781 574.809C550.776 574.86 550.765 574.91 550.763 574.961C550.762 574.983 550.762 575.006 550.762 575.027L550.757 576.798C550.757 576.724 550.769 576.651 550.775 576.578C550.784 576.501 550.789 576.423 550.803 576.345Z" fill="#BD8AAE"/>
<path d="M572.866 576.699C572.831 576.806 572.79 576.912 572.747 577.018C572.719 577.091 572.689 577.163 572.657 577.234C572.627 577.302 572.596 577.369 572.563 577.437C572.528 577.509 572.491 577.58 572.453 577.651C572.418 577.717 572.382 577.782 572.344 577.846C572.296 577.929 572.245 578.011 572.192 578.093C572.153 578.153 572.115 578.214 572.074 578.273C572.016 578.357 571.954 578.44 571.892 578.523C571.851 578.578 571.81 578.633 571.767 578.688C571.645 578.842 571.516 578.994 571.378 579.143C571.36 579.164 571.339 579.183 571.32 579.203C571.198 579.332 571.069 579.461 570.934 579.588C570.829 579.687 570.722 579.787 570.61 579.884L570.604 581.655C570.697 581.575 570.787 581.494 570.875 581.413C570.895 581.395 570.911 581.376 570.93 581.359C571.064 581.232 571.192 581.105 571.313 580.976C571.332 580.955 571.354 580.934 571.373 580.914C571.511 580.764 571.64 580.612 571.762 580.459C571.771 580.446 571.784 580.434 571.794 580.421C571.827 580.379 571.855 580.336 571.886 580.293C571.948 580.211 572.01 580.128 572.068 580.044C572.109 579.984 572.147 579.924 572.186 579.864C572.238 579.782 572.29 579.7 572.338 579.617C572.354 579.59 572.373 579.564 572.388 579.536C572.409 579.498 572.427 579.459 572.447 579.421C572.485 579.35 572.522 579.28 572.557 579.208C572.59 579.14 572.621 579.072 572.651 579.004C572.683 578.933 572.713 578.861 572.742 578.789C572.755 578.757 572.77 578.726 572.782 578.694C572.81 578.62 572.837 578.545 572.861 578.47H576.159L576.164 576.699H572.866Z" fill="#BD8AAE"/>
<path d="M545.889 581.655L545.894 579.884C544.746 578.906 543.982 577.821 543.603 576.699H540.305L540.3 578.47H543.598C543.976 579.591 544.741 580.676 545.889 581.655Z" fill="#BD8AAE"/>
<path d="M566.601 582.22C566.205 582.376 565.798 582.517 565.384 582.648C565.155 582.72 564.92 582.78 564.687 582.845C564.469 582.905 564.253 582.971 564.032 583.025C563.794 583.083 563.55 583.129 563.309 583.179C563.085 583.226 562.862 583.278 562.635 583.318C562.136 583.406 561.631 583.481 561.121 583.538L561.115 585.309C561.626 585.252 562.13 585.177 562.629 585.088C562.653 585.084 562.679 585.081 562.704 585.078C562.908 585.041 563.107 584.991 563.309 584.949C563.548 584.898 563.789 584.853 564.025 584.795C564.249 584.741 564.466 584.675 564.686 584.614C564.918 584.549 565.152 584.489 565.379 584.417C565.405 584.409 565.434 584.403 565.461 584.394C565.847 584.269 566.226 584.134 566.596 583.989L568.936 585.342L572.948 583.007L572.953 581.236L568.94 583.572L566.601 582.22Z" fill="#BD8AAE"/>
<path d="M555.428 583.539C555.071 583.499 554.718 583.444 554.365 583.388C554.112 583.348 553.861 583.305 553.611 583.257C553.392 583.215 553.174 583.17 552.958 583.122C552.66 583.057 552.366 582.983 552.075 582.906C551.845 582.844 551.614 582.785 551.389 582.717C551.289 582.686 551.188 582.656 551.089 582.624C550.698 582.499 550.311 582.367 549.935 582.22L549.933 582.219L547.605 583.574L543.567 581.238L543.561 583.009L547.6 585.345L549.927 583.989C550.304 584.137 550.691 584.269 551.085 584.395C551.184 584.427 551.283 584.457 551.384 584.488C551.485 584.518 551.584 584.553 551.686 584.582C551.811 584.617 551.943 584.642 552.07 584.675C552.361 584.753 552.656 584.827 552.953 584.892C553.05 584.914 553.143 584.943 553.241 584.962C553.36 584.987 553.484 585.003 553.606 585.026C553.856 585.074 554.108 585.117 554.361 585.157C554.476 585.175 554.589 585.2 554.705 585.217C554.943 585.25 555.181 585.281 555.42 585.307H555.423L555.433 587.221H561.125L561.13 585.45H555.439L555.428 583.539Z" fill="#BD8AAE"/>
<path d="M568.942 583.573L566.603 582.22C564.92 582.883 563.053 583.323 561.122 583.539L561.133 585.452H555.441L555.43 583.539C553.498 583.323 551.626 582.883 549.934 582.22L547.606 583.575L543.568 581.239L545.895 579.884C544.748 578.906 543.983 577.82 543.604 576.699H540.306L540.288 573.396H543.585C543.952 572.275 544.708 571.193 545.841 570.211L543.501 568.858L547.514 566.522L549.854 567.875C551.54 567.215 553.404 566.772 555.334 566.556L555.324 564.643H561.015L561.026 566.556C562.959 566.772 564.828 567.215 566.522 567.875L568.846 566.522L572.885 568.858L570.561 570.211C571.705 571.192 572.473 572.275 572.852 573.396H576.15L576.169 576.699H572.871C572.504 577.82 571.751 578.905 570.615 579.884L572.954 581.237L568.942 583.573ZM552.968 578.113C555.893 579.804 560.615 579.802 563.52 578.11C566.426 576.419 566.414 573.678 563.489 571.987C560.564 570.296 555.839 570.296 552.934 571.987C550.028 573.679 550.043 576.421 552.968 578.113Z" fill="white"/>
<path d="M754.501 567.208L685.056 527.063C682.932 525.836 680.495 525.89 678.105 527.34L678.104 527.337L662.855 536.158L669.944 545.788L672.586 548.821V617.744C672.586 621.847 674.771 625.64 678.317 627.694L730.293 657.798L730.825 660.693L741.43 675.581L757.742 665.975C757.771 665.959 757.799 665.943 757.825 665.927L757.935 665.864V665.855C759.391 664.945 760.421 663.344 760.421 661.379L760.422 577.475C760.423 573.238 758.166 569.322 754.501 567.208Z" fill="url(#paint12_linear_29_7562)"/>
<path d="M738.269 576.767L668.006 536.151C664.577 534.17 660.293 536.651 660.293 540.616V624.873C660.293 628.975 662.478 632.768 666.025 634.822L736.279 675.513C739.795 677.548 744.191 675.007 744.191 670.939L744.193 587.035C744.193 582.797 741.934 578.882 738.269 576.767Z" fill="url(#paint13_linear_29_7562)"/>
<path d="M741.538 675.521L741.433 675.583L741.425 675.57C741.461 675.549 741.502 675.542 741.538 675.521Z" fill="url(#paint14_linear_29_7562)"/>
<path d="M744.193 670.938L744.195 587.034C744.195 585.62 743.863 584.279 743.391 582.991L759.688 573.587C760.122 574.828 760.427 576.119 760.427 577.475L760.426 661.378C760.426 663.344 759.395 664.945 757.938 665.854V665.863L757.829 665.926C757.802 665.942 757.775 665.958 757.746 665.974L741.573 675.499C743.102 674.608 744.193 672.963 744.193 670.938Z" fill="url(#paint15_linear_29_7562)"/>
<path d="M746.518 704.233L745.935 701.069L693.504 670.701C690.32 668.857 688.343 665.424 688.343 661.742V592.39L685.451 589.069L679.148 580.507L692.671 572.685L692.685 572.694L693.313 572.317C694.384 571.665 695.46 571.337 696.512 571.337C697.407 571.337 698.278 571.577 699.101 572.052L768.544 612.197C771.846 614.102 773.895 617.657 773.895 621.473L773.894 705.376C773.894 706.829 773.183 708.107 771.945 708.882L771.778 708.985L756.368 718.061L746.518 704.233Z" fill="url(#paint16_linear_29_7562)"/>
<path d="M696.511 572.481C697.203 572.481 697.882 572.671 698.528 573.044L767.974 613.19C770.921 614.891 772.752 618.065 772.752 621.474L772.75 705.376C772.75 706.426 772.236 707.35 771.34 707.91L771.232 707.979L771.199 707.999L756.69 716.543L747.596 703.775L747.155 701.381L746.964 700.342L746.051 699.813L694.076 669.711C691.245 668.07 689.485 665.017 689.485 661.742V592.819V591.96L688.922 591.313L686.343 588.35L680.826 580.857L692.201 574.276L692.23 574.31L693.903 573.294C694.793 572.755 695.671 572.481 696.511 572.481ZM696.51 570.192C695.269 570.192 693.987 570.568 692.718 571.338L692.716 571.336L677.468 580.156L684.558 589.786L687.199 592.819V661.743C687.199 665.846 689.384 669.638 692.931 671.693L744.906 701.796L745.438 704.691L756.044 719.58L772.356 709.973C772.384 709.958 772.412 709.942 772.439 709.926L772.548 709.862V709.854C774.004 708.944 775.034 707.343 775.034 705.378L775.036 621.475C775.036 617.238 772.778 613.321 769.114 611.207L699.669 571.062C698.673 570.485 697.608 570.192 696.51 570.192Z" fill="#FDFEFE"/>
<path d="M753.521 719.082C752.8 719.082 752.107 718.893 751.461 718.519L681.207 677.829C678.024 675.986 676.047 672.553 676.047 668.871V584.612C676.047 582.132 678.127 580.596 680.055 580.596C680.752 580.596 681.421 580.779 682.045 581.14L752.308 621.756C755.609 623.661 757.66 627.216 757.66 631.032L757.658 714.937C757.658 716.078 757.212 717.134 756.403 717.911C755.628 718.655 754.577 719.082 753.521 719.082Z" fill="url(#paint17_linear_29_7562)"/>
<path d="M680.055 581.741C680.548 581.741 681.025 581.872 681.472 582.131L751.737 622.748C754.685 624.45 756.516 627.625 756.516 631.032L756.515 714.937C756.515 716.79 754.96 717.937 753.519 717.937C753.002 717.937 752.501 717.799 752.032 717.528L681.777 676.837C678.946 675.198 677.188 672.145 677.188 668.87V584.612C677.188 582.839 678.676 581.741 680.055 581.741ZM680.055 579.451C677.368 579.451 674.903 581.605 674.903 584.612V668.869C674.903 672.972 677.087 676.765 680.634 678.818L750.889 719.509C751.739 720.001 752.641 720.226 753.52 720.226C756.274 720.226 758.801 718.02 758.801 714.936L758.802 631.032C758.802 626.795 756.543 622.88 752.879 620.763L682.615 580.147C681.787 579.67 680.91 579.451 680.055 579.451Z" fill="#FDFEFE"/>
<path d="M756.146 719.519L756.042 719.58L756.033 719.566C756.069 719.547 756.111 719.54 756.146 719.519Z" fill="url(#paint18_linear_29_7562)"/>
<path d="M756.146 719.519L756.145 719.52L756.146 719.519ZM756.145 719.52C756.111 719.54 756.069 719.548 756.033 719.567L756.042 719.58L756.145 719.52Z" fill="#FDFEFE"/>
<path d="M759.86 716.004C759.917 715.656 759.947 715.298 759.947 714.937L759.948 631.031C759.948 629.917 759.763 628.759 759.384 627.513L773.62 619.299C773.807 620.069 773.896 620.779 773.896 621.473L773.895 705.376C773.895 706.83 773.184 708.107 771.946 708.879L771.749 709.002L759.86 716.004Z" fill="url(#paint19_linear_29_7562)"/>
<path d="M772.744 621.125C772.751 621.242 772.753 621.358 772.753 621.473L772.752 705.376C772.752 706.426 772.239 707.349 771.343 707.908L771.19 708.004L761.09 713.952L761.092 631.032C761.092 630.075 760.969 629.093 760.719 628.064L772.744 621.125ZM774.3 617.585L758.003 626.99C758.474 628.276 758.806 629.618 758.806 631.032L758.805 714.937C758.805 716.945 757.731 718.578 756.222 719.476L772.358 709.973C772.386 709.958 772.415 709.942 772.441 709.926L772.55 709.862V709.852C774.007 708.944 775.038 707.343 775.038 705.377L775.038 621.474C775.038 620.118 774.734 618.826 774.3 617.585ZM756.222 719.476L756.184 719.498C756.197 719.49 756.21 719.483 756.222 719.476Z" fill="#FDFEFE"/>
<path d="M715.714 626.199C715.711 627.198 715.545 627.84 715.233 628.165C714.911 628.475 714.417 628.442 713.741 628.05C713.257 627.77 712.753 627.385 712.224 626.888L712.215 630.245C712.726 630.783 713.411 631.296 714.28 631.797C715.204 632.332 716.036 632.55 716.76 632.442C717.492 632.339 718.052 631.904 718.448 631.131C718.853 630.363 719.058 629.302 719.062 627.944L719.119 607.876L715.773 605.941L715.714 626.199Z" fill="white"/>
<path d="M725.035 626.804L729.725 629.516L730.743 635.333L734.098 637.274L729.696 613.909L725.152 611.282L720.641 629.49L723.987 631.425L725.035 626.804ZM727.01 617.827C727.178 616.944 727.317 616.128 727.42 615.375C727.465 615.792 727.582 616.649 727.78 617.944C727.978 619.229 728.103 620.039 728.157 620.366L729.104 625.73L725.712 623.768C726.407 620.683 726.844 618.711 727.01 617.827Z" fill="white"/>
<path d="M742.224 641.974L746.515 623.722L743.151 621.776L740.784 633.066C740.515 634.302 740.3 635.718 740.122 637.321C739.917 635.19 739.72 633.537 739.504 632.327L737.19 618.33L733.826 616.383L737.973 639.516L742.224 641.974Z" fill="white"/>
<path d="M749.475 646.167L750.522 641.545L755.203 644.252L756.222 650.07L759.586 652.015L755.174 628.646L750.64 626.023L746.129 644.232L749.475 646.167ZM752.489 632.564C752.656 631.68 752.796 630.865 752.909 630.118C752.944 630.528 753.061 631.386 753.258 632.681C753.456 633.966 753.591 634.782 753.645 635.108L754.592 640.473L751.191 638.506C751.895 635.424 752.321 633.447 752.489 632.564Z" fill="white"/>
<path d="M746.026 653.363L720.641 638.636V639.929L746.026 654.656V653.363Z" fill="white"/>
<path d="M720.641 642.47L759.586 665.035V663.742L720.641 641.176V642.47Z" fill="white"/>
<path d="M747.722 655.615L759.584 662.495V661.202L747.722 654.321V655.615Z" fill="white"/>
<path d="M746.026 658.319L720.641 643.591V644.885L746.026 659.612V658.319Z" fill="white"/>
<path d="M720.641 647.426L759.586 669.991V668.698L720.641 646.132V647.426Z" fill="white"/>
<path d="M747.722 660.571L759.584 667.452V666.158L747.722 659.277V660.571Z" fill="white"/>
<path d="M746.026 665.48L720.641 650.753V652.047L746.026 666.773V665.48Z" fill="white"/>
<path d="M720.641 654.587L759.586 677.153V675.859L720.641 653.293V654.587Z" fill="white"/>
<path d="M747.722 667.732L759.584 674.613V673.32L747.722 666.438V667.732Z" fill="white"/>
<path d="M746.026 670.436L720.641 655.709V657.003L746.026 671.731V670.436Z" fill="white"/>
<path d="M720.641 659.542L759.586 682.109V680.815L720.641 658.249V659.542Z" fill="white"/>
<path d="M747.722 672.688L759.584 679.569V678.276L747.722 671.395V672.688Z" fill="white"/>
<path d="M746.026 677.598L720.641 662.87V664.164L746.026 678.89V677.598Z" fill="white"/>
<path d="M720.641 666.705L759.586 689.27V687.977L720.641 665.411V666.705Z" fill="white"/>
<path d="M747.722 679.848L759.584 686.73V685.437L747.722 678.556V679.848Z" fill="white"/>
<path d="M746.026 682.554L720.641 667.827V669.12L746.026 683.847V682.554Z" fill="white"/>
<path d="M720.641 671.661L759.586 694.226V692.933L720.641 670.367V671.661Z" fill="white"/>
<path d="M747.722 684.806L759.584 691.687V690.393L747.722 683.511V684.806Z" fill="white"/>
<path d="M746.026 689.714L720.641 674.988V676.281L746.026 691.008V689.714Z" fill="white"/>
<path d="M720.641 678.821L759.586 701.387V700.094L720.641 677.528V678.821Z" fill="white"/>
<path d="M747.722 691.967L759.584 698.847V697.554L747.722 690.673V691.967Z" fill="white"/>
<path d="M746.026 694.671L720.641 679.944V681.237L746.026 695.964V694.671Z" fill="white"/>
<path d="M720.641 683.778L759.586 706.343V705.05L720.641 682.484V683.778Z" fill="white"/>
<path d="M747.722 696.923L759.584 703.803V702.51L747.722 695.628V696.923Z" fill="white"/>
<g opacity="0.46">
<path opacity="0.46" d="M680.033 714.821L548.549 790.67C543.566 793.545 537.344 789.941 537.344 784.18V743.409C537.344 740.73 538.771 738.255 541.089 736.919L672.573 661.07C677.557 658.195 683.779 661.799 683.779 667.56V708.331C683.778 711.01 682.35 713.485 680.033 714.821Z" fill="#CDE9F9"/>
</g>
<g opacity="0.46">
<path opacity="0.46" d="M842.538 651.914L711.053 727.763C706.07 730.638 699.848 727.034 699.848 721.273V680.502C699.848 677.824 701.276 675.349 703.593 674.012L835.078 598.164C840.061 595.289 846.283 598.892 846.283 604.653V645.425C846.283 648.103 844.855 650.578 842.538 651.914Z" fill="#CDE9F9"/>
</g>
<g opacity="0.46">
<path opacity="0.46" d="M854.83 569.667L723.346 645.516C718.363 648.391 712.141 644.787 712.141 639.027V598.255C712.141 595.577 713.568 593.102 715.886 591.765L847.37 515.917C852.353 513.042 858.576 516.646 858.576 522.406V563.178C858.575 565.856 857.147 568.33 854.83 569.667Z" fill="#CDE9F9"/>
</g>
<defs>
<linearGradient id="paint0_linear_29_7562" x1="488.831" y1="391.435" x2="825.695" y2="391.435" gradientUnits="userSpaceOnUse">
<stop stop-color="#21409A"/>
<stop offset="0.9984" stop-color="#29ABE2" stop-opacity="0"/>
</linearGradient>
<linearGradient id="paint1_linear_29_7562" x1="612.55" y1="403.876" x2="812.173" y2="403.876" gradientUnits="userSpaceOnUse">
<stop offset="0.5191" stop-color="#21285A"/>
<stop offset="0.7064" stop-color="#21295A" stop-opacity="0.6104"/>
<stop offset="0.7739" stop-color="#222D5E" stop-opacity="0.4701"/>
<stop offset="0.822" stop-color="#233463" stop-opacity="0.37"/>
<stop offset="0.861" stop-color="#253E6B" stop-opacity="0.2891"/>
<stop offset="0.8943" stop-color="#274A77" stop-opacity="0.2198"/>
<stop offset="0.9238" stop-color="#2A5986" stop-opacity="0.1584"/>
<stop offset="0.9505" stop-color="#2E6D9A" stop-opacity="0.1029"/>
<stop offset="0.975" stop-color="#2F85B5" stop-opacity="0.0519"/>
<stop offset="0.9969" stop-color="#2CA5D9" stop-opacity="0.01"/>
<stop offset="1" stop-color="#29ABE2" stop-opacity="0"/>
</linearGradient>
<linearGradient id="paint2_linear_29_7562" x1="613.103" y1="355.164" x2="675.98" y2="355.164" gradientUnits="userSpaceOnUse">
<stop offset="0.0607" stop-color="#28A8E0"/>
<stop offset="0.9984" stop-color="#29ABE2" stop-opacity="0"/>
</linearGradient>
<linearGradient id="paint3_linear_29_7562" x1="513.495" y1="295.085" x2="600.83" y2="295.085" gradientUnits="userSpaceOnUse">
<stop offset="0.5191" stop-color="#21285A"/>
<stop offset="0.7064" stop-color="#21295A" stop-opacity="0.6104"/>
<stop offset="0.7739" stop-color="#222D5E" stop-opacity="0.4701"/>
<stop offset="0.822" stop-color="#233463" stop-opacity="0.37"/>
<stop offset="0.861" stop-color="#253E6B" stop-opacity="0.2891"/>
<stop offset="0.8943" stop-color="#274A77" stop-opacity="0.2198"/>
<stop offset="0.9238" stop-color="#2A5986" stop-opacity="0.1584"/>
<stop offset="0.9505" stop-color="#2E6D9A" stop-opacity="0.1029"/>
<stop offset="0.975" stop-color="#2F85B5" stop-opacity="0.0519"/>
<stop offset="0.9969" stop-color="#2CA5D9" stop-opacity="0.01"/>
<stop offset="1" stop-color="#29ABE2" stop-opacity="0"/>
</linearGradient>
<linearGradient id="paint4_linear_29_7562" x1="501.305" y1="297.375" x2="588.641" y2="297.375" gradientUnits="userSpaceOnUse">
<stop stop-color="#21409A"/>
<stop offset="0.9984" stop-color="#29ABE2" stop-opacity="0"/>
</linearGradient>
<linearGradient id="paint5_linear_29_7562" x1="344.971" y1="440.092" x2="380.622" y2="440.092" gradientUnits="userSpaceOnUse">
<stop stop-color="#6B385F"/>
<stop offset="0.4197" stop-color="#6F3B62" stop-opacity="0.7323"/>
<stop offset="0.5218" stop-color="#764268" stop-opacity="0.6035"/>
<stop offset="0.6937" stop-color="#8C567A" stop-opacity="0.3865"/>
<stop offset="0.9131" stop-color="#B5799B" stop-opacity="0.1096"/>
<stop offset="1" stop-color="#CC8DAE" stop-opacity="0"/>
</linearGradient>
<linearGradient id="paint6_linear_29_7562" x1="455.212" y1="332.013" x2="505.941" y2="332.013" gradientUnits="userSpaceOnUse">
<stop stop-color="#6B385F"/>
<stop offset="0.4197" stop-color="#6F3B62" stop-opacity="0.7323"/>
<stop offset="0.5218" stop-color="#764268" stop-opacity="0.6035"/>
<stop offset="0.6937" stop-color="#8C567A" stop-opacity="0.3865"/>
<stop offset="0.9131" stop-color="#B5799B" stop-opacity="0.1096"/>
<stop offset="1" stop-color="#CC8DAE" stop-opacity="0"/>
</linearGradient>
<linearGradient id="paint7_linear_29_7562" x1="314.062" y1="402.452" x2="508.967" y2="402.452" gradientUnits="userSpaceOnUse">
<stop offset="0.0607" stop-color="#28A8E0"/>
<stop offset="0.9984" stop-color="#29ABE2" stop-opacity="0"/>
</linearGradient>
<linearGradient id="paint8_linear_29_7562" x1="329.512" y1="427.797" x2="411.587" y2="427.797" gradientUnits="userSpaceOnUse">
<stop offset="0.4247" stop-color="white"/>
<stop offset="1" stop-color="#2484C6" stop-opacity="0"/>
</linearGradient>
<linearGradient id="paint9_linear_29_7562" x1="437.24" y1="467.859" x2="472.891" y2="467.859" gradientUnits="userSpaceOnUse">
<stop stop-color="#6B385F"/>
<stop offset="0.4197" stop-color="#6F3B62" stop-opacity="0.7323"/>
<stop offset="0.5218" stop-color="#764268" stop-opacity="0.6035"/>
<stop offset="0.6937" stop-color="#8C567A" stop-opacity="0.3865"/>
<stop offset="0.9131" stop-color="#B5799B" stop-opacity="0.1096"/>
<stop offset="1" stop-color="#CC8DAE" stop-opacity="0"/>
</linearGradient>
<linearGradient id="paint10_linear_29_7562" x1="571.049" y1="489.64" x2="621.777" y2="489.64" gradientUnits="userSpaceOnUse">
<stop stop-color="#6B385F"/>
<stop offset="0.4197" stop-color="#6F3B62" stop-opacity="0.7323"/>
<stop offset="0.5218" stop-color="#764268" stop-opacity="0.6035"/>
<stop offset="0.6937" stop-color="#8C567A" stop-opacity="0.3865"/>
<stop offset="0.9131" stop-color="#B5799B" stop-opacity="0.1096"/>
<stop offset="1" stop-color="#CC8DAE" stop-opacity="0"/>
</linearGradient>
<linearGradient id="paint11_linear_29_7562" x1="508.789" y1="613.942" x2="597.098" y2="613.942" gradientUnits="userSpaceOnUse">
<stop offset="0.0607" stop-color="#28A8E0"/>
<stop offset="0.9984" stop-color="#29ABE2" stop-opacity="0"/>
</linearGradient>
<linearGradient id="paint12_linear_29_7562" x1="662.855" y1="600.888" x2="760.423" y2="600.888" gradientUnits="userSpaceOnUse">
<stop stop-color="#21409A"/>
<stop offset="0.9984" stop-color="#29ABE2" stop-opacity="0"/>
</linearGradient>
<linearGradient id="paint13_linear_29_7562" x1="660.294" y1="605.841" x2="744.192" y2="605.841" gradientUnits="userSpaceOnUse">
<stop stop-color="#21409A"/>
<stop offset="0.9984" stop-color="#29ABE2" stop-opacity="0"/>
</linearGradient>
<linearGradient id="paint14_linear_29_7562" x1="741.425" y1="675.552" x2="741.538" y2="675.552" gradientUnits="userSpaceOnUse">
<stop stop-color="#21409A"/>
<stop offset="0.9984" stop-color="#29ABE2" stop-opacity="0"/>
</linearGradient>
<linearGradient id="paint15_linear_29_7562" x1="741.573" y1="624.543" x2="760.427" y2="624.543" gradientUnits="userSpaceOnUse">
<stop stop-color="#21409A"/>
<stop offset="0.9984" stop-color="#29ABE2" stop-opacity="0"/>
</linearGradient>
<linearGradient id="paint16_linear_29_7562" x1="679.148" y1="644.699" x2="773.896" y2="644.699" gradientUnits="userSpaceOnUse">
<stop offset="0.0607" stop-color="#28A8E0"/>
<stop offset="0.9984" stop-color="#29ABE2" stop-opacity="0"/>
</linearGradient>
<linearGradient id="paint17_linear_29_7562" x1="676.046" y1="649.839" x2="757.659" y2="649.839" gradientUnits="userSpaceOnUse">
<stop offset="0.0607" stop-color="#28A8E0"/>
<stop offset="0.9984" stop-color="#29ABE2" stop-opacity="0"/>
</linearGradient>
<linearGradient id="paint18_linear_29_7562" x1="756.033" y1="719.549" x2="756.146" y2="719.549" gradientUnits="userSpaceOnUse">
<stop offset="0.0607" stop-color="#28A8E0"/>
<stop offset="0.9984" stop-color="#29ABE2" stop-opacity="0"/>
</linearGradient>
<linearGradient id="paint19_linear_29_7562" x1="759.384" y1="667.652" x2="773.896" y2="667.652" gradientUnits="userSpaceOnUse">
<stop offset="0.0607" stop-color="#28A8E0"/>
<stop offset="0.9984" stop-color="#29ABE2" stop-opacity="0"/>
</linearGradient>
</defs>
</svg>
