<svg width="912" height="679" viewBox="0 0 912 679" fill="none" xmlns="http://www.w3.org/2000/svg">
<g opacity="0.51">
<path opacity="0.51" d="M614.01 22.7093V194.721C614.01 200.935 617.338 206.673 622.731 209.758L840.986 334.624C855.911 343.163 874.492 332.386 874.492 315.191V160.924C874.492 149.197 868.212 138.366 858.034 132.539L639.942 7.67527C628.391 1.06286 614.01 9.40139 614.01 22.7093Z" fill="url(#paint0_linear_26_28112)"/>
</g>
<g opacity="0.51">
<path opacity="0.51" d="M650.584 17.9279V189.94C650.584 196.153 653.913 201.891 659.306 204.976L877.561 329.842C892.486 338.381 911.066 327.605 911.066 310.41V156.142C911.066 144.414 904.787 133.584 894.609 127.757L676.516 2.89303C664.967 -3.71938 650.584 4.61914 650.584 17.9279Z" fill="url(#paint1_linear_26_28112)"/>
</g>
<g opacity="0.46">
<path opacity="0.46" d="M164.173 271.49L13.2595 358.392C7.53985 361.686 0.398438 357.557 0.398438 350.956V304.244C0.398438 301.175 2.0371 298.34 4.6971 296.808L155.611 209.907C161.33 206.613 168.472 210.742 168.472 217.342V264.055C168.472 267.123 166.833 269.959 164.173 271.49Z" fill="#CDE9F9"/>
</g>
<g opacity="0.46">
<path opacity="0.46" d="M350.69 199.417L199.776 286.318C194.056 289.612 186.915 285.483 186.915 278.883V232.17C186.915 229.102 188.554 226.266 191.214 224.735L342.127 137.833C347.847 134.54 354.988 138.669 354.988 145.269V191.981C354.988 195.051 353.349 197.886 350.69 199.417Z" fill="#CDE9F9"/>
</g>
<g opacity="0.46">
<path opacity="0.46" d="M364.799 105.185L213.885 192.086C208.165 195.38 201.024 191.251 201.024 184.651V137.938C201.024 134.87 202.663 132.034 205.323 130.503L356.236 43.6019C361.956 40.3079 369.097 44.437 369.097 51.0371V97.7498C369.097 100.818 367.458 103.653 364.799 105.185Z" fill="#CDE9F9"/>
</g>
<path d="M632.701 25.6211C632.701 28.9649 631.019 30.8003 628.944 30.8003C626.869 30.8003 625.187 28.0896 625.187 24.7466C625.187 21.4037 626.869 18.693 628.944 18.693C631.019 18.693 632.701 22.2781 632.701 25.6211Z" fill="white"/>
<path d="M646.946 34.5953C646.946 37.9391 645.264 39.7745 643.189 39.7745C641.114 39.7745 639.432 37.0638 639.432 33.7209C639.432 30.3779 641.114 27.6672 643.189 27.6672C645.264 27.6664 646.946 31.2515 646.946 34.5953Z" fill="white"/>
<path d="M660.336 43.9962C660.336 47.3391 658.653 49.1754 656.578 49.1754C654.503 49.1754 652.821 46.4647 652.821 43.1218C652.821 39.778 654.503 37.0681 656.578 37.0681C658.653 37.0681 660.336 40.6524 660.336 43.9962Z" fill="white"/>
<path d="M144.476 544.888C196.177 544.888 238.089 533.484 238.089 519.416C238.089 505.348 196.177 493.944 144.476 493.944C92.7755 493.944 50.8638 505.348 50.8638 519.416C50.8638 533.484 92.7755 544.888 144.476 544.888Z" fill="#E7F6FD"/>
<path d="M781.766 378.848C833.467 378.848 875.379 367.444 875.379 353.376C875.379 339.308 833.467 327.904 781.766 327.904C730.066 327.904 688.154 339.308 688.154 353.376C688.154 367.444 730.066 378.848 781.766 378.848Z" fill="#E7F6FD"/>
<path d="M439.94 671.672L57.8722 451.066C42.0276 441.918 42.0276 419.048 57.8722 409.899L468.581 172.755C475.935 168.509 484.997 168.509 492.351 172.755L874.419 393.362C890.264 402.51 890.264 425.38 874.419 434.529L463.711 671.672C456.356 675.919 447.294 675.919 439.94 671.672Z" fill="#E7F6FD"/>
<path d="M451.825 678.534L50.8633 447.019L467.993 206.168C475.711 201.712 485.219 201.712 492.937 206.168L881.427 430.482L451.825 678.534Z" fill="#CDE9F9"/>
<path d="M434.89 668.757L79.5034 463.556L469.983 238.13C476.472 234.384 484.464 234.376 490.959 238.11L853.62 446.538L468.759 668.757C458.28 674.808 445.369 674.808 434.89 668.757Z" fill="url(#paint2_linear_26_28112)"/>
<path d="M554.822 573.861L422.184 496.523C420.604 495.602 418.653 495.593 417.066 496.501L355.551 531.672C352.131 533.627 352.11 538.552 355.513 540.536L384.364 557.358C387.946 559.447 387.704 564.732 383.923 566.433C379.201 568.557 373.334 570.337 366.398 570.846C363.83 571.034 363.576 574.731 366.097 575.258C376.927 577.524 390.711 578.047 402.196 570.903C403.827 569.889 405.9 569.915 407.558 570.882L488.15 617.874C489.73 618.795 491.681 618.803 493.268 617.896L554.783 582.725C558.204 580.77 558.225 575.846 554.822 573.861Z" fill="url(#paint3_linear_26_28112)"/>
<path d="M574.747 541.676L441.782 464.901C440.199 463.986 438.248 463.986 436.664 464.901L375.299 500.334C371.887 502.304 371.887 507.228 375.299 509.198L404.22 525.897C407.811 527.971 407.592 533.257 403.818 534.974C399.106 537.118 393.245 538.923 386.312 539.461C383.745 539.66 383.507 543.358 386.03 543.875C396.869 546.095 410.655 546.559 422.11 539.366C423.737 538.345 425.81 538.362 427.472 539.323L508.264 585.971C509.847 586.886 511.798 586.886 513.382 585.971L574.747 550.539C578.159 548.57 578.159 543.646 574.747 541.676Z" fill="white"/>
<path d="M597.474 346.78L490.582 285.061C489.395 284.376 487.934 284.376 486.748 285.061L422.815 321.975C420.259 323.451 420.259 327.141 422.815 328.616L451.333 345.083C454.461 346.889 453.592 351.646 450.022 352.195C447.483 352.585 444.773 352.762 441.976 352.59C439.974 352.467 439.231 355.186 441.011 356.113C450.037 360.811 463.7 365.464 474.345 358.37L529.708 390.336C530.895 391.021 532.356 391.021 533.542 390.336L597.475 353.421C600.03 351.945 600.03 348.256 597.474 346.78Z" fill="url(#paint4_linear_26_28112)"/>
<path d="M603.595 319.673L496.703 257.953C495.516 257.269 494.055 257.269 492.869 257.953L428.936 294.868C426.38 296.344 426.38 300.033 428.936 301.508L457.455 317.976C460.582 319.781 459.713 324.539 456.143 325.087C453.604 325.477 450.895 325.655 448.097 325.483C446.095 325.359 445.352 328.079 447.132 329.006C456.158 333.704 469.821 338.357 480.466 331.263L535.829 363.229C537.016 363.914 538.477 363.914 539.664 363.229L603.596 326.314C606.151 324.838 606.151 321.149 603.595 319.673Z" fill="white"/>
<path d="M634.986 441.42C636.327 440.363 637.942 439.533 639.537 438.89C641.087 438.266 640.796 436.004 639.136 435.803C628.786 434.551 622.687 435.357 619.208 436.426C618.316 436.701 617.357 436.591 616.549 436.125L615.285 435.395L576.695 413.113C575.656 412.513 574.376 412.513 573.337 413.113L508.767 450.395C506.532 451.687 506.529 454.912 508.762 456.207L659.255 543.463C660.295 544.065 661.578 544.067 662.618 543.465L727.501 506.002C729.739 504.71 729.739 501.479 727.501 500.187L635.361 446.986C633.293 445.794 633.111 442.9 634.986 441.42Z" fill="url(#paint5_linear_26_28112)"/>
<path d="M640.677 418.416C642.017 417.358 643.632 416.529 645.227 415.886C646.778 415.262 646.487 412.999 644.827 412.798C634.476 411.546 628.377 412.352 624.899 413.422C624.007 413.696 623.047 413.587 622.24 413.121L620.975 412.391L582.385 390.109C581.346 389.509 580.066 389.509 579.027 390.109L514.458 427.391C512.222 428.681 512.219 431.908 514.453 433.203L664.946 520.459C665.985 521.061 667.268 521.063 668.309 520.461L733.191 482.998C735.43 481.706 735.43 478.475 733.191 477.182L641.052 423.981C638.983 422.79 638.801 419.895 640.677 418.416Z" fill="#CDE9F9"/>
<path d="M352.974 457.001C391.144 457.001 422.087 439.134 422.087 417.094C422.087 395.055 391.144 377.188 352.974 377.188C314.803 377.188 283.86 395.055 283.86 417.094C283.86 439.134 314.803 457.001 352.974 457.001Z" fill="url(#paint6_linear_26_28112)"/>
<path d="M370.519 427.426C408.69 427.426 439.633 409.559 439.633 387.52C439.633 365.48 408.69 347.613 370.519 347.613C332.349 347.613 301.406 365.48 301.406 387.52C301.406 409.559 332.349 427.426 370.519 427.426Z" fill="#CDE9F9"/>
<path d="M373.262 368.748C376.583 368.748 379.275 367.194 379.275 365.276C379.275 363.358 376.583 361.804 373.262 361.804C369.941 361.804 367.249 363.358 367.249 365.276C367.249 367.194 369.941 368.748 373.262 368.748Z" fill="white"/>
<path d="M402.951 384.104C406.273 384.104 408.965 382.549 408.965 380.632C408.965 378.714 406.273 377.159 402.951 377.159C399.63 377.159 396.938 378.714 396.938 380.632C396.938 382.549 399.63 384.104 402.951 384.104Z" fill="white"/>
<path d="M333.693 375.576L382.617 403.824C382.617 403.824 357.148 409.813 339.656 398.704C322.165 387.594 333.693 375.576 333.693 375.576Z" fill="white"/>
<path opacity="0.2" d="M205.642 512.603C205.642 512.603 252.909 499.582 256.134 519.197C259.359 538.811 253.964 547.247 275.274 553.854C296.584 560.462 271.51 574.421 271.51 574.421L189.849 527.415L205.642 512.603Z" fill="#2A2F6D"/>
<path d="M262.163 425.639L256.274 468.128L198.994 435.054L206.154 393.712L262.163 425.639Z" fill="#A17194"/>
<path d="M262.163 425.639L256.274 468.128L198.994 435.054L206.154 393.712L262.163 425.639Z" fill="url(#paint7_linear_26_28112)"/>
<path d="M207.455 396.012L259.713 425.688L254.266 464.849L200.832 434.113L207.455 396.012ZM207.131 395.326L200.348 434.341L254.608 465.552L260.186 425.456L207.131 395.326Z" fill="#8F8FA7"/>
<path d="M163.64 468.128C163.64 468.128 224.225 466.499 233.53 471.153C242.834 475.807 239.403 533.113 239.403 533.113C239.403 533.113 238.468 536.152 242.266 537.672C246.065 539.191 251.952 540.331 250.813 542.609C249.673 544.888 245.101 546.787 238.088 544.888C231.075 542.989 224.793 545.458 224.414 539.761C224.034 534.063 218.337 511.842 214.538 510.323C210.74 508.804 145.027 494.683 163.64 468.128Z" fill="#09518C"/>
<path d="M262.515 551.842C262.515 551.842 266.695 555.048 270.591 557.128C274.486 559.209 278.257 562.192 271.745 563.923C265.233 565.653 260.488 561.429 258.35 561.355C256.211 561.28 248.943 559.744 249.041 557.622C249.137 555.5 247.714 551.029 262.515 551.842Z" fill="#222457"/>
<path d="M263.139 552.769C263.139 552.769 264.328 553.906 253.188 553.854C252.305 553.845 251.334 553.836 250.285 553.819C250.285 553.819 245.913 518.378 242.835 514.505C239.757 510.631 216.654 530.568 178.407 531.897C140.247 533.226 98.6068 511.671 104.938 499.91C105.025 499.727 105.13 499.552 105.252 499.377C113.166 487.747 169.007 492.932 169.007 492.932C169.007 492.932 235.725 483.34 250.197 484.66C268.001 486.296 264.459 534.406 263.139 552.769Z" fill="#1D9FDA"/>
<path d="M253.188 553.854C252.305 553.845 251.334 553.836 250.285 553.819C250.285 553.819 245.913 518.378 242.835 514.504C239.757 510.631 216.654 530.568 178.407 531.897C140.247 533.226 98.6068 511.671 104.938 499.91C109.38 497.523 114.163 497.409 114.163 497.409L125.845 503.959C125.845 503.959 141.226 527.595 187.099 519.2C232.962 510.797 245.878 505.104 250.958 510.229C256.038 515.353 253.188 553.854 253.188 553.854Z" fill="#2187C5"/>
<path d="M256.135 468.128L213.175 492.933L155.895 459.859L198.855 435.054L256.135 468.128Z" fill="#6E8F99"/>
<path d="M246.023 464.062L212.057 483.673L166.769 457.523L200.735 437.912L246.023 464.062Z" fill="#AECFDC"/>
<path d="M238.226 459.348C239.071 459.641 239.422 458.756 239.222 458.205C239.023 457.655 236.835 457.212 236.835 457.212C236.835 457.212 237.313 456.869 237.961 457.154C238.61 457.439 240.143 456.79 238.984 455.934C237.826 455.078 236.839 454.374 235.623 454.593C234.408 454.813 233.146 454.316 233.146 454.316C234.218 453.141 234.122 451.758 232.766 452.663C231.411 453.568 230.814 452.181 227.842 452.113C224.869 452.045 221.692 457.501 221.692 457.501C221.692 457.501 219.578 467.433 222.668 470.09C225.757 472.746 228.908 469.797 230.606 468.072C232.303 466.346 234.861 464.783 236.263 465.138C237.666 465.493 239.072 464.131 238.441 463.598C237.811 463.066 235.705 462.268 235.705 462.268C235.705 462.268 236.565 461.87 237.556 461.98C238.546 462.091 239.432 461.464 239.034 460.759C238.636 460.054 236.985 459.236 236.985 459.236C236.985 459.236 237.381 459.055 238.226 459.348Z" fill="#FDE0D9"/>
<path d="M202.773 450.116C202.314 449.565 200.635 449.037 200.635 449.037C200.635 449.037 200.997 448.849 201.843 449.014C202.688 449.18 202.93 448.408 202.679 447.968C202.428 447.527 200.272 447.362 200.272 447.362C200.272 447.362 200.695 447.031 201.35 447.209C202.006 447.386 203.412 446.701 202.205 446.095C200.997 445.489 199.971 444.993 198.823 445.29C197.676 445.587 196.408 445.29 196.408 445.29C197.314 444.21 197.073 443.066 195.864 443.947C194.657 444.829 193.932 443.727 191.063 443.947C188.193 444.167 185.719 449.014 185.719 449.014C185.719 449.014 184.753 457.496 188.014 459.424C191.274 461.352 193.992 458.597 195.441 457C196.89 455.403 199.185 453.861 200.574 454.027C201.963 454.192 203.171 452.925 202.506 452.539C201.842 452.154 199.728 451.685 199.728 451.685C199.728 451.685 200.514 451.273 201.48 451.273C202.446 451.273 203.231 450.667 202.773 450.116Z" fill="#FDE0D9"/>
<path d="M160.175 376.179C153.783 377.963 150.994 378.12 150.085 378.103C149.84 378.094 149.726 378.077 149.726 378.077L148.685 383.76L148.021 387.389L137.956 384.915L135.106 384.722C135.106 384.722 134.905 383.883 134.616 382.423C133.453 382.335 132.447 382.134 132.325 382.082C132.089 381.977 133.059 378.383 133.593 376.485C132.071 366.307 130.742 349.369 137.012 341.499C146.307 329.843 155.707 334.32 157.701 331.356C159.703 328.401 162.641 326.8 162.449 330.027C162.265 333.262 163.761 340.38 164.539 348.678C164.539 348.678 168.343 373.897 160.175 376.179Z" fill="#FDE0D9"/>
<path d="M106.984 410.622C106.984 410.622 97.3581 441.952 100.586 444.99C103.815 448.029 111.412 452.112 111.412 452.112L106.984 410.622Z" fill="#AECFDC"/>
<path d="M228.022 470.285C228.022 470.285 216.244 473.861 195.581 479.047C191.218 480.14 186.609 478.671 183.698 475.243C180.611 471.596 176.79 467.014 174.621 464.19C174.263 463.718 173.948 463.298 173.694 462.94C173.694 462.94 175.189 483.043 181.975 488.945C181.975 488.945 184.074 491.245 182.648 494.017C181.477 496.29 177.926 498.879 168.867 500.767C148.432 504.999 114.172 510.762 102.096 501.204L106.984 410.623C106.984 410.623 108.943 396.842 116.542 388.963C121.631 383.682 124.551 381.434 129.431 380.551C146.578 382.431 174.84 389.558 182.395 401.983C191.305 416.621 191.506 456.311 202.34 458.209C213.166 460.106 222.566 456.408 222.566 456.408C222.566 456.408 230.707 456.994 228.354 468.125C228.354 468.125 230.331 467.198 228.022 470.285Z" fill="white"/>
<path d="M176.792 318.781C176.792 318.781 176.784 318.79 176.782 318.791C174.947 313.601 170.383 309.087 170.383 309.087C170.383 309.087 171.614 313.713 170.409 317.588C170.409 317.588 168.13 307.995 159.014 306.667C159.014 306.667 163.805 310.288 161.862 314.935C161.862 314.935 159.299 309.328 154.455 309.328L155.061 313.094C155.061 313.094 147.686 312.847 139.862 315.662C139.861 315.662 139.861 315.662 139.86 315.662C115.701 321.223 121.003 343.431 121.572 345.711C122.143 347.989 115.163 353.545 116.302 361.521C117.442 369.498 131.579 376.885 131.579 376.885L131.58 376.876C132.798 377.918 133.763 377.947 135.083 376.56C138.257 373.223 139.926 368.298 139.926 368.298C139.926 368.298 136.334 361.648 137.55 358.612C138.763 355.584 143.276 355.29 143.886 359.904C143.887 361.555 144.082 362.966 144.718 363.16C146.356 363.658 146.784 352.905 154.903 349.771C163.022 346.637 169.005 351.266 177.124 341.509C185.244 331.751 176.792 318.781 176.792 318.781Z" fill="#2A2F6D"/>
<path d="M150.084 378.103C149.839 378.094 149.726 378.077 149.726 378.077L148.685 383.76C144.514 382.379 142.8 373.626 142.8 373.626C146.062 375.987 148.405 377.351 150.084 378.103Z" fill="#ECBFB9"/>
<path d="M182.648 494.017C180.951 495.022 178.363 495.809 174.463 496.08C160.604 497.025 164.399 482.404 159.458 454.309C154.666 427.009 166.174 409.189 166.838 408.192C166.523 408.813 163.192 415.826 165.623 433.026C167.424 445.818 172.076 458.122 174.621 464.19C174.262 463.718 173.947 463.298 173.694 462.94C173.694 462.94 175.189 483.043 181.975 488.945C181.975 488.945 184.073 491.245 182.648 494.017Z" fill="#CDE9F9"/>
<path opacity="0.1" d="M831.21 339.909C831.21 339.909 845.454 343.887 834.629 365.382C823.803 386.875 791.578 394.177 781.766 409.043C771.955 423.91 766.257 434.194 763.409 443.011C760.56 451.828 755.892 463.466 744.552 462.775C733.211 462.084 721.246 467.329 712.13 460.148C703.015 452.968 732.072 455.176 740.048 439.543C748.025 423.91 752.885 397.409 752.885 397.409C752.885 397.409 743.658 421.658 732.167 425.063C720.676 428.468 714.958 431.887 709.84 431.317C704.723 430.747 702.444 425.141 714.408 419.398C726.373 413.654 736.059 382.832 740.047 372.604C744.036 362.375 795.647 332.146 795.647 332.146L831.21 339.909Z" fill="#2A2F6D"/>
<path d="M785.391 199.826C785.391 199.826 777.622 186.877 795.646 180.972C813.671 175.067 823.979 188.164 826.265 193.966C828.573 199.821 829.967 206.296 836.07 211.898C845.412 220.473 875.514 239.34 869.921 280.651C864.327 321.961 792.164 338.121 752.883 295.079C713.602 252.037 759.286 253.591 772.338 243.646C785.391 233.7 794.714 206.973 785.391 199.826Z" fill="#A17194"/>
<path d="M832.634 310.59C832.634 310.59 857.134 304.199 860.552 273.441C863.971 242.683 848.074 233.246 840.068 225.451C832.063 217.655 819.314 210.737 819.314 210.737L814.686 225.451L832.634 310.59Z" fill="url(#paint8_linear_26_28112)"/>
<path d="M795.083 204.821C795.083 204.821 793.116 222.974 780.826 243.485C768.536 263.996 750.957 258.835 749.734 274.442C748.512 290.05 754.354 312.616 781.766 293.434C809.179 274.252 810.978 231.523 810.978 231.523C810.978 231.523 813.076 219.555 809.418 216.136L795.083 204.821Z" fill="url(#paint9_linear_26_28112)"/>
<path d="M733.286 441.401C733.286 441.401 720.44 447.409 716.711 449.067C712.981 450.725 709.459 450.103 709.874 452.175C710.288 454.246 717.747 460.255 724.791 458.183C731.835 456.111 734.114 454.039 737.429 454.039C740.744 454.039 744.473 451.346 743.229 447.616C741.987 443.887 733.286 441.401 733.286 441.401Z" fill="#222457"/>
<path d="M793.782 313.569C793.782 313.569 758.665 335.944 750.274 341.849C741.884 347.754 736.393 353.97 735.358 356.663C734.322 359.356 723.756 400.171 722.512 405.351C721.269 410.531 720.441 411.981 720.441 411.981C720.441 411.981 724.999 417.687 732.872 417.16C732.872 417.16 743.024 395.613 749.446 376.552C755.869 357.492 781.56 354.384 791.297 348.998C801.035 343.611 816.366 328.486 813.051 323.307C809.736 318.128 793.782 313.569 793.782 313.569Z" fill="#222457"/>
<path d="M836.048 324.31C836.048 324.31 840.028 334.195 837.427 345.855C835.79 353.192 831.545 361.233 822.063 367.954C797.512 385.358 789.432 382.25 777.622 391.262C765.812 400.274 757.733 431.041 751.517 439.121C745.302 447.201 742.194 450.62 742.194 450.62C742.194 450.62 735.046 449.376 729.763 443.161C729.763 443.161 746.081 406.874 752.885 380.074C759.689 353.273 787.257 350.239 811.808 326.621C836.359 303.003 836.048 324.31 836.048 324.31Z" fill="#2A2F6D"/>
<path d="M756.334 298.962C756.334 298.962 755.805 296.01 752.885 295.077C749.964 294.145 743.749 293.834 741.107 291.348C741.107 291.348 740.019 293.523 743.283 295.155C743.283 295.155 739.398 296.32 734.27 294.301C729.142 292.281 734.581 296.632 738 297.719C741.418 298.807 738.155 301.922 746.079 305.332C754.003 308.743 758.665 311.394 756.334 298.962Z" fill="#FDE0D9"/>
<path d="M837.973 295.339C835.264 316.23 837.915 331.597 837.915 331.597C837.915 331.597 819.887 334.077 806.523 328.488C803.346 327.153 800.398 325.664 797.689 324.139C788.98 319.236 782.656 313.913 778.869 312.015C773.89 309.525 758.665 300.52 758.665 300.52C758.665 300.52 755.794 293.023 758.37 291.926C763.817 291.353 775.12 290.056 776.999 289.121C779.489 287.881 780.319 282.701 783.009 269.852C783.897 265.598 784.86 262.173 785.862 259.112C798.234 225.411 810.978 231.525 810.978 231.525C810.978 231.525 814.956 230.456 815.605 229.159C828.931 230.895 838.785 238.002 842.467 250.383C845.995 262.192 839.88 280.545 837.973 295.339Z" fill="#3C7FBE"/>
<path d="M792.631 281.615C791.919 276.704 790.315 271.398 788.435 267.763C785.327 261.755 795.647 248.721 795.647 248.721C783.792 258.328 784.666 279.798 783.866 286.428C783.066 293.058 769.542 293.887 760.84 294.094C752.138 294.301 758.664 300.517 758.664 300.517C758.664 300.517 761.069 301.928 771.755 301.447C772.442 302.168 774.079 303.014 777 304.039C788.809 308.183 794.395 305.697 794.395 305.697C794.395 305.697 794.384 285.096 792.633 281.619C792.633 281.617 792.632 281.616 792.631 281.615Z" fill="url(#paint10_linear_26_28112)"/>
<path d="M839.966 255.552C839.966 255.552 832.116 300.93 821.956 313.778C814.716 322.946 805.663 324.977 797.689 324.138C788.98 319.235 782.656 313.912 778.869 312.014C778.869 312.014 809.737 304.602 815.327 284.016C820.926 263.432 834.358 249.132 839.966 255.552Z" fill="url(#paint11_linear_26_28112)"/>
<path d="M801.272 299.761C801.272 299.761 812.238 248.364 825.283 241.187C825.283 241.187 820.096 242.298 810.979 259.287C801.863 276.276 799.584 295.276 790.675 299.76C781.765 304.244 781.766 304.245 781.766 304.245L794.395 305.696L801.272 299.761Z" fill="url(#paint12_linear_26_28112)"/>
<path d="M832.008 239.294C832.008 239.294 820.199 238.764 814.294 255.655C808.389 272.547 797.823 297.72 793.782 300.206C793.782 300.206 777 303.003 755.246 297.098C755.246 297.098 750.895 304.54 754.003 308.743C754.003 308.743 793.575 320.475 805.384 316.124C817.193 311.772 830.37 281.938 832.525 277.104C835.715 269.95 848.064 248.514 832.008 239.294Z" fill="#3C7FBE"/>
<path d="M746.7 294.922C746.7 294.922 722.926 285.599 720.439 284.356C717.953 283.112 715.934 285.599 717.021 286.687C718.109 287.775 741.728 298.496 743.282 298.341C744.836 298.186 746.7 294.922 746.7 294.922Z" fill="#222457"/>
<path d="M817.874 235.244C817.425 227.87 817.444 222.929 817.454 222.299C817.864 222.529 818.179 222.939 818.237 223.492C818.39 225.009 818.666 226.669 819.171 228.023C819.248 230.226 819.105 232.801 817.874 235.244Z" fill="#2A2F6D"/>
<path d="M820.154 229.816C820.613 230.37 820.708 231.142 820.298 231.743L817.808 235.358C817.122 236.674 816.12 237.953 814.651 239.116C808.746 243.781 807.506 239.116 807.506 239.116V225.446C803.47 226.066 802.221 225.446 802.221 225.446C795.524 224.521 794.494 210.375 794.409 203.173C796.574 204.384 798.186 204.318 798.186 204.318C800.046 206.283 803.366 207.427 801.916 206.178C800.467 204.938 799.532 201.312 801.392 203.278C803.261 205.243 807.822 206.903 806.677 205.453C805.542 204.003 805.542 202.038 807.202 204.108C808.852 206.178 812.381 206.903 811.131 205.968C809.891 205.043 808.546 201.312 809.405 202.553C810.273 203.793 814.346 205.558 815.377 206.388C816.416 207.217 816.206 214.152 816.206 214.152C816.206 214.152 816.931 211.978 819.316 210.738C821.7 209.498 821.281 215.813 820.46 217.578C819.631 219.333 817.456 222.233 817.456 222.233C817.456 222.233 817.456 222.262 817.456 222.299C817.866 222.529 818.181 222.939 818.238 223.492C818.392 225.009 818.668 226.669 819.173 228.023C819.439 228.728 819.754 229.348 820.154 229.816Z" fill="#FDE0D9"/>
<path d="M723.548 409.08C723.548 409.08 716.23 415.71 709.84 418.196C703.451 420.682 705.315 426.276 712.774 424.826C720.233 423.375 722.304 421.511 725.619 421.304C728.934 421.097 734.321 420.682 732.249 414.467C730.178 408.251 723.548 409.08 723.548 409.08Z" fill="#222457"/>
<path d="M807.505 229.158V225.447C808.573 224.932 810.319 224.073 812.217 221.745C812.218 221.746 813.2 228.833 807.505 229.158Z" fill="#ECBFB9"/>
<path d="M549.181 547.552L434.619 481.925L438.225 479.96L552.728 545.553L549.181 547.552Z" fill="#CDE9F9"/>
<path d="M533.109 555.04L418.547 489.413L422.154 487.448L536.656 553.041L533.109 555.04Z" fill="#CDE9F9"/>
<path d="M516.99 564.69L402.427 499.062L406.034 497.097L520.536 562.69L516.99 564.69Z" fill="#CDE9F9"/>
<path d="M692.359 476.806L577.797 411.18L581.404 409.214L695.906 474.807L692.359 476.806Z" fill="white"/>
<path d="M676.288 484.295L561.726 418.668L565.332 416.703L679.834 482.295L676.288 484.295Z" fill="white"/>
<path d="M660.168 493.944L545.605 428.317L549.212 426.352L663.714 491.944L660.168 493.944Z" fill="white"/>
<path d="M580.922 325.832L486.817 271.924L489.779 270.31L583.834 324.189L580.922 325.832Z" fill="#CDE9F9"/>
<path d="M567.72 331.983L473.615 278.076L476.577 276.461L570.633 330.341L567.72 331.983Z" fill="#CDE9F9"/>
<path d="M554.479 339.909L460.374 286.001L463.337 284.387L557.392 338.267L554.479 339.909Z" fill="#CDE9F9"/>
<path d="M407.699 114.117C405.923 114.117 404.134 113.545 402.626 112.365C399.045 109.563 398.42 104.381 401.222 100.8C402.983 98.5508 410.818 90.2884 423.306 82.1046C439.408 71.5529 456.992 65.362 474.156 64.2007C503.578 62.2106 531.904 74.2462 558.346 99.9735C561.605 103.144 561.677 108.357 558.505 111.616C555.335 114.875 550.123 114.946 546.863 111.775C524.086 89.6142 500.179 79.129 475.814 80.5945C457.662 81.6901 442.389 89.3536 432.773 95.5891C422.091 102.515 415.288 109.585 414.177 110.963C412.556 113.035 410.14 114.117 407.699 114.117ZM432.97 131.907C434.862 129.736 452.165 110.665 477.042 109.518C493.998 108.74 511.097 116.454 527.865 132.454C531.155 135.594 536.366 135.472 539.504 132.182C542.643 128.893 542.522 123.681 539.232 120.543C519.084 101.316 497.904 92.0731 476.283 93.0699C445.227 94.5014 424.411 116.663 420.553 121.091C417.566 124.519 417.925 129.72 421.353 132.707C422.913 134.066 424.84 134.732 426.758 134.732C429.056 134.731 431.342 133.774 432.97 131.907ZM452.537 152.928C454.124 150.269 463.765 140.436 476.562 139.061C487.406 137.898 498.264 143.035 508.832 154.333C511.939 157.652 517.148 157.826 520.469 154.721C523.79 151.615 523.963 146.405 520.857 143.084C503.054 124.053 485.989 121.49 474.804 122.69C455.917 124.719 442.12 138.252 438.399 144.49C436.068 148.394 437.344 153.448 441.248 155.778C442.571 156.568 444.025 156.943 445.461 156.943C448.263 156.943 450.996 155.51 452.537 152.928ZM480.375 155.112C471.645 155.112 464.568 162.19 464.568 170.919C464.568 179.649 471.646 186.726 480.375 186.726C489.106 186.726 496.182 179.649 496.182 170.919C496.182 162.189 489.106 155.112 480.375 155.112Z" fill="#E7F6FD"/>
<path d="M407.699 114.117C405.923 114.117 404.134 113.545 402.626 112.365C399.045 109.563 398.42 104.381 401.222 100.8C402.983 98.5508 410.818 90.2884 423.306 82.1046C439.408 71.5529 456.992 65.362 474.156 64.2007C503.578 62.2106 531.904 74.2462 558.346 99.9735C561.605 103.144 561.677 108.357 558.505 111.616C555.335 114.875 550.123 114.946 546.863 111.775C524.086 89.6142 500.179 79.129 475.814 80.5945C457.662 81.6901 442.389 89.3536 432.773 95.5891C422.091 102.515 415.288 109.585 414.177 110.963C412.556 113.035 410.14 114.117 407.699 114.117ZM432.97 131.907C434.862 129.736 452.165 110.665 477.042 109.518C493.998 108.74 511.097 116.454 527.865 132.454C531.155 135.594 536.366 135.472 539.504 132.182C542.643 128.893 542.522 123.681 539.232 120.543C519.084 101.316 497.904 92.0731 476.283 93.0699C445.227 94.5014 424.411 116.663 420.553 121.091C417.566 124.519 417.925 129.72 421.353 132.707C422.913 134.066 424.84 134.732 426.758 134.732C429.056 134.731 431.342 133.774 432.97 131.907ZM452.537 152.928C454.124 150.269 463.765 140.436 476.562 139.061C487.406 137.898 498.264 143.035 508.832 154.333C511.939 157.652 517.148 157.826 520.469 154.721C523.79 151.615 523.963 146.405 520.857 143.084C503.054 124.053 485.989 121.49 474.804 122.69C455.917 124.719 442.12 138.252 438.399 144.49C436.068 148.394 437.344 153.448 441.248 155.778C442.571 156.568 444.025 156.943 445.461 156.943C448.263 156.943 450.996 155.51 452.537 152.928ZM480.375 155.112C471.645 155.112 464.568 162.19 464.568 170.919C464.568 179.649 471.646 186.726 480.375 186.726C489.106 186.726 496.182 179.649 496.182 170.919C496.182 162.189 489.106 155.112 480.375 155.112Z" fill="url(#paint13_linear_26_28112)"/>
<path d="M785.453 145.948C785.453 135.777 777.109 128.005 766.817 128.005C756.525 128.005 748.182 136.251 748.182 146.422C748.182 156.593 756.525 164.839 766.817 164.839C777.109 164.839 785.453 156.119 785.453 145.948Z" fill="url(#paint14_linear_26_28112)"/>
<path d="M99.7239 379.904C99.7239 366.001 88.3188 355.377 74.2501 355.377C60.1815 355.377 48.7764 366.648 48.7764 380.551C48.7764 394.455 60.1815 405.725 74.2501 405.725C88.3188 405.725 99.7239 393.807 99.7239 379.904Z" fill="url(#paint15_linear_26_28112)"/>
<path d="M865.68 192.89C865.68 188.399 861.996 184.967 857.451 184.967C852.907 184.967 849.222 188.608 849.222 193.099C849.222 197.59 852.906 201.231 857.451 201.231C861.996 201.231 865.68 197.381 865.68 192.89Z" fill="url(#paint16_linear_26_28112)"/>
<path d="M113.037 311.939C113.037 307.448 109.353 304.016 104.807 304.016C100.262 304.016 96.5781 307.657 96.5781 312.148C96.5781 316.639 100.262 320.281 104.807 320.281C109.353 320.281 113.037 316.43 113.037 311.939Z" fill="url(#paint17_linear_26_28112)"/>
<defs>
<linearGradient id="paint0_linear_26_28112" x1="614.009" y1="171.486" x2="874.491" y2="171.486" gradientUnits="userSpaceOnUse">
<stop offset="0.0607" stop-color="#28A8E0"/>
<stop offset="0.9984" stop-color="#29ABE2" stop-opacity="0"/>
</linearGradient>
<linearGradient id="paint1_linear_26_28112" x1="650.585" y1="166.704" x2="911.066" y2="166.704" gradientUnits="userSpaceOnUse">
<stop offset="0.0607" stop-color="#28A8E0"/>
<stop offset="0.9984" stop-color="#29ABE2" stop-opacity="0"/>
</linearGradient>
<linearGradient id="paint2_linear_26_28112" x1="79.5033" y1="454.305" x2="853.62" y2="454.305" gradientUnits="userSpaceOnUse">
<stop offset="0.0607" stop-color="#28A8E0"/>
<stop offset="0.9984" stop-color="#29ABE2" stop-opacity="0"/>
</linearGradient>
<linearGradient id="paint3_linear_26_28112" x1="352.928" y1="556.738" x2="557.495" y2="557.597" gradientUnits="userSpaceOnUse">
<stop offset="0.0607" stop-color="#28A8E0"/>
<stop offset="0.9984" stop-color="#29ABE2" stop-opacity="0"/>
</linearGradient>
<linearGradient id="paint4_linear_26_28112" x1="420.898" y1="337.698" x2="599.392" y2="337.698" gradientUnits="userSpaceOnUse">
<stop offset="0.0607" stop-color="#28A8E0"/>
<stop offset="0.9984" stop-color="#29ABE2" stop-opacity="0"/>
</linearGradient>
<linearGradient id="paint5_linear_26_28112" x1="507.089" y1="478.291" x2="729.179" y2="478.291" gradientUnits="userSpaceOnUse">
<stop offset="0.0607" stop-color="#28A8E0"/>
<stop offset="0.9984" stop-color="#29ABE2" stop-opacity="0"/>
</linearGradient>
<linearGradient id="paint6_linear_26_28112" x1="283.86" y1="417.094" x2="422.087" y2="417.094" gradientUnits="userSpaceOnUse">
<stop offset="0.0607" stop-color="#28A8E0"/>
<stop offset="0.9984" stop-color="#29ABE2" stop-opacity="0"/>
</linearGradient>
<linearGradient id="paint7_linear_26_28112" x1="198.994" y1="430.92" x2="262.163" y2="430.92" gradientUnits="userSpaceOnUse">
<stop offset="0.1739" stop-color="#21409A"/>
<stop offset="0.9984" stop-color="#29ABE2" stop-opacity="0"/>
</linearGradient>
<linearGradient id="paint8_linear_26_28112" x1="814.686" y1="260.664" x2="860.97" y2="260.664" gradientUnits="userSpaceOnUse">
<stop offset="0.2368" stop-color="#6B385F"/>
<stop offset="0.3385" stop-color="#6F3B62" stop-opacity="0.7323"/>
<stop offset="0.4548" stop-color="#764268" stop-opacity="0.6035"/>
<stop offset="0.6508" stop-color="#8C567A" stop-opacity="0.3865"/>
<stop offset="0.901" stop-color="#B5799B" stop-opacity="0.1096"/>
<stop offset="1" stop-color="#CC8DAE" stop-opacity="0"/>
</linearGradient>
<linearGradient id="paint9_linear_26_28112" x1="749.584" y1="252.811" x2="811.5" y2="252.811" gradientUnits="userSpaceOnUse">
<stop stop-color="#CC8DAE" stop-opacity="0"/>
<stop offset="0.5406" stop-color="#6F3B62" stop-opacity="0.7323"/>
<stop offset="1" stop-color="#6B385F"/>
</linearGradient>
<linearGradient id="paint10_linear_26_28112" x1="756.316" y1="277.578" x2="795.648" y2="277.578" gradientUnits="userSpaceOnUse">
<stop offset="0.2449" stop-color="#262262"/>
<stop offset="0.4247" stop-color="#272567" stop-opacity="0.7669"/>
<stop offset="0.7079" stop-color="#2A2D76" stop-opacity="0.3997"/>
<stop offset="0.8792" stop-color="#2A3282" stop-opacity="0.1777"/>
<stop offset="1" stop-color="#2B3990" stop-opacity="0"/>
</linearGradient>
<linearGradient id="paint11_linear_26_28112" x1="778.869" y1="289.156" x2="839.967" y2="289.156" gradientUnits="userSpaceOnUse">
<stop offset="0.2449" stop-color="#262262"/>
<stop offset="0.4247" stop-color="#272567" stop-opacity="0.7669"/>
<stop offset="0.7079" stop-color="#2A2D76" stop-opacity="0.3997"/>
<stop offset="0.8792" stop-color="#2A3282" stop-opacity="0.1777"/>
<stop offset="1" stop-color="#2B3990" stop-opacity="0"/>
</linearGradient>
<linearGradient id="paint12_linear_26_28112" x1="781.766" y1="273.442" x2="825.282" y2="273.442" gradientUnits="userSpaceOnUse">
<stop offset="0.2449" stop-color="#262262"/>
<stop offset="0.4247" stop-color="#272567" stop-opacity="0.7669"/>
<stop offset="0.7079" stop-color="#2A2D76" stop-opacity="0.3997"/>
<stop offset="0.8792" stop-color="#2A3282" stop-opacity="0.1777"/>
<stop offset="1" stop-color="#2B3990" stop-opacity="0"/>
</linearGradient>
<linearGradient id="paint13_linear_26_28112" x1="521.008" y1="160.094" x2="454.573" y2="71.9315" gradientUnits="userSpaceOnUse">
<stop offset="0.0607" stop-color="#28A8E0"/>
<stop offset="0.9984" stop-color="#29ABE2" stop-opacity="0"/>
</linearGradient>
<linearGradient id="paint14_linear_26_28112" x1="748.181" y1="146.422" x2="785.453" y2="146.422" gradientUnits="userSpaceOnUse">
<stop stop-color="#BD8AAE"/>
<stop offset="1" stop-color="#2484C6" stop-opacity="0"/>
</linearGradient>
<linearGradient id="paint15_linear_26_28112" x1="48.7772" y1="380.551" x2="99.7239" y2="380.551" gradientUnits="userSpaceOnUse">
<stop offset="0.0607" stop-color="#28A8E0"/>
<stop offset="0.9984" stop-color="#29ABE2" stop-opacity="0"/>
</linearGradient>
<linearGradient id="paint16_linear_26_28112" x1="849.222" y1="193.099" x2="865.68" y2="193.099" gradientUnits="userSpaceOnUse">
<stop stop-color="#BD8AAE"/>
<stop offset="1" stop-color="#2484C6" stop-opacity="0"/>
</linearGradient>
<linearGradient id="paint17_linear_26_28112" x1="96.5788" y1="312.148" x2="113.037" y2="312.148" gradientUnits="userSpaceOnUse">
<stop offset="0.0607" stop-color="#28A8E0"/>
<stop offset="0.9984" stop-color="#29ABE2" stop-opacity="0"/>
</linearGradient>
</defs>
</svg>
