<svg width="1920" height="2022" viewBox="0 0 1920 2022" fill="none" xmlns="http://www.w3.org/2000/svg">
<g opacity="0.2" clip-path="url(#clip0_20_210)">
<path d="M1749.86 -0.255122C1753.89 -3.34484 1759.67 -2.59171 1762.76 1.43271C1765.86 5.45713 1765.1 11.2384 1761.08 14.3281C1757.05 17.4264 1751.28 16.6735 1748.18 12.6491C1745.09 8.6247 1745.84 2.84325 1749.86 -0.255122Z" stroke="#4BDFEA" stroke-width="4"/>
<path d="M1462.32 367.188C1465.07 365.077 1469.01 365.587 1471.13 368.34C1473.24 371.092 1472.73 375.038 1469.98 377.159C1467.23 379.271 1463.28 378.76 1461.16 376.008C1459.05 373.255 1459.56 369.309 1462.32 367.188Z" fill="#E54884"/>
<path d="M1282.58 486.139C1286.6 483.049 1292.38 483.802 1295.48 487.827C1298.58 491.851 1297.81 497.632 1293.79 500.722C1289.77 503.82 1283.99 503.067 1280.9 499.043C1277.8 495.019 1278.55 489.237 1282.58 486.139Z" stroke="#4BDFEA" stroke-width="4"/>
<path d="M1364.26 370.901C1368.29 367.803 1374.06 368.556 1377.16 372.589C1380.26 376.613 1379.5 382.386 1375.47 385.484C1371.45 388.583 1365.67 387.83 1362.58 383.806C1359.48 379.772 1360.23 374 1364.26 370.901Z" stroke="#4BDFEA" stroke-width="4"/>
<path d="M1264.6 351.454L1260.56 340.593L1270.02 347.283L1280.88 343.241L1274.18 352.701L1278.22 363.562L1268.76 356.863L1257.9 360.914L1264.6 351.454Z" fill="#F44D99"/>
<path d="M278.975 595.516L274.934 584.655L284.392 591.345L295.252 587.303L288.554 596.763L292.596 607.625L283.137 600.926L272.277 604.976L278.975 595.516Z" fill="#F44D99"/>
<path d="M1573.42 1512.32C1571.47 1511.21 1570.79 1508.73 1571.89 1506.79C1573 1504.85 1575.48 1504.16 1577.42 1505.27C1579.36 1506.38 1580.04 1508.85 1578.94 1510.8C1577.83 1512.74 1575.35 1513.42 1573.42 1512.32Z" fill="#FFE843"/>
<path d="M1616.68 1562.25L1602.98 1558.01L1616.68 1553.79L1620.92 1540.07L1625.14 1553.79L1638.85 1558.01L1625.14 1562.25L1620.92 1575.95L1616.68 1562.25Z" fill="#F44D99"/>
<path d="M1691.26 1998.64L1672.36 1992.81L1691.26 1986.97L1697.09 1968.07L1702.92 1986.97L1721.82 1992.81L1702.92 1998.64L1697.09 2017.54L1691.26 1998.64Z" fill="#F44D99"/>
<path d="M617.8 876.283C617.8 872.813 620.612 870 624.091 870C627.561 870 630.373 872.813 630.373 876.283C630.373 879.754 627.561 882.575 624.091 882.575C620.612 882.575 617.8 879.754 617.8 876.283Z" fill="#E54884"/>
<path d="M602.501 1091.3C602.501 1086.22 606.62 1082.1 611.7 1082.1C616.779 1082.1 620.898 1086.22 620.898 1091.3C620.898 1096.38 616.779 1100.5 611.7 1100.5C606.62 1100.5 602.501 1096.38 602.501 1091.3Z" stroke="#4BDFEA" stroke-width="4"/>
<path d="M531.543 985.713C531.543 980.633 535.662 976.513 540.741 976.513C545.821 976.513 549.939 980.633 549.939 985.713C549.939 990.794 545.821 994.913 540.741 994.913C535.662 994.913 531.543 990.794 531.543 985.713Z" stroke="#4BDFEA" stroke-width="4"/>
<path d="M332.496 1058.06L321.419 1054.64L332.496 1051.22L335.906 1040.15L339.324 1051.22L350.4 1054.64L339.324 1058.06L335.906 1069.13L332.496 1058.06Z" fill="#F44D99"/>
<path d="M709.959 924.594L691.06 918.761L709.959 912.927L715.792 894.025L721.624 912.927L740.523 918.761L721.624 924.594L715.792 943.496L709.959 924.594Z" fill="#F44D99"/>
<path d="M1723.26 1482.92C1723.26 1479.23 1726.25 1476.24 1729.93 1476.24C1733.62 1476.24 1736.6 1479.23 1736.6 1482.92C1736.6 1486.6 1733.62 1489.59 1729.93 1489.59C1726.25 1489.59 1723.26 1486.6 1723.26 1482.92Z" stroke="#4BDFEA" stroke-width="2.901"/>
<path d="M1671.8 1406.34C1671.8 1402.65 1674.78 1399.67 1678.47 1399.67C1682.16 1399.67 1685.14 1402.65 1685.14 1406.34C1685.14 1410.02 1682.16 1413.01 1678.47 1413.01C1674.78 1413.01 1671.8 1410.02 1671.8 1406.34Z" stroke="#4BDFEA" stroke-width="2.901"/>
<path d="M616.936 1741.75C616.936 1738.28 619.748 1735.47 623.227 1735.47C626.697 1735.47 629.51 1738.28 629.51 1741.75C629.51 1745.22 626.697 1748.04 623.227 1748.04C619.748 1748.04 616.936 1745.22 616.936 1741.75Z" fill="#E54884"/>
<path d="M601.637 1956.77C601.637 1951.69 605.756 1947.57 610.835 1947.57C615.914 1947.57 620.033 1951.69 620.033 1956.77C620.033 1961.85 615.914 1965.97 610.835 1965.97C605.756 1965.97 601.637 1961.85 601.637 1956.77Z" stroke="#4BDFEA" stroke-width="4"/>
<path d="M286.651 1817.43C286.651 1812.35 290.77 1808.23 295.85 1808.23C300.93 1808.23 305.049 1812.35 305.049 1817.43C305.049 1822.51 300.93 1826.63 295.85 1826.63C290.77 1826.63 286.651 1822.51 286.651 1817.43Z" stroke="#4BDFEA" stroke-width="4"/>
<path d="M87.6041 1897.56L76.5276 1894.14L87.6041 1890.73L91.0135 1879.66L94.4317 1890.73L105.508 1894.14L94.4317 1897.56L91.0135 1908.63L87.6041 1897.56Z" fill="#F44D99"/>
<path d="M199.458 1622.55C196.776 1621.03 195.841 1617.62 197.364 1614.94C198.896 1612.25 202.306 1611.32 204.988 1612.85C207.662 1614.37 208.606 1617.78 207.074 1620.47C205.551 1623.15 202.141 1624.08 199.458 1622.55Z" fill="#FFE843"/>
<path d="M15.088 1518.31L-3.81103 1512.47L15.088 1506.64L20.9207 1487.74L26.7529 1506.64L45.6523 1512.47L26.7529 1518.31L20.9207 1537.21L15.088 1518.31Z" fill="#F44D99"/>
<path d="M1103.18 1891.33C1103.18 1887.68 1106.15 1884.71 1109.8 1884.71C1113.46 1884.71 1116.42 1887.68 1116.42 1891.33C1116.42 1894.98 1113.46 1897.95 1109.8 1897.95C1106.15 1897.95 1103.18 1894.98 1103.18 1891.33Z" fill="#FFE843"/>
<path d="M986.403 1570.07C986.403 1561.73 993.161 1554.98 1001.49 1554.98C1009.83 1554.98 1016.59 1561.73 1016.59 1570.07C1016.59 1578.41 1009.83 1585.17 1001.49 1585.17C993.161 1585.17 986.403 1578.41 986.403 1570.07Z" stroke="#4BDFEA" stroke-width="4.759"/>
<path d="M1300.82 1864.47C1300.82 1858.42 1305.71 1853.52 1311.75 1853.52C1317.8 1853.52 1322.69 1858.42 1322.69 1864.47C1322.69 1870.51 1317.8 1875.41 1311.75 1875.41C1305.71 1875.41 1300.82 1870.51 1300.82 1864.47Z" stroke="#4BDFEA" stroke-width="4.759"/>
<path d="M904.187 62.5781C904.187 57.8005 908.055 53.9318 912.832 53.9318C917.6 53.9318 921.477 57.8006 921.477 62.5781C921.477 67.3557 917.6 71.2245 912.832 71.2245C908.055 71.2245 904.187 67.3557 904.187 62.5781Z" fill="#F44D99"/>
<path d="M832.854 16.2149C832.854 13.1425 835.346 10.6501 838.418 10.6501C841.49 10.6501 843.982 13.1425 843.982 16.2149C843.982 19.2872 841.49 21.7798 838.418 21.7798C835.346 21.7798 832.854 19.2872 832.854 16.2149Z" fill="#FFE843"/>
<path d="M734.579 27.9593C734.579 24.8867 737.071 22.3941 740.143 22.3941C743.215 22.3941 745.707 24.8867 745.707 27.9593C745.707 31.0319 743.215 33.5245 740.143 33.5245C737.071 33.5245 734.579 31.0319 734.579 27.9593Z" fill="#FFE843"/>
<path d="M819.565 311.963L808.107 308.432L819.565 304.901L823.095 293.433L826.634 304.901L838.092 308.432L826.634 311.963L823.095 323.43L819.565 311.963Z" fill="#FFE843"/>
<path d="M1828.47 770.48C1831.18 774.002 1830.52 779.048 1827 781.757C1823.47 784.466 1818.42 783.808 1815.71 780.285C1813.01 776.763 1813.67 771.717 1817.19 769.009C1820.71 766.3 1825.76 766.957 1828.47 770.48Z" stroke="#4BDFEA" stroke-width="3.498"/>
<path d="M1929.23 841.924C1931.94 845.447 1931.28 850.493 1927.76 853.201C1924.24 855.91 1919.19 855.253 1916.48 851.73C1913.77 848.208 1914.43 843.162 1917.95 840.453C1921.48 837.744 1926.52 838.402 1929.23 841.924Z" stroke="#4BDFEA" stroke-width="3.498"/>
<path d="M1770.26 908.539C1770.26 903.018 1774.75 898.534 1780.27 898.534C1785.8 898.534 1790.28 903.018 1790.28 908.539C1790.28 914.07 1785.8 918.553 1780.27 918.553C1774.75 918.553 1770.26 914.07 1770.26 908.539Z" fill="#F44D99"/>
<path d="M1687.69 854.863C1687.69 851.306 1690.57 848.424 1694.12 848.424C1697.68 848.424 1700.57 851.306 1700.57 854.863C1700.57 858.429 1697.68 861.311 1694.12 861.311C1690.57 861.311 1687.69 858.429 1687.69 854.863Z" fill="#FFE843"/>
<path d="M1573.91 868.46C1573.91 864.903 1576.79 862.021 1580.35 862.021C1583.9 862.021 1586.79 864.903 1586.79 868.46C1586.79 872.025 1583.9 874.907 1580.35 874.907C1576.79 874.907 1573.91 872.025 1573.91 868.46Z" fill="#FFE843"/>
<path d="M384.435 1845.12C384.435 1840.04 388.554 1835.92 393.633 1835.92C398.713 1835.92 402.832 1840.04 402.832 1845.12C402.832 1850.2 398.713 1854.32 393.633 1854.32C388.554 1854.32 384.435 1850.2 384.435 1845.12Z" stroke="#4BDFEA" stroke-width="4"/>
<path d="M342.898 1710.11C342.898 1705.03 347.017 1700.91 352.096 1700.91C357.176 1700.91 361.295 1705.03 361.295 1710.11C361.295 1715.19 357.176 1719.31 352.096 1719.31C347.017 1719.31 342.898 1715.19 342.898 1710.11Z" stroke="#4BDFEA" stroke-width="4"/>
<path d="M266.731 1777.26L255.655 1773.84L266.731 1770.43L270.14 1759.36L273.559 1770.43L284.635 1773.84L273.559 1777.26L270.14 1788.33L266.731 1777.26Z" fill="#F44D99"/>
<path d="M-7.73096 1616.38C-7.73096 1612.79 -4.82322 1609.88 -1.24048 1609.88C2.35092 1609.88 5.25 1612.79 5.25 1616.38C5.25 1619.96 2.35092 1622.87 -1.24048 1622.87C-4.82322 1622.87 -7.73096 1619.96 -7.73096 1616.38Z" stroke="#4BDFEA" stroke-width="2.824"/>
<path d="M35.1385 1886.76C35.9519 1889.74 34.2039 1892.81 31.2271 1893.62C28.2503 1894.45 25.1781 1892.7 24.3647 1889.72C23.5426 1886.74 25.2904 1883.67 28.2672 1882.86C31.244 1882.04 34.3164 1883.78 35.1385 1886.76Z" fill="#FFE843"/>
<path d="M99.3555 1644.27C99.3555 1640.57 102.358 1637.57 106.062 1637.57C109.757 1637.57 112.76 1640.57 112.76 1644.27C112.76 1647.97 109.757 1650.97 106.062 1650.97C102.358 1650.97 99.3555 1647.97 99.3555 1644.27Z" fill="#FFE843"/>
<path d="M1454.8 914.58C1453.02 914.58 1451.58 913.135 1451.58 911.352C1451.58 909.569 1453.02 908.115 1454.8 908.115C1456.59 908.115 1458.03 909.569 1458.03 911.352C1458.03 913.135 1456.59 914.58 1454.8 914.58Z" fill="#FFE843"/>
<path d="M1113.52 1151.34C1111.66 1151.34 1110.15 1149.83 1110.15 1147.97C1110.15 1146.11 1111.66 1144.6 1113.52 1144.6C1115.38 1144.6 1116.89 1146.11 1116.89 1147.97C1116.89 1149.83 1115.38 1151.34 1113.52 1151.34Z" fill="#E54884"/>
<path d="M1139.4 1101.95L1136.28 1112.08L1133.16 1101.95L1123.02 1098.82L1133.16 1095.7L1136.28 1085.57L1139.4 1095.7L1149.53 1098.82L1139.4 1101.95Z" fill="#F44D99"/>
<path d="M1093.14 937.238C1088.9 937.238 1085.46 933.794 1085.46 929.553C1085.46 925.304 1088.9 921.859 1093.14 921.859C1097.39 921.859 1100.84 925.304 1100.84 929.553C1100.84 933.794 1097.39 937.238 1093.14 937.238Z" fill="#F44D99"/>
<path d="M1060.99 1085.43C1059.01 1085.43 1057.4 1083.82 1057.4 1081.84C1057.4 1079.86 1059.01 1078.25 1060.99 1078.25C1062.98 1078.25 1064.59 1079.86 1064.59 1081.84C1064.59 1083.82 1062.98 1085.43 1060.99 1085.43Z" fill="#FFE843"/>
<path d="M1314.98 1012.53L1311.83 1022.73L1308.69 1012.53L1298.5 1009.39L1308.69 1006.24L1311.83 996.047L1314.98 1006.24L1325.18 1009.39L1314.98 1012.53Z" fill="#FFE843"/>
<path d="M874.601 2011.46C874.601 2005.96 879.057 2001.5 884.569 2001.5C890.073 2001.5 894.529 2005.96 894.529 2011.46C894.529 2016.97 890.073 2021.44 884.569 2021.44C879.057 2021.44 874.601 2016.97 874.601 2011.46Z" fill="#FFE843"/>
<path d="M1209.14 1438.42C1209.14 1433.65 1213.01 1429.78 1217.78 1429.78C1222.55 1429.78 1226.42 1433.65 1226.42 1438.42C1226.42 1443.2 1222.55 1447.07 1217.78 1447.07C1213.01 1447.07 1209.14 1443.2 1209.14 1438.42Z" stroke="#F44D99" stroke-width="2"/>
<path d="M112.24 397.8C112.24 393.023 116.108 389.154 120.876 389.154C125.653 389.154 129.521 393.023 129.521 397.8C129.521 402.569 125.653 406.437 120.876 406.437C116.108 406.437 112.24 402.569 112.24 397.8Z" fill="#F44D99"/>
<path d="M487.955 421.877C487.955 417.498 491.502 413.95 495.872 413.95C500.251 413.95 503.799 417.498 503.799 421.877C503.799 426.248 500.251 429.797 495.872 429.797C491.502 429.797 487.955 426.248 487.955 421.877Z" fill="#FFE843"/>
<path d="M361.07 140.859C361.07 135.779 365.189 131.668 370.268 131.668C375.348 131.668 379.467 135.779 379.467 140.859C379.467 145.94 375.348 150.06 370.268 150.06C365.189 150.06 361.07 145.94 361.07 140.859Z" stroke="#4BDFEA" stroke-width="6"/>
<path d="M194.414 204.073C191.731 202.541 190.797 199.132 192.329 196.449C193.852 193.774 197.261 192.831 199.943 194.363C202.626 195.886 203.56 199.296 202.037 201.979C200.505 204.662 197.096 205.597 194.414 204.073Z" fill="#FFE843"/>
<path d="M219.25 842.807L216.481 834.325L208.001 831.556L216.481 828.795L219.25 820.305L222.011 828.795L230.5 831.556L222.011 834.325L219.25 842.807Z" fill="#FFE843"/>
<path d="M1099.45 1421.51C1094.68 1421.51 1090.81 1417.64 1090.81 1412.87C1090.81 1408.1 1094.68 1404.22 1099.45 1404.22C1104.23 1404.22 1108.1 1408.1 1108.1 1412.87C1108.1 1417.64 1104.23 1421.51 1099.45 1421.51Z" fill="#F44D99"/>
<path d="M378.992 1907.67C376.145 1904.08 560.255 1752.24 564.772 1748.65L832.474 1534.63C836.991 1531.04 845.576 1530.36 844.2 1535.05C842.833 1539.74 847.332 1544.07 842.815 1547.66L580.582 1756.9" fill="url(#paint0_linear_20_210)"/>
<path d="M588.569 1476.74C586.708 1474.39 706.602 1375.52 709.535 1373.18L883.85 1233.82C886.801 1231.48 892.383 1231.05 891.491 1234.09C890.6 1237.15 893.525 1239.97 890.591 1242.31L719.833 1378.55" fill="url(#paint1_linear_20_210)"/>
<path d="M298.981 123.343C297.45 121.413 396.315 39.8855 398.738 37.9555L542.481 -76.9615C544.904 -78.8916 549.516 -79.2464 548.781 -76.7365L548.772 -76.7279C548.037 -74.2094 550.451 -71.8898 548.028 -69.9598L407.227 42.3866" fill="url(#paint2_linear_20_210)"/>
<path d="M459.249 1616.83C459.249 1594.02 477.715 1575.52 500.5 1575.52C523.276 1575.52 541.742 1594.02 541.742 1616.83C541.742 1639.64 523.276 1658.14 500.5 1658.14C477.715 1658.14 459.249 1639.64 459.249 1616.83Z" fill="#FFBC4A"/>
<path d="M492.377 1576.45C494.376 1576.45 496.002 1578.44 496.002 1580.96C496.002 1583.47 494.376 1585.46 492.377 1585.46L481.517 1585.46C479.63 1585.46 478.09 1587.12 478.09 1589.63C478.09 1591.53 478.972 1593.46 480.219 1593.46L518.146 1593.46C520.318 1593.46 522.066 1595.95 522.066 1598.46C522.066 1600.98 520.318 1603.48 518.146 1603.48L489.33 1603.48C487.807 1603.48 486.665 1605.86 486.665 1608.04C486.665 1610.05 487.652 1610.48 489.019 1612.48L504.82 1612.48C506.646 1612.48 508.117 1614.47 508.117 1616.99C508.117 1619.5 506.646 1621.49 504.82 1621.49L484.234 1621.49C482.676 1621.49 481.421 1623.09 481.421 1625.61C481.421 1627.62 482.226 1629.49 483.351 1629.49L504.941 1629.49C506.689 1629.49 508.117 1631.98 508.117 1634.5C508.117 1637.01 506.689 1639.5 504.941 1639.5L483.663 1639.5C482.053 1639.5 480.738 1641.11 480.738 1643.62C480.738 1645.64 481.586 1647.51 482.745 1647.51L494.566 1647.51C496.184 1647.51 497.482 1649.5 497.482 1652.01C497.482 1654.53 496.184 1656.52 494.566 1656.52L491.58 1656.52C494.453 1657.52 497.439 1657.82 500.502 1657.82C523.278 1657.82 541.744 1639.48 541.744 1616.66C541.744 1593.85 523.278 1575.36 500.502 1575.36C497.24 1575.36 494.064 1576.45 491.018 1576.45L492.377 1576.45Z" fill="#FF9151"/>
<path d="M53.8466 91.5796C66.5845 78.8485 87.2146 78.8312 99.9352 91.5536C112.656 104.267 112.638 124.909 99.9006 137.64C87.1713 150.38 66.5328 150.397 53.8209 137.675C41.1003 124.952 41.1174 104.319 53.8466 91.5796Z" fill="#FFBC4A"/>
<path d="M94.8814 87.5307C95.9977 88.6472 95.7988 90.6637 94.3883 92.0744C92.9864 93.4765 90.9704 93.6754 89.8541 92.5589L83.7878 86.5007C82.7321 85.4448 80.9496 85.5142 79.5477 86.9163C78.492 87.9808 77.9035 89.5472 78.5958 90.2396L99.7709 111.426C100.982 112.629 100.575 115.001 99.165 116.403C97.7631 117.813 95.3921 118.22 94.1893 117.008L78.0938 100.919C77.2458 100.071 75.2731 100.764 74.0616 101.975C72.9366 103.1 73.2481 103.897 72.8933 105.775L81.7195 114.594C82.732 115.615 82.4466 117.545 81.0447 118.956C79.6429 120.358 77.7047 120.643 76.6923 119.622L65.1918 108.129C64.3265 107.263 62.7341 107.454 61.3236 108.856C60.1986 109.981 59.6017 111.478 60.2334 112.11L72.2874 124.166C73.2652 125.144 72.6684 127.325 71.2665 128.735C69.8647 130.138 67.6751 130.726 66.6973 129.748L54.8162 117.874C53.9162 116.974 52.298 117.13 50.8875 118.54C49.7625 119.665 49.1914 121.18 49.8404 121.829L56.4429 128.433C57.3429 129.333 56.9623 131.168 55.5518 132.57C54.1499 133.98 52.3154 134.361 51.4068 133.461L49.7454 131.791C50.7924 133.954 52.2894 135.78 54.0028 137.494C66.7147 150.216 87.2578 150.286 99.9957 137.555C112.734 124.815 112.742 104.182 100.03 91.46C98.2044 89.6339 95.8247 88.474 94.12 86.7777L94.8814 87.5307Z" fill="#FF9151"/>
<path d="M1449.65 152.163C1462.39 139.431 1483.02 139.414 1495.74 152.137C1508.46 164.85 1508.44 185.492 1495.7 198.223C1482.97 210.963 1462.33 210.98 1449.62 198.258C1436.9 185.535 1436.92 164.902 1449.65 152.163Z" fill="#FFBC4A"/>
<path d="M1490.68 148.114C1491.8 149.23 1491.6 151.247 1490.19 152.657C1488.79 154.059 1486.77 154.258 1485.65 153.142L1479.59 147.084C1478.53 146.028 1476.75 146.097 1475.35 147.499C1474.29 148.564 1473.7 150.13 1474.4 150.823L1495.57 172.009C1496.78 173.212 1496.38 175.584 1494.96 176.986C1493.56 178.396 1491.19 178.803 1489.99 177.591L1473.89 161.502C1473.05 160.654 1471.07 161.347 1469.86 162.558C1468.74 163.683 1469.05 164.48 1468.69 166.358L1477.52 175.177C1478.53 176.198 1478.25 178.128 1476.84 179.539C1475.44 180.941 1473.5 181.226 1472.49 180.205L1460.99 168.712C1460.13 167.846 1458.53 168.037 1457.12 169.439C1456 170.564 1455.4 172.061 1456.03 172.693L1468.09 184.749C1469.07 185.727 1468.47 187.908 1467.07 189.319C1465.66 190.721 1463.48 191.309 1462.5 190.331L1450.62 178.457C1449.72 177.557 1448.1 177.713 1446.69 179.123C1445.56 180.248 1444.99 181.763 1445.64 182.412L1452.24 189.016C1453.14 189.916 1452.76 191.751 1451.35 193.153C1449.95 194.563 1448.12 194.944 1447.21 194.044L1445.55 192.374C1446.59 194.537 1448.09 196.364 1449.8 198.077C1462.51 210.8 1483.06 210.869 1495.8 198.138C1508.53 185.398 1508.54 164.765 1495.83 152.043C1494 150.217 1491.62 149.057 1489.92 147.361L1490.68 148.114Z" fill="#FF9151"/>
<path d="M1750.72 1162.34C1766.84 1146.21 1792.95 1146.2 1809.04 1162.29C1825.14 1178.39 1825.12 1204.51 1809.01 1220.63C1792.89 1236.75 1766.78 1236.77 1750.68 1220.67C1734.58 1204.57 1734.61 1178.45 1750.72 1162.34Z" fill="#FFBC4A"/>
<path d="M1802.65 1157.2C1804.07 1158.62 1803.81 1161.17 1802.03 1162.95C1800.25 1164.72 1797.7 1164.98 1796.29 1163.57L1788.61 1155.89C1787.28 1154.56 1785.02 1154.65 1783.25 1156.42C1781.9 1157.76 1781.16 1159.75 1782.03 1160.64L1808.84 1187.44C1810.37 1188.97 1809.85 1191.97 1808.07 1193.74C1806.3 1195.52 1803.3 1196.04 1801.77 1194.51L1781.4 1174.15C1780.33 1173.07 1777.83 1173.95 1776.3 1175.48C1774.87 1176.91 1775.28 1177.91 1774.83 1180.29L1785.99 1191.46C1787.28 1192.75 1786.92 1195.2 1785.13 1196.97C1783.36 1198.74 1780.91 1199.11 1779.62 1197.82L1765.07 1183.27C1763.97 1182.17 1761.96 1182.41 1760.18 1184.2C1758.76 1185.61 1758 1187.51 1758.8 1188.31L1774.05 1203.56C1775.29 1204.8 1774.54 1207.57 1772.76 1209.35C1770.98 1211.12 1768.21 1211.87 1766.98 1210.64L1751.95 1195.6C1750.8 1194.46 1748.75 1194.67 1746.97 1196.44C1745.54 1197.87 1744.82 1199.79 1745.65 1200.61L1754 1208.97C1755.13 1210.11 1754.65 1212.43 1752.87 1214.21C1751.1 1215.98 1748.77 1216.47 1747.63 1215.33L1745.53 1213.22C1746.84 1215.96 1748.74 1218.27 1750.91 1220.43C1767 1236.53 1793.01 1236.63 1809.12 1220.51C1825.24 1204.39 1825.26 1178.28 1809.16 1162.17C1806.85 1159.87 1803.84 1158.4 1801.69 1156.24L1802.65 1157.2Z" fill="#FF9151"/>
<path d="M161.998 963.782C161.998 981.81 147.409 996.419 129.41 996.419C111.41 996.419 96.8206 981.81 96.8206 963.782C96.8206 945.763 111.41 931.145 129.41 931.145C147.409 931.145 161.998 945.763 161.998 963.782Z" fill="#6679BF"/>
<path d="M122.07 978.149C122.07 974.09 125.359 970.801 129.408 970.801C133.458 970.801 136.746 974.09 136.746 978.149C136.746 982.208 133.458 985.497 129.408 985.497C125.359 985.497 122.07 982.208 122.07 978.149Z" fill="#303B72"/>
<path d="M130.741 985.497C130.741 982.546 133.138 980.148 136.081 980.148C139.032 980.148 141.42 982.546 141.42 985.497C141.42 988.448 139.032 990.846 136.081 990.846C133.138 990.846 130.741 988.448 130.741 985.497Z" fill="#303B72"/>
<path d="M137.084 947.044C137.084 944.646 139.023 942.699 141.42 942.699C143.818 942.699 145.756 944.646 145.756 947.044C145.756 949.441 143.818 951.38 141.42 951.38C139.023 951.38 137.084 949.441 137.084 947.044Z" fill="#303B72"/>
<path d="M104.305 967.512C104.305 965.669 105.794 964.18 107.628 964.18C109.471 964.18 110.959 965.669 110.959 967.512C110.959 969.356 109.471 970.853 107.628 970.853C105.794 970.853 104.305 969.356 104.305 967.512Z" fill="#303B72"/>
<path d="M111.063 947.079C111.063 943.201 114.195 940.06 118.063 940.06C121.931 940.06 125.072 943.201 125.072 947.079C125.072 950.956 121.931 954.098 118.063 954.098C114.195 954.098 111.063 950.956 111.063 947.079Z" fill="#303B72"/>
</g>
<defs>
<linearGradient id="paint0_linear_20_210" x1="806.56" y1="1863.06" x2="381.588" y2="1909.04" gradientUnits="userSpaceOnUse">
<stop stop-color="white"/>
<stop offset="1" stop-color="#2AB0FF"/>
</linearGradient>
<linearGradient id="paint1_linear_20_210" x1="866.919" y1="1448.22" x2="590.194" y2="1478.16" gradientUnits="userSpaceOnUse">
<stop stop-color="white"/>
<stop offset="1" stop-color="#2AB0FF"/>
</linearGradient>
<linearGradient id="paint2_linear_20_210" x1="528.483" y1="100.106" x2="300.296" y2="124.797" gradientUnits="userSpaceOnUse">
<stop stop-color="white"/>
<stop offset="1" stop-color="#2AB0FF"/>
</linearGradient>
<clipPath id="clip0_20_210">
<rect width="4100" height="2168" fill="white" transform="translate(4035 2022) rotate(-180)"/>
</clipPath>
</defs>
</svg>
