<svg width="162" height="24" viewBox="0 0 162 24" fill="none" xmlns="http://www.w3.org/2000/svg">
<g clip-path="url(#clip0_20_4080)">
<path d="M14 13.5H16.5L17.5 9.5H14V7.5C14 6.47 14 5.5 16 5.5H17.5V2.14C17.174 2.097 15.943 2 14.643 2C11.928 2 10 3.657 10 6.7V9.5H7V13.5H10V22H14V13.5Z" fill="white"/>
</g>
<g clip-path="url(#clip1_20_4080)">
<path d="M68.1623 5.65593C67.3989 5.99362 66.5893 6.2154 65.7603 6.31393C66.634 5.79136 67.288 4.96894 67.6003 3.99993C66.7803 4.48793 65.8813 4.82993 64.9443 5.01493C64.3149 4.34151 63.4807 3.89489 62.5713 3.74451C61.6618 3.59413 60.7282 3.74842 59.9156 4.18338C59.1029 4.61834 58.4567 5.30961 58.0774 6.14972C57.6981 6.98983 57.607 7.93171 57.8183 8.82893C56.1554 8.74558 54.5286 8.31345 53.0436 7.56059C51.5585 6.80773 50.2484 5.75097 49.1983 4.45893C48.8266 5.09738 48.6313 5.82315 48.6323 6.56193C48.6323 8.01193 49.3703 9.29293 50.4923 10.0429C49.8283 10.022 49.1789 9.84271 48.5983 9.51993V9.57193C48.5985 10.5376 48.9327 11.4735 49.5441 12.221C50.1556 12.9684 51.0068 13.4814 51.9533 13.6729C51.3369 13.84 50.6906 13.8646 50.0633 13.7449C50.3302 14.5762 50.8503 15.3031 51.5509 15.824C52.2515 16.3449 53.0974 16.6337 53.9703 16.6499C53.1028 17.3313 52.1095 17.8349 51.0472 18.1321C49.9849 18.4293 48.8744 18.5142 47.7793 18.3819C49.691 19.6114 51.9164 20.264 54.1893 20.2619C61.8823 20.2619 66.0893 13.8889 66.0893 8.36193C66.0893 8.18193 66.0843 7.99993 66.0763 7.82193C66.8952 7.23009 67.6019 6.49695 68.1633 5.65693L68.1623 5.65593Z" fill="white"/>
</g>
<g clip-path="url(#clip2_20_4080)">
<path d="M110.335 18.339H107.67V14.162C107.67 13.166 107.65 11.884 106.28 11.884C104.891 11.884 104.679 12.968 104.679 14.089V18.339H102.013V9.75H104.573V10.92H104.608C104.966 10.246 105.836 9.533 107.136 9.533C109.836 9.533 110.336 11.311 110.336 13.624V18.339H110.335ZM99.003 8.575C98.7996 8.57526 98.5981 8.53537 98.4101 8.45761C98.2221 8.37984 98.0513 8.26574 97.9075 8.12184C97.7636 7.97793 97.6497 7.80706 97.572 7.61901C97.4944 7.43097 97.4546 7.22944 97.455 7.026C97.4552 6.71983 97.5462 6.4206 97.7164 6.16615C97.8867 5.91169 98.1286 5.71343 98.4115 5.59645C98.6945 5.47947 99.0057 5.44902 99.306 5.50894C99.6062 5.56886 99.882 5.71648 100.098 5.93311C100.315 6.14974 100.462 6.42566 100.521 6.72598C100.581 7.0263 100.55 7.33753 100.433 7.62032C100.315 7.9031 100.117 8.14474 99.8622 8.31467C99.6075 8.4846 99.3082 8.5752 99.002 8.575H99.003ZM100.339 18.339H97.666V9.75H100.34V18.339H100.339ZM111.67 3H96.329C95.593 3 95 3.58 95 4.297V19.703C95 20.42 95.594 21 96.328 21H111.666C112.4 21 113 20.42 113 19.703V4.297C113 3.58 112.4 3 111.666 3H111.669H111.67Z" fill="white"/>
</g>
<g clip-path="url(#clip3_20_4080)">
<path d="M150 9C149.204 9 148.441 9.31607 147.879 9.87868C147.316 10.4413 147 11.2044 147 12C147 12.7956 147.316 13.5587 147.879 14.1213C148.441 14.6839 149.204 15 150 15C150.796 15 151.559 14.6839 152.121 14.1213C152.684 13.5587 153 12.7956 153 12C153 11.2044 152.684 10.4413 152.121 9.87868C151.559 9.31607 150.796 9 150 9ZM150 7C151.326 7 152.598 7.52678 153.536 8.46447C154.473 9.40215 155 10.6739 155 12C155 13.3261 154.473 14.5979 153.536 15.5355C152.598 16.4732 151.326 17 150 17C148.674 17 147.402 16.4732 146.464 15.5355C145.527 14.5979 145 13.3261 145 12C145 10.6739 145.527 9.40215 146.464 8.46447C147.402 7.52678 148.674 7 150 7ZM156.5 6.75C156.5 7.08152 156.368 7.39946 156.134 7.63388C155.899 7.8683 155.582 8 155.25 8C154.918 8 154.601 7.8683 154.366 7.63388C154.132 7.39946 154 7.08152 154 6.75C154 6.41848 154.132 6.10054 154.366 5.86612C154.601 5.6317 154.918 5.5 155.25 5.5C155.582 5.5 155.899 5.6317 156.134 5.86612C156.368 6.10054 156.5 6.41848 156.5 6.75ZM150 4C147.526 4 147.122 4.007 145.971 4.058C145.187 4.095 144.661 4.2 144.173 4.39C143.739 4.558 143.426 4.759 143.093 5.093C142.78 5.3954 142.539 5.76458 142.389 6.173C142.199 6.663 142.094 7.188 142.058 7.971C142.006 9.075 142 9.461 142 12C142 14.474 142.007 14.878 142.058 16.029C142.095 16.812 142.2 17.339 142.389 17.826C142.559 18.261 142.759 18.574 143.091 18.906C143.428 19.242 143.741 19.443 144.171 19.609C144.665 19.8 145.191 19.906 145.971 19.942C147.075 19.994 147.461 20 150 20C152.474 20 152.878 19.993 154.029 19.942C154.811 19.905 155.338 19.8 155.826 19.611C156.259 19.442 156.574 19.241 156.906 18.909C157.243 18.572 157.444 18.259 157.61 17.829C157.8 17.336 157.906 16.809 157.942 16.029C157.994 14.925 158 14.539 158 12C158 9.526 157.993 9.122 157.942 7.971C157.905 7.189 157.8 6.661 157.61 6.173C157.459 5.765 157.219 5.39596 156.907 5.093C156.605 4.77985 156.236 4.53917 155.827 4.389C155.337 4.199 154.811 4.094 154.029 4.058C152.925 4.006 152.539 4 150 4ZM150 2C152.717 2 153.056 2.01 154.122 2.06C155.187 2.11 155.912 2.277 156.55 2.525C157.21 2.779 157.766 3.123 158.322 3.678C158.83 4.1779 159.224 4.78259 159.475 5.45C159.722 6.087 159.89 6.813 159.94 7.878C159.987 8.944 160 9.283 160 12C160 14.717 159.99 15.056 159.94 16.122C159.89 17.187 159.722 17.912 159.475 18.55C159.225 19.2178 158.831 19.8226 158.322 20.322C157.822 20.8303 157.217 21.2238 156.55 21.475C155.913 21.722 155.187 21.89 154.122 21.94C153.056 21.987 152.717 22 150 22C147.283 22 146.944 21.99 145.878 21.94C144.813 21.89 144.088 21.722 143.45 21.475C142.782 21.2245 142.178 20.8309 141.678 20.322C141.169 19.8222 140.776 19.2175 140.525 18.55C140.277 17.913 140.11 17.187 140.06 16.122C140.013 15.056 140 14.717 140 12C140 9.283 140.01 8.944 140.06 7.878C140.11 6.812 140.277 6.088 140.525 5.45C140.775 4.78218 141.169 4.17732 141.678 3.678C142.178 3.16923 142.782 2.77573 143.45 2.525C144.088 2.277 144.812 2.11 145.878 2.06C146.944 2.013 147.283 2 150 2Z" fill="white"/>
</g>
<defs>
<clipPath id="clip0_20_4080">
<rect width="24" height="24" fill="white"/>
</clipPath>
<clipPath id="clip1_20_4080">
<rect width="24" height="24" fill="white" transform="translate(46)"/>
</clipPath>
<clipPath id="clip2_20_4080">
<rect width="24" height="24" fill="white" transform="translate(92)"/>
</clipPath>
<clipPath id="clip3_20_4080">
<rect width="24" height="24" fill="white" transform="translate(138)"/>
</clipPath>
</defs>
</svg>
