<svg width="163" height="25" viewBox="0 0 163 25" fill="none" xmlns="http://www.w3.org/2000/svg">
<g clip-path="url(#clip0_26_27183)">
<path d="M14.8018 14.478H17.3018L18.3018 10.478H14.8018V8.47803C14.8018 7.44803 14.8018 6.47803 16.8018 6.47803H18.3018V3.11803C17.9758 3.07503 16.7448 2.97803 15.4448 2.97803C12.7298 2.97803 10.8018 4.63503 10.8018 7.67803V10.478H7.80176V14.478H10.8018V22.978H14.8018V14.478Z" fill="#7C14FD"/>
</g>
<g clip-path="url(#clip1_26_27183)">
<path d="M68.9636 6.63408C68.2001 6.97177 67.3905 7.19355 66.5616 7.29208C67.4353 6.76951 68.0893 5.94709 68.4016 4.97808C67.5816 5.46608 66.6826 5.80808 65.7456 5.99308C65.1162 5.31965 64.2819 4.87304 63.3725 4.72266C62.4631 4.57228 61.5295 4.72657 60.7168 5.16153C59.9042 5.59649 59.258 6.28776 58.8787 7.12787C58.4994 7.96798 58.4083 8.90986 58.6196 9.80708C56.9567 9.72373 55.3299 9.2916 53.8449 8.53874C52.3598 7.78588 51.0497 6.72912 49.9996 5.43708C49.6279 6.07553 49.4325 6.8013 49.4336 7.54008C49.4336 8.99008 50.1716 10.2711 51.2936 11.0211C50.6296 11.0002 49.9802 10.8209 49.3996 10.4981V10.5501C49.3998 11.5158 49.7339 12.4517 50.3454 13.1991C50.9569 13.9466 51.808 14.4596 52.7546 14.6511C52.1382 14.8181 51.4919 14.8427 50.8646 14.7231C51.1314 15.5543 51.6516 16.2813 52.3522 16.8022C53.0527 17.3231 53.8987 17.6119 54.7716 17.6281C53.904 18.3094 52.9107 18.8131 51.8484 19.1102C50.7862 19.4074 49.6757 19.4923 48.5806 19.3601C50.4923 20.5895 52.7177 21.2422 54.9906 21.2401C62.6836 21.2401 66.8906 14.8671 66.8906 9.34008C66.8906 9.16008 66.8856 8.97808 66.8776 8.80008C67.6964 8.20824 68.4032 7.4751 68.9646 6.63508L68.9636 6.63408Z" fill="#7C14FD"/>
</g>
<g clip-path="url(#clip2_26_27183)">
<path d="M111.137 19.317H108.472V15.14C108.472 14.144 108.452 12.862 107.082 12.862C105.693 12.862 105.481 13.946 105.481 15.067V19.317H102.815V10.728H105.375V11.898H105.41C105.768 11.224 106.638 10.511 107.938 10.511C110.638 10.511 111.138 12.289 111.138 14.602V19.317H111.137ZM99.8048 9.55303C99.6013 9.55329 99.3998 9.5134 99.2118 9.43563C99.0238 9.35787 98.853 9.24377 98.7092 9.09986C98.5654 8.95596 98.4514 8.78509 98.3738 8.59704C98.2961 8.40899 98.2564 8.20747 98.2568 8.00403C98.257 7.69786 98.3479 7.39863 98.5182 7.14417C98.6885 6.88972 98.9304 6.69146 99.2133 6.57448C99.4962 6.4575 99.8075 6.42704 100.108 6.48697C100.408 6.54689 100.684 6.6945 100.9 6.91113C101.116 7.12777 101.264 7.40369 101.323 7.70401C101.383 8.00433 101.352 8.31556 101.235 8.59835C101.117 8.88113 100.919 9.12277 100.664 9.2927C100.409 9.46263 100.11 9.55323 99.8038 9.55303H99.8048ZM101.141 19.317H98.4678V10.728H101.142V19.317H101.141ZM112.472 3.97803H97.1308C96.3948 3.97803 95.8018 4.55803 95.8018 5.27503V20.681C95.8018 21.398 96.3958 21.978 97.1298 21.978H112.468C113.202 21.978 113.802 21.398 113.802 20.681V5.27503C113.802 4.55803 113.202 3.97803 112.468 3.97803H112.471H112.472Z" fill="#7C14FD"/>
</g>
<g clip-path="url(#clip3_26_27183)">
<path d="M150.802 9.97803C150.006 9.97803 149.243 10.2941 148.68 10.8567C148.118 11.4193 147.802 12.1824 147.802 12.978C147.802 13.7737 148.118 14.5367 148.68 15.0993C149.243 15.662 150.006 15.978 150.802 15.978C151.597 15.978 152.36 15.662 152.923 15.0993C153.486 14.5367 153.802 13.7737 153.802 12.978C153.802 12.1824 153.486 11.4193 152.923 10.8567C152.36 10.2941 151.597 9.97803 150.802 9.97803ZM150.802 7.97803C152.128 7.97803 153.4 8.50481 154.337 9.44249C155.275 10.3802 155.802 11.6519 155.802 12.978C155.802 14.3041 155.275 15.5759 154.337 16.5136C153.4 17.4512 152.128 17.978 150.802 17.978C149.476 17.978 148.204 17.4512 147.266 16.5136C146.329 15.5759 145.802 14.3041 145.802 12.978C145.802 11.6519 146.329 10.3802 147.266 9.44249C148.204 8.50481 149.476 7.97803 150.802 7.97803ZM157.302 7.72803C157.302 8.05955 157.17 8.37749 156.936 8.61191C156.701 8.84633 156.383 8.97803 156.052 8.97803C155.72 8.97803 155.402 8.84633 155.168 8.61191C154.933 8.37749 154.802 8.05955 154.802 7.72803C154.802 7.39651 154.933 7.07856 155.168 6.84414C155.402 6.60972 155.72 6.47803 156.052 6.47803C156.383 6.47803 156.701 6.60972 156.936 6.84414C157.17 7.07856 157.302 7.39651 157.302 7.72803ZM150.802 4.97803C148.328 4.97803 147.924 4.98503 146.773 5.03603C145.989 5.07303 145.463 5.17803 144.975 5.36803C144.541 5.53603 144.228 5.73703 143.895 6.07103C143.582 6.37343 143.341 6.74261 143.191 7.15103C143.001 7.64103 142.896 8.16603 142.86 8.94903C142.808 10.053 142.802 10.439 142.802 12.978C142.802 15.452 142.809 15.856 142.86 17.007C142.897 17.79 143.002 18.317 143.191 18.804C143.361 19.239 143.561 19.552 143.893 19.884C144.23 20.22 144.543 20.421 144.973 20.587C145.467 20.778 145.993 20.884 146.773 20.92C147.877 20.972 148.263 20.978 150.802 20.978C153.276 20.978 153.68 20.971 154.831 20.92C155.613 20.883 156.14 20.778 156.628 20.589C157.061 20.42 157.376 20.219 157.708 19.887C158.045 19.55 158.246 19.237 158.412 18.807C158.602 18.314 158.708 17.787 158.744 17.007C158.796 15.903 158.802 15.517 158.802 12.978C158.802 10.504 158.795 10.1 158.744 8.94903C158.707 8.16703 158.602 7.63903 158.412 7.15103C158.261 6.74303 158.021 6.37399 157.709 6.07103C157.406 5.75787 157.037 5.51719 156.629 5.36703C156.139 5.17703 155.613 5.07203 154.831 5.03603C153.727 4.98403 153.341 4.97803 150.802 4.97803ZM150.802 2.97803C153.519 2.97803 153.858 2.98803 154.924 3.03803C155.989 3.08803 156.714 3.25503 157.352 3.50303C158.012 3.75703 158.568 4.10103 159.124 4.65603C159.632 5.15592 160.026 5.76062 160.277 6.42803C160.524 7.06503 160.692 7.79103 160.742 8.85603C160.789 9.92203 160.802 10.261 160.802 12.978C160.802 15.695 160.792 16.034 160.742 17.1C160.692 18.165 160.524 18.89 160.277 19.528C160.026 20.1958 159.633 20.8006 159.124 21.3C158.624 21.8083 158.019 22.2018 157.352 22.453C156.715 22.7 155.989 22.868 154.924 22.918C153.858 22.965 153.519 22.978 150.802 22.978C148.085 22.978 147.746 22.968 146.68 22.918C145.615 22.868 144.89 22.7 144.252 22.453C143.584 22.2025 142.979 21.809 142.48 21.3C141.971 20.8002 141.578 20.1955 141.327 19.528C141.079 18.891 140.912 18.165 140.862 17.1C140.815 16.034 140.802 15.695 140.802 12.978C140.802 10.261 140.812 9.92203 140.862 8.85603C140.912 7.79003 141.079 7.06603 141.327 6.42803C141.577 5.76021 141.971 5.15535 142.48 4.65603C142.979 4.14726 143.584 3.75376 144.252 3.50303C144.89 3.25503 145.614 3.08803 146.68 3.03803C147.746 2.99103 148.085 2.97803 150.802 2.97803Z" fill="#7C14FD"/>
</g>
<defs>
<clipPath id="clip0_26_27183">
<rect width="24" height="24" fill="white" transform="translate(0.801758 0.978027)"/>
</clipPath>
<clipPath id="clip1_26_27183">
<rect width="24" height="24" fill="white" transform="translate(46.8018 0.978027)"/>
</clipPath>
<clipPath id="clip2_26_27183">
<rect width="24" height="24" fill="white" transform="translate(92.8018 0.978027)"/>
</clipPath>
<clipPath id="clip3_26_27183">
<rect width="24" height="24" fill="white" transform="translate(138.802 0.978027)"/>
</clipPath>
</defs>
</svg>
