<svg width="677" height="615" viewBox="0 0 677 615" fill="none" xmlns="http://www.w3.org/2000/svg">
<g opacity="0.46">
<g opacity="0.46">
<path opacity="0.46" d="M152.253 213.31L12.6739 293.477C7.38386 296.516 0.778809 292.707 0.778809 286.618V243.525C0.778809 240.695 2.29439 238.079 4.75461 236.666L144.334 156.499C149.624 153.46 156.229 157.269 156.229 163.358V206.451C156.228 209.282 154.712 211.898 152.253 213.31Z" fill="url(#paint0_linear_29_2056)"/>
</g>
<g opacity="0.46">
<path opacity="0.46" d="M324.76 146.821L185.181 226.989C179.891 230.027 173.286 226.218 173.286 220.13V177.037C173.286 174.206 174.802 171.59 177.262 170.178L316.841 90.0103C322.131 86.9715 328.736 90.7806 328.736 96.8694V139.962C328.736 142.794 327.22 145.409 324.76 146.821Z" fill="url(#paint1_linear_29_2056)"/>
</g>
<g opacity="0.46">
<path opacity="0.46" d="M337.81 59.8918L198.231 140.059C192.941 143.098 186.336 139.289 186.336 133.2V90.1071C186.336 87.2765 187.852 84.6604 190.312 83.248L329.891 3.08063C335.181 0.0419183 341.786 3.851 341.786 9.93972V53.0327C341.785 55.8633 340.27 58.4793 337.81 59.8918Z" fill="url(#paint2_linear_29_2056)"/>
</g>
</g>
<g opacity="0.46">
<path opacity="0.46" d="M151.952 261.461V352.081C151.952 356.511 149.583 360.605 145.737 362.821L24.1641 432.861C15.8744 437.637 5.51025 431.669 5.51025 422.121V330.991C5.51025 326.548 7.89447 322.442 11.7595 320.232L133.332 250.701C141.622 245.96 151.952 251.929 151.952 261.461Z" fill="url(#paint3_linear_29_2056)"/>
</g>
<path d="M324.756 608.853L49.6347 450.407C39.6685 444.668 39.6685 430.319 49.6355 424.58L354.893 248.807C365.079 242.943 377.624 242.931 387.821 248.775L669.118 410.025C679.107 415.752 679.122 430.121 669.144 435.867L368.776 608.853C355.156 616.697 338.376 616.697 324.756 608.853Z" fill="url(#paint4_linear_29_2056)"/>
<path d="M487.566 401.947L525.362 424.83L366.428 516.363L308.261 482.296" stroke="white" stroke-width="3" stroke-miterlimit="10"/>
<path d="M322.968 476.078L366.428 501.108L472.385 440.086L447.939 426.007" stroke="white" stroke-width="3" stroke-miterlimit="10"/>
<path d="M390.874 426.007L322.968 465.115" stroke="white" stroke-width="3" stroke-miterlimit="10"/>
<path d="M362.539 411.865L331.448 429.721" stroke="white" stroke-width="3" stroke-miterlimit="10"/>
<path d="M326.46 493.615L273.717 523.99L222.111 493.48L263.98 468.577" stroke="white" stroke-width="3" stroke-miterlimit="10"/>
<path d="M324.538 324.429L300.206 309.606L234.619 348.187" stroke="white" stroke-width="3" stroke-miterlimit="10"/>
<path d="M350.108 308.644L313.45 286.778L237.484 331.25" stroke="white" stroke-width="3" stroke-miterlimit="10"/>
<path d="M392.917 287.532L341.622 256.68L225.685 321.507" stroke="white" stroke-width="3" stroke-miterlimit="10"/>
<path d="M578.341 470.596L538.607 447.714L578.341 424.83L516.939 389.526" stroke="white" stroke-width="3" stroke-miterlimit="10"/>
<path d="M338.9 468.577L353.184 478.224L421.134 439.091" stroke="white" stroke-width="3" stroke-miterlimit="10"/>
<path d="M631.319 440.086L530.817 381.38" stroke="white" stroke-width="3" stroke-miterlimit="10"/>
<path d="M657.807 424.83L559.188 368.034" stroke="white" stroke-width="3" stroke-miterlimit="10"/>
<path d="M274.606 347.268V365.221C274.606 366.82 275.378 368.276 276.586 368.96L414.909 447.132C418.319 449.059 422.272 449.059 425.683 447.132L563.711 369.127C565.099 368.342 565.986 366.669 565.986 364.831V347.268L420.296 424.426L274.606 347.268Z" fill="white"/>
<path d="M274.606 347.268V365.132C274.606 366.786 275.403 368.292 276.654 368.998L415.071 447.225C418.379 449.094 422.213 449.094 425.52 447.225L562.682 369.708C564.698 368.568 565.985 366.14 565.985 363.472V347.269L420.295 425.394L274.606 347.268Z" fill="url(#paint5_linear_29_2056)"/>
<path d="M274.606 347.268L420.296 267.208L565.986 347.268L424.885 424.806C421.972 426.407 418.619 426.407 415.705 424.806L274.606 347.268Z" fill="#2A2F6D"/>
<path d="M274.606 347.268L420.296 267.208L565.986 347.268L424.885 424.806C421.972 426.407 418.619 426.407 415.705 424.806L274.606 347.268Z" fill="url(#paint6_linear_29_2056)"/>
<path d="M418.678 382.27C460.397 382.27 494.217 363.686 494.217 340.76C494.217 317.835 460.397 299.25 418.678 299.25C376.959 299.25 343.139 317.835 343.139 340.76C343.139 363.686 376.959 382.27 418.678 382.27Z" fill="url(#paint7_linear_29_2056)"/>
<path d="M418.678 370.702C448.77 370.702 473.165 357.297 473.165 340.76C473.165 324.224 448.77 310.818 418.678 310.818C388.586 310.818 364.191 324.224 364.191 340.76C364.191 357.297 388.586 370.702 418.678 370.702Z" fill="url(#paint8_linear_29_2056)"/>
<path d="M418.678 357.578C435.581 357.578 449.283 350.049 449.283 340.76C449.283 331.472 435.581 323.942 418.678 323.942C401.776 323.942 388.074 331.472 388.074 340.76C388.074 350.049 401.776 357.578 418.678 357.578Z" fill="white"/>
<path d="M416.224 344.836V405.273C416.224 406.896 417.323 408.211 418.679 408.211C420.035 408.211 421.134 406.896 421.134 405.273V344.836C421.134 343.236 420.064 341.93 418.727 341.898C417.353 341.866 416.224 343.191 416.224 344.836Z" fill="url(#paint9_linear_29_2056)"/>
<path d="M294.857 293.324V343.716C294.857 345.068 295.956 346.165 297.313 346.165C298.669 346.165 299.768 345.068 299.768 343.716V293.324C299.768 291.991 298.698 290.902 297.361 290.875C295.987 290.848 294.857 291.953 294.857 293.324Z" fill="url(#paint10_linear_29_2056)"/>
<path d="M538.778 282.732V343.17C538.778 344.792 539.877 346.108 541.234 346.108C542.59 346.108 543.689 344.793 543.689 343.17V282.732C543.689 281.132 542.619 279.826 541.282 279.795C539.908 279.762 538.778 281.086 538.778 282.732Z" fill="url(#paint11_linear_29_2056)"/>
<g opacity="0.5">
<path opacity="0.5" d="M418.798 414.614C416.125 414.614 413.535 413.937 411.098 412.604L298.6 350.985C292.952 347.891 289.302 341.047 289.302 333.548V75.654C289.302 70.9544 292.409 67.0751 296.228 67.0066L544.916 62.5264C548.789 62.5264 551.94 66.4064 551.94 71.1746V340.202C551.94 343.652 550.273 346.77 547.69 348.143L426.311 412.703C423.928 413.971 421.401 414.614 418.798 414.614C418.799 414.614 418.799 414.614 418.798 414.614Z" fill="url(#paint12_linear_29_2056)"/>
<g opacity="0.5">
<path opacity="0.5" d="M544.916 63.7363C548.121 63.7363 550.728 67.0735 550.728 71.1746V340.202C550.728 343.211 549.312 345.909 547.12 347.075L425.741 411.636C423.535 412.809 421.2 413.404 418.799 413.404C416.333 413.404 413.939 412.777 411.684 411.542L299.185 349.924C293.919 347.04 290.517 340.612 290.517 333.548V75.654C290.517 71.6102 293.09 68.2738 296.251 68.2166L544.833 63.7372L544.916 63.7363ZM544.916 61.3163C544.874 61.3163 544.832 61.3164 544.789 61.3172L296.206 65.7966C291.704 65.878 288.09 70.2671 288.09 75.654V333.548C288.09 341.506 291.968 348.733 298.016 352.045L410.515 413.663C413.144 415.103 415.971 415.824 418.798 415.824C421.553 415.824 424.308 415.14 426.883 413.771L548.261 349.21C551.237 347.627 553.154 344.097 553.154 340.202V71.1746C553.154 65.7224 549.458 61.3163 544.916 61.3163Z" fill="#FFFEFF"/>
</g>
</g>
<g opacity="0.58">
<path opacity="0.58" d="M418.799 414.614C416.126 414.613 413.536 413.937 411.099 412.603L298.6 350.984C292.953 347.89 289.303 341.046 289.303 333.547V75.654C289.303 70.9552 292.41 67.076 296.229 67.0074L544.916 62.5264C548.79 62.5264 551.941 66.4064 551.941 71.1746V340.202C551.941 343.652 550.274 346.769 547.691 348.143L426.312 412.703C423.928 413.971 421.4 414.614 418.799 414.614Z" fill="url(#paint13_linear_29_2056)"/>
<g opacity="0.58">
<path opacity="0.58" d="M544.916 63.7363C548.121 63.7363 550.728 67.0735 550.728 71.1746V340.202C550.728 343.211 549.312 345.908 547.12 347.075L425.741 411.636C423.535 412.809 421.2 413.404 418.799 413.404C416.333 413.404 413.939 412.777 411.684 411.542L299.185 349.924C293.919 347.04 290.517 340.612 290.517 333.548V75.654C290.517 71.6102 293.09 68.2738 296.251 68.2166L544.833 63.7372L544.916 63.7363ZM544.916 61.3163C544.874 61.3163 544.832 61.3164 544.789 61.3172L296.206 65.7966C291.704 65.878 288.09 70.2671 288.09 75.654V333.548C288.09 341.506 291.968 348.733 298.016 352.045L410.515 413.663C413.144 415.103 415.971 415.824 418.798 415.824C421.553 415.824 424.308 415.14 426.883 413.771L548.261 349.21C551.237 347.627 553.154 344.097 553.154 340.202V71.1746C553.155 65.7224 549.458 61.3163 544.916 61.3163Z" fill="white"/>
</g>
</g>
<path d="M427.564 404.877C427.564 404.877 464.717 373.545 465.798 348.553C466.879 323.562 459.729 309.374 498.874 289.399C538.02 269.424 547.641 203.627 547.641 203.627V339.757L427.564 404.877Z" fill="url(#paint14_linear_29_2056)"/>
<path opacity="0.21" d="M550.667 74.5795L550.369 325.445C550.369 330.462 544.325 339.037 539.996 341.022L482.359 367.424C477.776 369.521 472.675 365.948 472.675 360.648V118.285C485.95 115.486 498.407 111.807 509.517 107.258C527.594 99.8524 541.445 89.6658 550.667 74.5795Z" fill="url(#paint15_linear_29_2056)"/>
<path d="M420.296 123.044C493.364 123.044 552.596 95.7696 552.596 62.1247C552.596 28.4798 493.364 1.2052 420.296 1.2052C347.229 1.2052 287.996 28.4798 287.996 62.1247C287.996 95.7696 347.229 123.044 420.296 123.044Z" fill="#CDE9F9"/>
<path d="M420.296 123.044C493.364 123.044 552.596 95.7696 552.596 62.1247C552.596 28.4798 493.364 1.2052 420.296 1.2052C347.229 1.2052 287.996 28.4798 287.996 62.1247C287.996 95.7696 347.229 123.044 420.296 123.044Z" fill="white"/>
<path d="M420.296 103.111C489.692 103.111 545.949 80.2413 545.949 52.0307C545.949 23.8202 489.692 0.950989 420.296 0.950989C350.9 0.950989 294.643 23.8202 294.643 52.0307C294.643 80.2413 350.9 103.111 420.296 103.111Z" fill="#BD8AAE"/>
<path d="M420.296 103.111C489.692 103.111 545.949 80.2413 545.949 52.0307C545.949 23.8202 489.692 0.950989 420.296 0.950989C350.9 0.950989 294.643 23.8202 294.643 52.0307C294.643 80.2413 350.9 103.111 420.296 103.111Z" fill="url(#paint16_linear_29_2056)"/>
<path d="M420.296 80.9417C464.833 80.9417 500.937 66.265 500.937 48.1604C500.937 30.0557 464.833 15.379 420.296 15.379C375.759 15.379 339.655 30.0557 339.655 48.1604C339.655 66.265 375.759 80.9417 420.296 80.9417Z" fill="url(#paint17_linear_29_2056)"/>
<path d="M420.296 89.8804C476.977 89.8804 522.925 71.2017 522.925 48.1604C522.925 25.1191 476.977 6.44037 420.296 6.44037C363.615 6.44037 317.667 25.1191 317.667 48.1604C317.667 71.2017 363.615 89.8804 420.296 89.8804Z" stroke="#1BA0DB" stroke-width="3" stroke-miterlimit="10"/>
<path d="M420.296 55.6567C438.368 55.6567 453.018 49.7016 453.018 42.3556C453.018 35.0096 438.368 29.0544 420.296 29.0544C402.225 29.0544 387.575 35.0096 387.575 42.3556C387.575 49.7016 402.225 55.6567 420.296 55.6567Z" fill="#CDE9F9"/>
<path d="M420.297 48.4653C411.582 48.4653 403.419 47.098 397.311 44.6159C391.319 42.1798 388.02 38.9717 388.02 35.5837C388.02 32.1949 391.319 28.9876 397.311 26.5514C403.419 24.0685 411.582 22.702 420.297 22.702C429.011 22.702 437.174 24.0693 443.281 26.5514C449.273 28.9876 452.573 32.1957 452.573 35.5837C452.573 38.9717 449.273 42.1798 443.281 44.6159C437.174 47.098 429.011 48.4653 420.297 48.4653Z" fill="url(#paint18_linear_29_2056)"/>
<path d="M420.296 23.1045C428.959 23.1045 437.068 24.4613 443.128 26.9249C448.873 29.2602 452.169 32.4167 452.168 35.5836C452.168 38.7506 448.873 41.9063 443.128 44.2424C437.068 46.7059 428.959 48.0627 420.296 48.0627C411.633 48.0627 403.524 46.7059 397.464 44.2424C391.719 41.9071 388.424 38.7506 388.424 35.5836C388.424 32.4167 391.719 29.261 397.464 26.9249C403.524 24.4613 411.633 23.1045 420.296 23.1045ZM420.296 22.2979C411.908 22.2979 403.522 23.5909 397.159 26.1779C384.433 31.3511 384.433 39.8162 397.159 44.9894C403.521 47.5755 411.908 48.8694 420.296 48.8694C428.684 48.8694 437.07 47.5763 443.434 44.9894C456.159 39.8162 456.159 31.3511 443.434 26.1779C437.071 23.5909 428.684 22.2979 420.296 22.2979Z" fill="#E7F6FD"/>
<path d="M461.892 217.629C460.519 216.914 459.141 216.3 457.771 215.79C454.246 189.496 437.879 163.596 417.817 153.154C393.672 140.587 372.57 154.73 370.778 184.681C370.747 185.189 370.723 185.701 370.705 186.215L370.572 186.146C354.357 177.705 340.186 187.204 338.982 207.317C337.779 227.422 349.992 250.645 366.207 259.085L392.642 272.844C394.31 273.712 395.761 272.739 395.884 270.671C396.008 268.602 394.758 266.223 393.09 265.356L366.655 251.598C353.768 244.89 344.063 226.437 345.019 210.459C345.975 194.475 357.237 186.926 370.124 193.634L373.48 195.38C374.336 195.826 375.179 195.799 375.797 195.308C376.418 194.817 376.755 193.907 376.729 192.805C376.689 191.124 376.717 189.448 376.815 187.822C378.36 161.999 396.552 149.805 417.369 160.64C435.52 170.086 450.162 194.202 452.184 217.978C452.274 219.042 452.685 220.153 453.323 221.061C453.961 221.972 454.775 222.603 455.578 222.812C457.506 223.318 459.48 224.093 461.445 225.115C477.787 233.62 490.096 257.026 488.883 277.289C488.266 287.602 484.121 295.676 477.511 299.443C477.431 299.487 477.357 299.538 477.285 299.594C472.704 303.211 466.108 303.359 459.64 299.992L435.583 287.471C433.916 286.603 432.464 287.576 432.34 289.644C432.217 291.712 433.467 294.091 435.135 294.959L459.192 307.48C467.411 311.758 475.481 311.59 481.357 307.028C489.24 302.471 494.181 292.787 494.92 280.431C496.379 256.04 481.563 227.866 461.892 217.629Z" fill="url(#paint19_linear_29_2056)"/>
<path d="M450.147 265.536C450.653 266.297 451.26 266.852 451.874 267.171C452.808 267.658 453.761 267.602 454.412 266.899C455.492 265.736 455.332 263.239 454.056 261.322L420.732 211.267C420.717 211.245 420.701 211.227 420.686 211.206C420.639 211.136 420.586 211.072 420.535 211.004C420.437 210.872 420.338 210.746 420.233 210.629C420.176 210.563 420.117 210.503 420.057 210.442C419.945 210.326 419.83 210.221 419.713 210.122C419.657 210.075 419.602 210.027 419.546 209.984C419.188 209.712 418.817 209.519 418.448 209.413C418.389 209.396 418.333 209.386 418.275 209.374C418.153 209.349 418.034 209.332 417.915 209.327C417.851 209.324 417.788 209.322 417.726 209.324C417.615 209.329 417.507 209.348 417.4 209.372C417.344 209.385 417.288 209.392 417.234 209.41C417.218 209.416 417.201 209.416 417.185 209.421L380.064 222.811C378.642 223.324 378.202 225.509 379.082 227.692C379.96 229.873 381.825 231.231 383.248 230.716L415.319 219.147L410.002 308.012C409.878 310.08 411.128 312.459 412.796 313.326C414.464 314.194 415.915 313.221 416.038 311.153L421.356 222.288L450.147 265.536Z" fill="url(#paint20_linear_29_2056)"/>
<path d="M454.44 221.449C453.066 220.735 451.688 220.12 450.319 219.61C446.794 193.317 430.427 167.416 410.365 156.974C386.22 144.407 365.118 158.55 363.326 188.502C363.295 189.009 363.271 189.521 363.252 190.035L363.12 189.966C346.904 181.526 332.733 191.024 331.53 211.137C330.327 231.242 342.54 254.465 358.755 262.906L385.19 276.664C386.857 277.532 388.308 276.559 388.432 274.491C388.556 272.423 387.305 270.045 385.638 269.177L359.203 255.418C346.316 248.711 336.611 230.257 337.567 214.28C338.523 198.296 349.785 190.747 362.672 197.454L366.027 199.201C366.883 199.646 367.726 199.619 368.344 199.128C368.965 198.638 369.302 197.728 369.276 196.626C369.236 194.945 369.264 193.268 369.362 191.642C370.907 165.819 389.099 153.626 409.916 164.46C428.066 173.907 442.709 198.022 444.731 221.799C444.821 222.863 445.232 223.973 445.869 224.882C446.508 225.792 447.322 226.423 448.125 226.632C450.053 227.139 452.027 227.913 453.992 228.935C470.334 237.441 482.642 260.846 481.43 281.11C480.813 291.422 476.667 299.496 470.058 303.263C469.979 303.307 469.904 303.358 469.832 303.415C465.251 307.031 458.655 307.179 452.187 303.813L428.13 291.292C426.463 290.424 425.011 291.397 424.887 293.465C424.763 295.534 426.014 297.912 427.681 298.78L451.739 311.302C459.958 315.579 468.028 315.412 473.904 310.849C481.787 306.292 486.727 296.608 487.467 284.252C488.926 259.861 474.11 231.688 454.44 221.449Z" fill="white"/>
<path d="M442.694 269.357C443.2 270.118 443.807 270.673 444.421 270.992C445.355 271.479 446.308 271.423 446.959 270.721C448.039 269.557 447.879 267.06 446.603 265.143L413.279 215.088C413.264 215.066 413.248 215.049 413.233 215.028C413.185 214.957 413.133 214.893 413.082 214.825C412.984 214.694 412.885 214.567 412.78 214.45C412.723 214.385 412.664 214.324 412.604 214.263C412.492 214.147 412.377 214.042 412.26 213.943C412.204 213.897 412.15 213.848 412.093 213.805C411.735 213.533 411.364 213.34 410.996 213.234C410.936 213.217 410.88 213.208 410.822 213.196C410.7 213.17 410.581 213.154 410.462 213.148C410.398 213.145 410.336 213.143 410.273 213.146C410.162 213.15 410.054 213.169 409.947 213.193C409.892 213.206 409.835 213.213 409.782 213.231C409.765 213.237 409.748 213.237 409.732 213.242L372.611 226.632C371.189 227.145 370.75 229.331 371.629 231.513C372.507 233.695 374.372 235.052 375.795 234.538L407.866 222.968L402.549 311.833C402.425 313.901 403.676 316.28 405.343 317.147C407.011 318.015 408.462 317.043 408.585 314.975L413.903 226.11L442.694 269.357Z" fill="white"/>
<path d="M301.224 493.615L173.834 419.843V325.279C173.834 325.279 297.334 380.489 308.664 395.731C319.994 410.974 307.61 465.112 307.61 465.112L301.224 493.615Z" fill="url(#paint21_linear_29_2056)"/>
<path d="M342.26 393.798C342.26 412.827 342.26 469.568 342.26 469.568L301.224 493.615V415.981C301.224 415.981 302.607 406.454 296.509 398.718C294.948 396.726 292.878 394.854 290.169 393.29L175.625 328.103C173.223 326.731 173.24 323.271 175.658 321.932L206.204 304.984C209.003 303.435 212.399 303.443 215.181 305L329.903 369.154C329.903 369.154 335.968 371.913 339.591 380.1C341.152 383.601 342.26 388.095 342.26 393.798Z" fill="#E7F6FD"/>
<path d="M342.26 393.798C342.26 412.827 342.26 469.568 342.26 469.568L301.224 493.615V415.981C301.224 415.981 302.607 406.454 296.509 398.718L339.591 380.1C341.152 383.601 342.26 388.095 342.26 393.798Z" fill="url(#paint22_linear_29_2056)"/>
<path d="M333.359 520.984L333.308 438.362H243.95L244.001 520.959L231.261 528.296C228.634 529.809 228.634 533.591 231.261 535.103L280.587 563.511C285.582 566.387 291.735 566.387 296.73 563.511L345.432 535.463C348.336 533.79 348.336 529.609 345.432 527.936L333.359 520.984Z" fill="url(#paint23_linear_29_2056)"/>
<path d="M288.659 459.989C314.579 459.989 335.592 447.887 335.592 432.96C335.592 418.032 314.579 405.931 288.659 405.931C262.738 405.931 241.725 418.032 241.725 432.96C241.725 447.887 262.738 459.989 288.659 459.989Z" fill="url(#paint24_linear_29_2056)"/>
<path d="M288.659 459.989C314.579 459.989 335.592 447.887 335.592 432.96C335.592 418.032 314.579 405.931 288.659 405.931C262.738 405.931 241.725 418.032 241.725 432.96C241.725 447.887 262.738 459.989 288.659 459.989Z" fill="url(#paint25_linear_29_2056)"/>
<path d="M303.502 439.418L303.175 437.644L272.722 420.083C270.786 418.966 269.583 416.888 269.583 414.658V374.514L267.944 372.64L264.102 367.442L272.225 362.763L272.229 362.772L272.605 362.547C273.27 362.144 273.944 361.94 274.605 361.94C275.173 361.94 275.724 362.092 276.245 362.391L316.716 385.685C318.721 386.837 319.966 388.986 319.966 391.294L319.965 439.979C319.965 440.915 319.507 441.738 318.706 442.235L318.603 442.299L309.416 447.686L303.502 439.418Z" fill="url(#paint26_linear_29_2056)"/>
<path d="M274.605 362.342C275.101 362.342 275.585 362.475 276.043 362.738L316.516 386.033C318.394 387.112 319.562 389.127 319.562 391.291L319.562 439.977C319.562 440.77 319.173 441.468 318.493 441.89L318.424 441.934L318.403 441.947L318.399 441.949L309.531 447.149L303.884 439.257L303.606 437.753L303.539 437.387L303.216 437.2L272.924 419.733C271.113 418.688 269.987 416.743 269.987 414.657V374.664V374.361L269.789 374.133L268.271 372.398L264.696 367.562L272.214 363.232L272.224 363.244L272.815 362.888C273.417 362.526 274.019 362.342 274.605 362.342ZM274.605 361.535C273.882 361.535 273.135 361.754 272.395 362.201L272.394 362.199L263.508 367.317L267.64 372.905L269.179 374.665V414.659C269.179 417.04 270.453 419.241 272.519 420.433L302.811 437.901L303.12 439.58L309.302 448.219L318.809 442.645C318.826 442.637 318.841 442.628 318.857 442.618L318.921 442.582V442.577C319.769 442.048 320.37 441.12 320.37 439.979L320.371 391.294C320.371 388.835 319.055 386.563 316.919 385.336L276.446 362.041C275.866 361.706 275.245 361.535 274.605 361.535Z" fill="#FDFEFE"/>
<path d="M307.833 448.191C307.367 448.191 306.919 448.069 306.501 447.83L265.558 424.218C263.622 423.102 262.419 421.024 262.419 418.794V369.903C262.419 368.302 263.767 367.312 265.017 367.312C265.47 367.312 265.904 367.429 266.307 367.662L307.257 391.229C309.262 392.383 310.507 394.532 310.507 396.839L310.506 445.525C310.506 446.259 310.218 446.939 309.694 447.439C309.194 447.918 308.515 448.191 307.833 448.191Z" fill="url(#paint27_linear_29_2056)"/>
<path d="M265.017 367.715C265.397 367.715 265.763 367.814 266.104 368.011L307.055 391.579C308.934 392.66 310.102 394.675 310.102 396.839L310.101 445.526C310.101 446.923 308.924 447.789 307.833 447.789C307.438 447.789 307.058 447.685 306.704 447.481L265.76 423.87C263.949 422.826 262.824 420.881 262.824 418.795V369.904C262.823 368.552 263.962 367.715 265.017 367.715ZM265.017 366.908C263.45 366.908 262.014 368.158 262.014 369.903V418.795C262.014 421.175 263.287 423.376 265.354 424.568L306.299 448.179C306.794 448.465 307.32 448.595 307.832 448.595C309.437 448.595 310.909 447.315 310.909 445.526L310.91 396.839C310.91 394.38 309.593 392.108 307.458 390.881L266.509 367.312C266.027 367.035 265.515 366.908 265.017 366.908Z" fill="#FDFEFE"/>
<path d="M309.36 448.185L309.302 448.219L309.297 448.212C309.317 448.201 309.34 448.196 309.36 448.185Z" fill="url(#paint28_linear_29_2056)"/>
<path d="M309.36 448.185C309.359 448.185 309.36 448.185 309.36 448.185V448.185ZM309.359 448.185C309.339 448.196 309.317 448.201 309.296 448.211L309.301 448.218L309.359 448.185Z" fill="#FDFEFE"/>
<path d="M311.117 446.687C311.246 446.321 311.314 445.93 311.314 445.526L311.315 396.839C311.315 396.151 311.194 395.457 310.934 394.676L319.709 389.635C319.884 390.233 319.966 390.769 319.966 391.293L319.965 439.979C319.965 440.901 319.495 441.744 318.706 442.233L318.585 442.31L311.117 446.687Z" fill="url(#paint29_linear_29_2056)"/>
<path d="M319.448 390.25C319.524 390.615 319.562 390.957 319.562 391.292L319.561 439.978C319.561 440.772 319.172 441.469 318.493 441.89L318.408 441.944L318.399 441.948L318.398 441.949L311.702 445.875C311.713 445.76 311.718 445.643 311.718 445.525L311.718 396.838C311.718 396.21 311.619 395.56 311.415 394.864L319.448 390.25ZM319.94 389.036L310.441 394.493C310.716 395.239 310.91 396.018 310.91 396.839L310.909 445.526C310.909 446.691 310.284 447.639 309.404 448.16L318.808 442.645C318.825 442.637 318.84 442.628 318.856 442.618L318.92 442.581V442.575C319.77 442.048 320.37 441.119 320.37 439.979L320.37 391.293C320.371 390.506 320.193 389.756 319.94 389.036ZM309.405 448.159L309.383 448.172C309.39 448.168 309.397 448.164 309.405 448.159Z" fill="#FDFEFE"/>
<path d="M299.869 407.953C298.767 402.016 294.048 395.354 288.228 392.168C283.665 389.672 279.733 390.031 277.845 392.763C272.935 390.708 269.3 392.692 269.351 397.629C269.403 402.832 273.687 409.316 278.875 412.156L299.24 423.299C303.644 425.709 307.105 424.151 307.105 419.758C307.105 415.679 303.801 410.419 299.869 407.953ZM291.374 408.546V413.498C291.374 413.935 291.019 414.094 290.581 413.855L285.872 411.278C285.435 411.039 285.081 410.491 285.081 410.054V405.102C285.081 404.807 284.841 404.437 284.545 404.275L282.274 403.032C281.568 402.646 281.214 401.601 281.713 401.377L287.666 398.697C287.976 398.557 288.478 398.832 288.786 399.31L294.74 408.505C295.239 409.276 294.885 409.933 294.179 409.547L291.907 408.304C291.613 408.143 291.374 408.252 291.374 408.546Z" fill="white"/>
<path d="M207.321 213.24L265.904 246.979C269.418 249.003 271.582 252.742 271.582 256.789V349.446C271.582 353.161 267.551 355.483 264.326 353.625L203.578 318.64C199.433 316.253 196.88 311.841 196.88 307.067V219.252C196.88 213.908 202.68 210.567 207.321 213.24Z" fill="#CDE9F9"/>
<path d="M203.624 215.151L262.207 248.89C265.721 250.914 267.885 254.653 267.885 258.7V351.357C267.885 355.072 263.854 357.394 260.628 355.536L199.881 320.551C195.736 318.164 193.183 313.752 193.183 308.978V221.163C193.183 215.819 198.983 212.478 203.624 215.151Z" fill="#17A1DB"/>
<path d="M203.624 215.151L262.207 248.89C265.721 250.914 267.885 254.653 267.885 258.7V351.357C267.885 355.072 263.854 357.394 260.628 355.536L199.881 320.551C195.736 318.164 193.183 313.752 193.183 308.978V221.163C193.183 215.819 198.983 212.478 203.624 215.151Z" fill="url(#paint30_linear_29_2056)"/>
<path d="M203.624 215.151L262.207 248.89C265.721 250.914 267.885 254.653 267.885 258.7V351.357C267.885 355.072 263.854 357.394 260.628 355.536L199.881 320.551C195.736 318.164 193.183 313.752 193.183 308.978V221.163C193.183 215.819 198.983 212.478 203.624 215.151Z" fill="url(#paint31_linear_29_2056)"/>
<path d="M201.595 224.699V226.317L208.407 230.236V228.618L201.595 224.699Z" fill="#CDE9F9"/>
<path d="M201.595 227.654V229.272L208.407 233.19V231.573L201.595 227.654Z" fill="#CDE9F9"/>
<path d="M201.595 230.608V232.226L208.407 236.145V234.528L201.595 230.608Z" fill="#CDE9F9"/>
<path d="M253.003 264.757V263.139L210.962 238.952V240.57L253.003 264.757Z" fill="#CDE9F9"/>
<path d="M201.595 233.563V235.18L208.407 239.1V237.482L201.595 233.563Z" fill="#CDE9F9"/>
<path d="M201.595 236.518V238.135L208.407 242.054V240.437L201.595 236.518Z" fill="#CDE9F9"/>
<path d="M253.003 267.712V266.094L210.962 241.907V243.525L253.003 267.712Z" fill="#CDE9F9"/>
<path d="M201.595 245.381V246.999L208.407 250.918V249.3L201.595 245.381Z" fill="#CDE9F9"/>
<path d="M201.595 248.336V249.954L208.407 253.873V252.255L201.595 248.336Z" fill="#CDE9F9"/>
<path d="M201.595 260.155V261.772L208.407 265.691V264.074L201.595 260.155Z" fill="#CDE9F9"/>
<path d="M201.595 263.11V264.727L208.407 268.646V267.028L201.595 263.11Z" fill="#CDE9F9"/>
<path d="M237.485 283.758L210.962 268.499V270.116L237.485 285.375V283.758Z" fill="#CDE9F9"/>
<path d="M238.883 284.561V286.179L253.003 294.303V292.685L238.883 284.561Z" fill="#CDE9F9"/>
<path d="M224.287 273.21L210.962 265.544V267.162L224.287 274.828V273.21Z" fill="#CDE9F9"/>
<path d="M225.686 274.014V275.632L253.003 291.348V289.73L225.686 274.014Z" fill="#CDE9F9"/>
<path d="M249.409 278.799V280.417L253.003 282.484V280.867L249.409 278.799Z" fill="#CDE9F9"/>
<path d="M229.852 264.594L210.962 253.726V255.343L229.852 266.211V264.594Z" fill="#CDE9F9"/>
<path d="M222.112 236.503L210.962 230.089V231.706L222.112 238.121V236.503Z" fill="#CDE9F9"/>
<path d="M240.389 247.018L223.51 237.308V238.925L240.389 248.636V247.018Z" fill="#CDE9F9"/>
<path d="M230.552 244.313L218.668 237.476V239.094L230.552 245.931V244.313Z" fill="#CDE9F9"/>
<path d="M243.019 251.487L231.949 245.118V246.735L243.019 253.104V251.487Z" fill="#CDE9F9"/>
<path d="M244.418 252.291V253.909L253.003 258.847V257.23L244.418 252.291Z" fill="#CDE9F9"/>
<path d="M213.158 237.262V238.879L222.112 244.03V242.413L213.158 237.262Z" fill="#CDE9F9"/>
<path d="M249.5 258.17L223.51 243.217V244.835L249.5 259.787V258.17Z" fill="#CDE9F9"/>
<path d="M234.62 258.473L217.636 248.701V250.318L234.62 260.09V258.473Z" fill="#CDE9F9"/>
<path d="M249.5 267.033L236.019 259.277V260.895L249.5 268.651V267.033Z" fill="#CDE9F9"/>
<path d="M248.012 275.04L231.251 265.398V267.016L248.012 276.658V275.04Z" fill="#CDE9F9"/>
<path d="M238.883 272.743V274.361L248.012 279.612V277.995L238.883 272.743Z" fill="#CDE9F9"/>
<path d="M214.25 258.571L210.962 256.68V258.298L214.25 260.189V258.571Z" fill="#CDE9F9"/>
<path d="M220.408 262.114V263.732L237.484 273.557V271.939L220.408 262.114Z" fill="#CDE9F9"/>
<path d="M219.009 261.31L215.647 259.376V260.993L219.009 262.927V261.31Z" fill="#CDE9F9"/>
<path d="M234.326 273.076L215.647 262.33V263.948L234.326 274.693V273.076Z" fill="#CDE9F9"/>
<path d="M201.595 272.192V273.809L208.407 277.728V276.111L201.595 272.192Z" fill="#CDE9F9"/>
<path d="M201.595 275.146V276.763L208.407 280.683V279.065L201.595 275.146Z" fill="#CDE9F9"/>
<path d="M201.595 278.101V279.718L208.407 283.637V282.02L201.595 278.101Z" fill="#CDE9F9"/>
<path d="M253.003 312.249V310.631L210.962 286.445V288.062L253.003 312.249Z" fill="#CDE9F9"/>
<path d="M201.595 281.056V282.673L208.407 286.592V284.974L201.595 281.056Z" fill="#CDE9F9"/>
<path d="M201.595 284.01V285.628L208.407 289.547V287.929L201.595 284.01Z" fill="#CDE9F9"/>
<path d="M253.003 315.203V313.586L210.962 289.4V291.017L253.003 315.203Z" fill="#CDE9F9"/>
<path d="M201.595 292.874V294.491L208.407 298.41V296.793L201.595 292.874Z" fill="#CDE9F9"/>
<path d="M201.595 295.828V297.446L208.407 301.365V299.748L201.595 295.828Z" fill="#CDE9F9"/>
<path d="M201.595 307.647V309.264L208.407 313.184V311.565L201.595 307.647Z" fill="#CDE9F9"/>
<path d="M201.595 310.601V312.219L208.407 316.138V314.52L201.595 310.601Z" fill="#CDE9F9"/>
<path d="M237.485 331.25L210.962 315.991V317.608L237.485 332.867V331.25Z" fill="#CDE9F9"/>
<path d="M238.883 332.054V333.671L253.003 341.795V340.178L238.883 332.054Z" fill="#CDE9F9"/>
<path d="M224.287 320.702L210.962 313.036V314.653L224.287 322.32V320.702Z" fill="#CDE9F9"/>
<path d="M225.686 321.507V323.124L253.003 338.84V337.223L225.686 321.507Z" fill="#CDE9F9"/>
<path d="M249.409 326.292V327.909L253.003 329.977V328.359L249.409 326.292Z" fill="#CDE9F9"/>
<path d="M229.852 312.086L210.962 301.218V302.835L229.852 313.703V312.086Z" fill="#CDE9F9"/>
<path d="M222.112 283.996L210.962 277.581V279.199L222.112 285.613V283.996Z" fill="#CDE9F9"/>
<path d="M240.389 294.511L223.51 284.8V286.417L240.389 296.128V294.511Z" fill="#CDE9F9"/>
<path d="M230.552 291.806L218.668 284.969V286.586L230.552 293.423V291.806Z" fill="#CDE9F9"/>
<path d="M243.019 298.979L231.949 292.609V294.228L243.019 300.596V298.979Z" fill="#CDE9F9"/>
<path d="M244.418 299.783V301.4L253.003 306.34V304.722L244.418 299.783Z" fill="#CDE9F9"/>
<path d="M213.158 284.753V286.371L222.112 291.522V289.905L213.158 284.753Z" fill="#CDE9F9"/>
<path d="M249.5 305.662L223.51 290.709V292.326L249.5 307.279V305.662Z" fill="#CDE9F9"/>
<path d="M234.62 305.965L217.636 296.193V297.81L234.62 307.582V305.965Z" fill="#CDE9F9"/>
<path d="M249.5 314.526L236.019 306.769V308.386L249.5 316.143V314.526Z" fill="#CDE9F9"/>
<path d="M248.012 322.533L231.251 312.89V314.507L248.012 324.15V322.533Z" fill="#CDE9F9"/>
<path d="M238.883 320.235V321.853L248.012 327.105V325.488L238.883 320.235Z" fill="#CDE9F9"/>
<path d="M214.25 306.064L210.962 304.172V305.79L214.25 307.681V306.064Z" fill="#CDE9F9"/>
<path d="M220.408 309.606V311.224L237.484 321.048V319.431L220.408 309.606Z" fill="#CDE9F9"/>
<path d="M219.009 308.802L215.647 306.868V308.485L219.009 310.42V308.802Z" fill="#CDE9F9"/>
<path d="M234.326 320.568L215.647 309.822V311.44L234.326 322.185V320.568Z" fill="#CDE9F9"/>
<path d="M173.168 246.408V266.144C173.168 266.144 172.504 271.434 166.476 273.106C165.445 273.403 164.186 273.699 162.798 273.916H162.768V281.55C162.768 281.55 157.434 283.004 153.558 280.423C150.475 278.366 150.049 276.102 150.743 272.493C147.551 270.802 144.844 267.677 143.575 262.229C140.214 247.722 167.358 206.439 173.168 246.408Z" fill="#FDE0D9"/>
<path d="M147.381 276.079C147.381 276.079 129.566 271.861 121.455 296.414C121.455 296.414 112.837 314.375 115.218 322.046C117.6 329.718 131.092 329.727 131.092 329.727L147.381 276.079Z" fill="white"/>
<path d="M147.381 276.082L131.093 329.727C131.093 329.727 129.526 329.727 127.365 329.42C125.382 329.143 122.904 328.6 120.674 327.581C118.206 326.443 116.044 324.703 115.221 322.043C112.842 314.37 121.457 296.413 121.457 296.413C129.566 271.86 147.381 276.082 147.381 276.082Z" fill="white"/>
<path d="M127.366 329.42C125.383 329.143 122.905 328.6 120.674 327.581C118.247 324.828 120.17 318.693 120.674 316.667C122.43 309.621 124.511 289.086 134.355 281.956C142.93 275.736 130.647 318.414 127.366 329.42Z" fill="url(#paint32_linear_29_2056)"/>
<path d="M122.553 351.471C122.553 351.471 120.775 373.706 124.463 391.469C128.151 409.232 131.596 438.22 131.596 438.22C131.596 438.22 132.458 441.017 131.596 445.313C130.735 449.608 127.052 470.226 127.052 470.226C127.052 470.226 129.012 475.861 135.042 475.621C141.071 475.381 143.655 471.515 143.655 471.515C143.655 471.515 152.743 434.763 151.837 428.87C150.931 422.977 148.342 391.191 149.013 386.681C149.683 382.17 129.738 352.986 122.553 351.471Z" fill="#222457"/>
<path d="M169.548 483.568C169.548 483.568 179.818 475.563 185.161 478.748C191.629 482.604 191.294 484.666 184.49 489.786C178.038 494.642 144.44 501.481 169.548 483.568Z" fill="#222457"/>
<path d="M185.163 450.898C181.585 466.343 177.213 487.297 177.213 487.297C177.213 487.297 173.564 496.235 166.912 494.317C164.573 493.644 163.056 493.21 162.074 492.933C160.251 492.409 160.251 492.409 160.251 492.409C160.251 492.409 162.174 447.447 164.325 438.221C164.325 438.221 147.104 397.847 143.228 383.677C140.948 375.352 137.964 368.044 135.882 363.426V363.416C134.415 360.173 133.403 358.265 133.403 358.265L176.916 363.416L186.047 423.626C186.046 423.626 188.732 435.452 185.163 450.898Z" fill="#2A2F6D"/>
<path d="M228.77 270.54C228.588 269.377 228.82 267.629 229.348 266.797C229.875 265.964 229.852 265.22 228.25 265.878C227.267 266.281 225.999 267.641 225.165 268.631C224.841 268.868 224.52 269.115 224.223 269.356C223.297 270.108 222.585 270.787 222.585 270.787C222.658 268.843 221.47 267.405 221.136 269.185C220.801 270.966 219.934 270.487 219.133 271.358C218.333 272.228 220.311 278.452 220.311 278.452C220.311 278.452 223.806 281.475 226.012 282.13C228.219 282.785 230.452 278.805 230.531 276.762C230.599 274.999 229.452 272.243 228.77 270.54Z" fill="#FDE0D9"/>
<path d="M167.774 442.305C167.279 444.727 163.779 477.072 162.074 492.933C160.25 492.409 160.25 492.409 160.25 492.409C160.25 492.409 162.173 447.447 164.324 438.221C164.324 438.221 147.104 397.847 143.227 383.677C140.947 375.352 137.963 368.044 135.881 363.426V363.416L151.902 370.466C151.902 370.466 160.309 415.063 165.335 426.424C170.353 437.796 168.419 439.081 167.774 442.305Z" fill="url(#paint33_linear_29_2056)"/>
<path d="M226.999 284.468C226.999 284.468 222.42 310.553 216.332 319.107C211.276 326.217 203.295 326.019 203.295 326.019C196.336 325.88 180.533 316.684 179.234 315.913C179.174 315.883 179.145 315.864 179.145 315.864V325.95L179.075 367.273C179.075 367.273 179.125 368.074 178.798 369.191C178.183 371.406 176.132 374.877 169.409 375.965C168.359 376.143 167.188 376.252 165.9 376.291C164.79 376.331 163.59 376.312 162.282 376.232C159.476 376.054 156.542 375.579 153.597 374.887C151.506 374.393 149.404 373.78 147.332 373.087C134.127 368.697 122.051 360.915 120.773 356.94C119.762 353.835 122.894 326.098 126.83 302.9C127.692 297.828 128.595 292.982 129.487 288.651C129.497 288.631 129.497 288.621 129.497 288.621C131.252 280.127 136.377 277.428 138.201 276.725C138.608 276.567 138.855 276.508 138.855 276.508C138.855 276.508 140.699 274.302 147.47 274.905C164.601 276.438 177.212 283.37 182.308 290.104C182.308 290.104 197.486 301.841 203.623 304.748C208.698 307.151 215.321 286.01 217.452 278.633C217.938 276.962 219.752 276.072 221.378 276.705C222.488 277.14 223.787 277.901 225.096 279.217C225.82 279.939 226.325 280.592 226.672 281.165C226.691 281.205 226.712 281.235 226.732 281.274C227.991 283.419 226.999 284.468 226.999 284.468Z" fill="white"/>
<path d="M163.895 249.132C163.895 249.132 171.421 250.217 178.747 243.279C186.074 236.343 177.14 222.567 169.549 221.078L171.31 225.554C171.31 225.554 164.758 221.798 160.236 223.164L164.542 225.923C164.542 225.923 155.714 224.152 151.407 226.596L154.207 228.26C154.207 228.26 141.575 230.541 140.7 235.951C139.825 241.36 140.7 241.864 140.7 241.864C140.7 241.864 135.689 242.709 134.612 248.223C133.536 253.738 135.544 265.694 145.378 269.461L149.7 271.87C149.7 271.87 152.054 273.85 154.638 269.915C157.222 265.98 156.936 264.262 156.936 264.262C156.936 264.262 153.121 259.277 153.992 255.842C154.863 252.408 159.59 253.26 160.237 257.795C160.235 257.796 160.235 250.325 163.895 249.132Z" fill="#2A2F6D"/>
<path d="M179.235 315.912C179.175 315.883 179.146 315.863 179.146 315.863V325.949L179.076 367.272C179.076 367.272 179.126 368.073 178.799 369.19C178.184 371.405 176.133 374.876 169.41 375.964C168.36 376.142 167.189 376.251 165.901 376.291C165.594 371.969 165.257 363.644 165.346 348.564C165.514 322.627 170.838 300.071 170.838 300.071C171.215 305.925 175.636 311.937 179.235 315.912Z" fill="url(#paint34_linear_29_2056)"/>
<path d="M227 284.468C227 284.468 222.42 310.553 216.333 319.107C211.276 326.217 203.296 326.019 203.296 326.019C196.336 325.88 180.533 316.684 179.235 315.913C179.175 315.883 179.146 315.864 179.146 315.864V316.052C174.248 310.168 171.351 306.782 171.281 302.767C171.281 302.767 189.406 317.961 205.645 314.895C218.791 312.423 224.888 289.788 226.732 281.275C227.992 283.419 227 284.468 227 284.468Z" fill="url(#paint35_linear_29_2056)"/>
<path opacity="0.3" d="M147.332 373.086C134.127 368.696 122.051 360.914 120.773 356.939C119.762 353.834 122.894 326.097 126.83 302.899C127.692 297.827 128.595 292.981 129.487 288.65C129.497 288.63 129.497 288.62 129.497 288.62C129.497 288.62 134.503 316.663 134.355 344.717C134.275 358.817 140.809 367.727 147.332 373.086Z" fill="url(#paint36_linear_29_2056)"/>
<path d="M162.798 273.916H162.768V277.279C160.696 275.885 159.18 271.712 158.971 271.109C159.655 272.671 161.271 273.491 162.798 273.916Z" fill="#ECBFB9"/>
<path d="M136.667 465.927C136.667 465.927 145.616 458.952 150.272 461.728C155.909 465.088 155.616 466.885 149.688 471.347C144.065 475.577 114.788 481.536 136.667 465.927Z" fill="#222457"/>
<defs>
<linearGradient id="paint0_linear_29_2056" x1="0.778" y1="224.988" x2="156.228" y2="224.988" gradientUnits="userSpaceOnUse">
<stop offset="0.0607" stop-color="#28A8E0"/>
<stop offset="0.9984" stop-color="#29ABE2" stop-opacity="0"/>
</linearGradient>
<linearGradient id="paint1_linear_29_2056" x1="173.286" y1="158.5" x2="328.736" y2="158.5" gradientUnits="userSpaceOnUse">
<stop offset="0.0607" stop-color="#28A8E0"/>
<stop offset="0.9984" stop-color="#29ABE2" stop-opacity="0"/>
</linearGradient>
<linearGradient id="paint2_linear_29_2056" x1="186.336" y1="71.5696" x2="341.786" y2="71.5696" gradientUnits="userSpaceOnUse">
<stop offset="0.0607" stop-color="#28A8E0"/>
<stop offset="0.9984" stop-color="#29ABE2" stop-opacity="0"/>
</linearGradient>
<linearGradient id="paint3_linear_29_2056" x1="151.952" y1="341.791" x2="5.51009" y2="341.791" gradientUnits="userSpaceOnUse">
<stop offset="0.0607" stop-color="#28A8E0"/>
<stop offset="0.9984" stop-color="#29ABE2" stop-opacity="0"/>
</linearGradient>
<linearGradient id="paint4_linear_29_2056" x1="42.1602" y1="429.568" x2="676.618" y2="429.568" gradientUnits="userSpaceOnUse">
<stop offset="0.1107" stop-color="white"/>
<stop offset="0.652" stop-color="#CDE9F9"/>
<stop offset="1" stop-color="#CDE9F9"/>
</linearGradient>
<linearGradient id="paint5_linear_29_2056" x1="274.606" y1="397.947" x2="565.986" y2="397.947" gradientUnits="userSpaceOnUse">
<stop offset="0.0607" stop-color="#28A8E0"/>
<stop offset="0.9984" stop-color="#29ABE2" stop-opacity="0"/>
</linearGradient>
<linearGradient id="paint6_linear_29_2056" x1="274.606" y1="346.608" x2="565.986" y2="346.608" gradientUnits="userSpaceOnUse">
<stop offset="0.0607" stop-color="#28A8E0"/>
<stop offset="0.9984" stop-color="#29ABE2" stop-opacity="0"/>
</linearGradient>
<linearGradient id="paint7_linear_29_2056" x1="343.231" y1="340.76" x2="494.126" y2="340.76" gradientUnits="userSpaceOnUse">
<stop stop-color="#BD8AAE"/>
<stop offset="1" stop-color="#2484C6" stop-opacity="0"/>
</linearGradient>
<linearGradient id="paint8_linear_29_2056" x1="364.258" y1="340.76" x2="473.099" y2="340.76" gradientUnits="userSpaceOnUse">
<stop offset="0.0607" stop-color="#28A8E0"/>
<stop offset="0.9984" stop-color="#29ABE2" stop-opacity="0"/>
</linearGradient>
<linearGradient id="paint9_linear_29_2056" x1="416.224" y1="375.055" x2="421.135" y2="375.055" gradientUnits="userSpaceOnUse">
<stop offset="0.0607" stop-color="#28A8E0"/>
<stop offset="0.9984" stop-color="#29ABE2" stop-opacity="0"/>
</linearGradient>
<linearGradient id="paint10_linear_29_2056" x1="294.858" y1="318.52" x2="299.769" y2="318.52" gradientUnits="userSpaceOnUse">
<stop offset="0.0607" stop-color="#28A8E0"/>
<stop offset="0.9984" stop-color="#29ABE2" stop-opacity="0"/>
</linearGradient>
<linearGradient id="paint11_linear_29_2056" x1="538.779" y1="312.951" x2="543.69" y2="312.951" gradientUnits="userSpaceOnUse">
<stop offset="0.0607" stop-color="#28A8E0"/>
<stop offset="0.9984" stop-color="#29ABE2" stop-opacity="0"/>
</linearGradient>
<linearGradient id="paint12_linear_29_2056" x1="289.304" y1="238.57" x2="551.941" y2="238.57" gradientUnits="userSpaceOnUse">
<stop offset="0.4247" stop-color="white"/>
<stop offset="1" stop-color="#2484C6" stop-opacity="0"/>
</linearGradient>
<linearGradient id="paint13_linear_29_2056" x1="289.304" y1="238.57" x2="551.942" y2="238.57" gradientUnits="userSpaceOnUse">
<stop stop-color="#29ABE2" stop-opacity="0"/>
<stop offset="1" stop-color="#28A8E0"/>
</linearGradient>
<linearGradient id="paint14_linear_29_2056" x1="487.603" y1="404.877" x2="487.603" y2="203.627" gradientUnits="userSpaceOnUse">
<stop stop-color="#29ABE2" stop-opacity="0"/>
<stop offset="1" stop-color="#3C7FBE"/>
</linearGradient>
<linearGradient id="paint15_linear_29_2056" x1="511.671" y1="368.033" x2="511.671" y2="74.5795" gradientUnits="userSpaceOnUse">
<stop stop-color="#21409A"/>
<stop offset="0.9984" stop-color="#BD8AAE"/>
</linearGradient>
<linearGradient id="paint16_linear_29_2056" x1="294.796" y1="52.0304" x2="545.798" y2="52.0304" gradientUnits="userSpaceOnUse">
<stop stop-color="#21409A"/>
<stop offset="0.9984" stop-color="#BD8AAE"/>
</linearGradient>
<linearGradient id="paint17_linear_29_2056" x1="339.752" y1="48.1605" x2="500.84" y2="48.1605" gradientUnits="userSpaceOnUse">
<stop stop-color="#21409A"/>
<stop offset="0.9984" stop-color="#29ABE2" stop-opacity="0"/>
</linearGradient>
<linearGradient id="paint18_linear_29_2056" x1="388.019" y1="35.5832" x2="452.573" y2="35.5832" gradientUnits="userSpaceOnUse">
<stop offset="0.0607" stop-color="#28A8E0"/>
<stop offset="0.9984" stop-color="#29ABE2" stop-opacity="0"/>
</linearGradient>
<linearGradient id="paint19_linear_29_2056" x1="338.901" y1="229.57" x2="495.019" y2="229.57" gradientUnits="userSpaceOnUse">
<stop stop-color="#21409A"/>
<stop offset="0.9984" stop-color="#29ABE2" stop-opacity="0"/>
</linearGradient>
<linearGradient id="paint20_linear_29_2056" x1="378.628" y1="261.484" x2="455.127" y2="261.484" gradientUnits="userSpaceOnUse">
<stop stop-color="#21409A"/>
<stop offset="0.9984" stop-color="#29ABE2" stop-opacity="0"/>
</linearGradient>
<linearGradient id="paint21_linear_29_2056" x1="173.834" y1="409.447" x2="313.44" y2="409.447" gradientUnits="userSpaceOnUse">
<stop offset="0.0607" stop-color="#28A8E0"/>
<stop offset="0.9984" stop-color="#29ABE2" stop-opacity="0"/>
</linearGradient>
<linearGradient id="paint22_linear_29_2056" x1="289.026" y1="486.59" x2="347.67" y2="384.753" gradientUnits="userSpaceOnUse">
<stop offset="0.0814" stop-color="#64CDF6"/>
<stop offset="1" stop-color="white" stop-opacity="0"/>
</linearGradient>
<linearGradient id="paint23_linear_29_2056" x1="229.291" y1="502.016" x2="347.61" y2="502.016" gradientUnits="userSpaceOnUse">
<stop offset="0.1107" stop-color="white"/>
<stop offset="0.4" stop-color="#CDE9F9"/>
<stop offset="0.9094" stop-color="#17A1DB"/>
</linearGradient>
<linearGradient id="paint24_linear_29_2056" x1="241.782" y1="432.96" x2="335.534" y2="432.96" gradientUnits="userSpaceOnUse">
<stop offset="0.1107" stop-color="white"/>
<stop offset="0.4" stop-color="#CDE9F9"/>
<stop offset="0.9094" stop-color="#17A1DB"/>
</linearGradient>
<linearGradient id="paint25_linear_29_2056" x1="241.782" y1="432.96" x2="335.534" y2="432.96" gradientUnits="userSpaceOnUse">
<stop stop-color="#21409A"/>
<stop offset="0.9984" stop-color="#BD8AAE"/>
</linearGradient>
<linearGradient id="paint26_linear_29_2056" x1="264.102" y1="404.812" x2="319.966" y2="404.812" gradientUnits="userSpaceOnUse">
<stop offset="0.0607" stop-color="#28A8E0"/>
<stop offset="0.9984" stop-color="#29ABE2" stop-opacity="0"/>
</linearGradient>
<linearGradient id="paint27_linear_29_2056" x1="262.419" y1="407.752" x2="310.506" y2="407.752" gradientUnits="userSpaceOnUse">
<stop offset="0.0607" stop-color="#28A8E0"/>
<stop offset="0.9984" stop-color="#29ABE2" stop-opacity="0"/>
</linearGradient>
<linearGradient id="paint28_linear_29_2056" x1="309.297" y1="448.202" x2="309.36" y2="448.202" gradientUnits="userSpaceOnUse">
<stop offset="0.0607" stop-color="#28A8E0"/>
<stop offset="0.9984" stop-color="#29ABE2" stop-opacity="0"/>
</linearGradient>
<linearGradient id="paint29_linear_29_2056" x1="310.934" y1="418.161" x2="319.967" y2="418.161" gradientUnits="userSpaceOnUse">
<stop offset="0.0607" stop-color="#28A8E0"/>
<stop offset="0.9984" stop-color="#29ABE2" stop-opacity="0"/>
</linearGradient>
<linearGradient id="paint30_linear_29_2056" x1="193.182" y1="285.2" x2="267.885" y2="285.2" gradientUnits="userSpaceOnUse">
<stop offset="0.0607" stop-color="#28A8E0"/>
<stop offset="0.9984" stop-color="#29ABE2" stop-opacity="0"/>
</linearGradient>
<linearGradient id="paint31_linear_29_2056" x1="193.182" y1="285.2" x2="267.885" y2="285.2" gradientUnits="userSpaceOnUse">
<stop stop-color="#21409A"/>
<stop offset="0.9984" stop-color="#BD8AAE"/>
</linearGradient>
<linearGradient id="paint32_linear_29_2056" x1="119.474" y1="305.38" x2="137.342" y2="305.38" gradientUnits="userSpaceOnUse">
<stop offset="0.0016" stop-color="#D2D2D1"/>
<stop offset="1" stop-color="white"/>
</linearGradient>
<linearGradient id="paint33_linear_29_2056" x1="152.282" y1="492.933" x2="152.282" y2="363.416" gradientUnits="userSpaceOnUse">
<stop stop-color="#306097"/>
<stop offset="1" stop-color="#2484C6" stop-opacity="0"/>
</linearGradient>
<linearGradient id="paint34_linear_29_2056" x1="150.5" y1="320.357" x2="189.744" y2="359.703" gradientUnits="userSpaceOnUse">
<stop offset="0.0016" stop-color="#D2D2D1"/>
<stop offset="1" stop-color="white"/>
</linearGradient>
<linearGradient id="paint35_linear_29_2056" x1="171.282" y1="303.646" x2="227.371" y2="303.646" gradientUnits="userSpaceOnUse">
<stop offset="0.0016" stop-color="#D2D2D1"/>
<stop offset="1" stop-color="white"/>
</linearGradient>
<linearGradient id="paint36_linear_29_2056" x1="120.581" y1="330.854" x2="147.332" y2="330.854" gradientUnits="userSpaceOnUse">
<stop offset="0.0016" stop-color="#D2D2D1"/>
<stop offset="1" stop-color="white"/>
</linearGradient>
</defs>
</svg>
