<svg width="960" height="818" viewBox="0 0 960 818" fill="none" xmlns="http://www.w3.org/2000/svg">
<g clip-path="url(#clip0_24_24692)">
<g opacity="0.46">
<path opacity="0.46" d="M300.176 212.445L90.2396 333.333C82.2826 337.915 72.3486 332.172 72.3486 322.99V258.008C72.3486 253.739 74.6286 249.795 78.3276 247.665L288.264 126.777C296.221 122.195 306.155 127.938 306.155 137.12V202.102C306.156 206.371 303.876 210.315 300.176 212.445Z" fill="#E1F3FC"/>
<path opacity="0.46" d="M228.069 369.932L18.1332 490.82C10.1762 495.402 0.242188 489.66 0.242188 480.477V415.495C0.242188 411.226 2.52219 407.282 6.22119 405.152L216.157 284.264C224.114 279.682 234.048 285.425 234.048 294.607V359.589C234.048 363.858 231.768 367.802 228.069 369.932Z" fill="#E1F3FC"/>
<path opacity="0.46" d="M376.935 398.44L166.999 519.327C159.042 523.909 149.108 518.167 149.108 508.984V444.003C149.108 439.734 151.388 435.789 155.087 433.659L365.023 312.771C372.98 308.189 382.914 313.932 382.914 323.114V388.096C382.914 392.366 380.634 396.309 376.935 398.44Z" fill="#E1F3FC"/>
<path opacity="0.46" d="M295.676 630.046C358.069 629.964 408.624 611.247 408.594 588.24C408.564 565.232 357.96 546.646 295.568 546.728C233.175 546.809 182.62 565.526 182.65 588.533C182.68 611.541 233.283 630.127 295.676 630.046Z" fill="#E1F3FC"/>
<path opacity="0.46" d="M652.964 806.724C715.357 806.643 765.912 787.926 765.882 764.918C765.852 741.91 715.249 723.325 652.856 723.406C590.463 723.487 539.908 742.204 539.938 765.212C539.968 788.219 590.571 806.805 652.964 806.724Z" fill="#E1F3FC"/>
</g>
<path d="M935.153 198.245L336.817 105.555C328.357 104.245 320.217 105.941 313.38 109.778C312.748 110.133 312.128 110.508 311.519 110.899L282.876 128.157L296.55 130.077C295.337 133.709 294.67 137.603 294.67 141.675V427.879C294.67 445.527 307.279 460.655 324.639 463.833L922.665 573.319L921.56 584.85L946.33 569.901C957.953 563.875 966.108 551.75 966.108 537.422V234.365C966.109 216.339 952.967 201.005 935.153 198.245Z" fill="url(#paint0_linear_24_24692)"/>
<path d="M900.974 588.435C898.911 588.435 896.822 588.244 894.766 587.868L296.43 478.325C280.253 475.363 268.511 461.277 268.511 444.831V158.626C268.511 139.846 283.754 124.566 302.489 124.566C304.243 124.566 306.022 124.704 307.775 124.976L906.111 217.666C922.821 220.254 934.95 234.406 934.95 251.315V554.372C934.949 573.155 919.708 588.435 900.974 588.435Z" fill="#CCE8F8"/>
<path d="M302.493 127.067C304.117 127.067 305.765 127.195 307.392 127.447L905.728 220.137C913.165 221.289 919.958 225.071 924.855 230.785C929.752 236.499 932.449 243.791 932.449 251.316V554.373C932.449 571.776 918.329 585.935 900.974 585.935C899.061 585.935 897.124 585.758 895.216 585.409L296.88 475.866C281.89 473.122 271.011 460.07 271.011 444.831V158.626C271.011 141.226 285.132 127.069 302.491 127.067H302.493ZM302.489 122.067C282.708 122.069 266.011 138.142 266.011 158.626V444.831C266.011 462.479 278.62 477.606 295.98 480.784L894.316 590.326C896.56 590.737 898.785 590.934 900.975 590.934C920.692 590.934 937.45 574.913 937.45 554.372V251.316C937.45 233.29 924.308 217.955 906.494 215.196L308.158 122.506C306.247 122.21 304.356 122.067 302.489 122.067Z" fill="white"/>
<path d="M847.429 343.78V473.74L715.429 449.42C706.509 447.77 700.039 440 700.039 430.93V305.12L831.469 325.2C840.649 326.61 847.429 334.5 847.429 343.78Z" fill="#3B7EBD"/>
<path d="M847.429 343.779V485.559C847.429 497.309 836.779 506.169 825.219 504.049L682.679 477.779C673.759 476.139 667.289 468.37 667.289 459.299V321.999C667.289 310.489 677.539 301.679 688.919 303.419L700.039 305.119L831.469 325.199C840.649 326.609 847.429 334.499 847.429 343.779Z" fill="url(#paint1_linear_24_24692)"/>
<path d="M812.922 396.507L810.851 384.76C810.138 380.718 806.284 377.442 802.243 377.442L799.43 378.41C796.37 378.41 795.103 375.528 793.511 372.667C792.993 371.736 792.45 370.819 791.884 369.915C790.132 367.118 790.111 363.84 791.897 361.671L792.499 360.94C794.853 358.082 794.036 353.449 790.674 350.591L780.902 342.283C777.54 339.425 772.907 339.425 770.553 342.283L769.951 343.014C768.165 345.184 764.985 345.741 761.965 344.482C760.99 344.075 760.005 343.693 759.012 343.339C755.96 342.251 753.568 339.541 753.029 336.481L752.847 335.45C752.134 331.408 748.28 328.132 744.239 328.132H732.49C728.448 328.132 725.75 331.408 726.463 335.45L726.645 336.481C727.184 339.541 725.748 342.25 723.081 343.339C722.213 343.693 721.363 344.075 720.531 344.482C717.956 345.741 714.58 345.184 712.028 343.016L711.168 342.285C707.806 339.427 703.173 339.427 700.819 342.285L697.398 346.439L693.977 350.593C691.623 353.451 692.44 358.084 695.802 360.942L696.662 361.673C699.213 363.841 700.348 367.119 699.582 369.917C699.335 370.82 699.116 371.737 698.926 372.668C698.342 375.528 695.969 377.443 692.909 377.443H691.878C687.836 377.443 685.138 380.719 685.85 384.761L687.921 396.508C688.634 400.55 692.488 403.826 696.529 403.826H697.56C700.62 403.826 703.668 405.74 705.261 408.6C705.779 409.531 706.322 410.449 706.888 411.352C708.64 414.149 708.661 417.427 706.875 419.596L706.273 420.327C703.919 423.186 704.736 427.818 708.098 430.676L712.984 434.83L717.87 438.984C721.232 441.842 725.865 441.842 728.219 438.984L728.821 438.253C730.608 436.084 733.787 435.528 736.806 436.786C737.781 437.192 738.765 437.574 739.758 437.927C742.81 439.015 745.202 441.727 745.742 444.786L745.924 445.818C746.637 449.86 750.491 453.136 754.532 453.136H766.281C770.323 453.136 773.021 449.86 772.308 445.818L772.126 444.786C771.586 441.727 773.023 439.015 775.691 437.927C776.559 437.574 777.41 437.192 778.241 436.785C780.816 435.526 784.192 436.083 786.744 438.252L787.603 438.983C790.965 441.841 795.598 441.841 797.952 438.983L804.794 430.676C807.148 427.818 806.331 423.186 802.969 420.327L802.109 419.596C799.558 417.427 798.423 414.149 799.189 411.352C799.436 410.448 799.655 409.531 799.845 408.6C800.429 405.74 802.802 403.826 805.862 403.826H806.893C810.936 403.826 813.635 400.549 812.922 396.507ZM773.949 395.655C773.843 398.613 773.159 401.373 771.99 403.826C771.317 405.239 770.488 406.553 769.51 407.742C768.531 408.928 767.404 409.989 766.154 410.911C763.983 412.513 761.43 413.683 758.582 414.31C757.022 414.653 755.376 414.838 753.654 414.838C751.933 414.838 750.222 414.654 748.54 414.31C745.471 413.683 742.505 412.512 739.769 410.911C738.194 409.989 736.693 408.928 735.295 407.742C733.897 406.552 732.605 405.239 731.434 403.826C729.4 401.373 727.742 398.613 726.594 395.656C725.964 394.034 725.485 392.355 725.181 390.635C724.877 388.914 724.765 387.235 724.823 385.612C724.928 382.653 725.612 379.896 726.782 377.443C727.455 376.03 728.283 374.715 729.262 373.527C730.24 372.339 731.368 371.278 732.618 370.355C734.789 368.753 737.341 367.583 740.19 366.957C741.75 366.612 743.397 366.429 745.118 366.429C746.84 366.429 748.551 366.614 750.233 366.957C753.301 367.583 756.267 368.754 759.002 370.355C760.577 371.278 762.078 372.339 763.476 373.527C764.873 374.715 766.165 376.03 767.337 377.443C769.372 379.896 771.028 382.654 772.178 385.612C772.807 387.233 773.286 388.913 773.59 390.635C773.894 392.355 774.007 394.034 773.949 395.655Z" fill="url(#paint2_linear_24_24692)"/>
<path d="M744.27 465.281C740.698 465.281 737.278 462.369 736.646 458.789L736.464 457.758C735.863 454.348 733.261 451.354 729.832 450.131C728.868 449.787 727.891 449.41 726.929 449.009C725.75 448.518 724.546 448.269 723.349 448.269C721.087 448.269 719.112 449.154 717.787 450.762L717.184 451.493C716.239 452.64 714.81 453.271 713.16 453.272C711.442 453.272 709.7 452.595 708.255 451.367L698.483 443.06C695.542 440.558 694.779 436.542 696.784 434.108L697.385 433.378C699.45 430.872 699.486 427.178 697.475 423.967C696.917 423.077 696.378 422.166 695.873 421.259C694.085 418.047 690.72 415.971 687.299 415.971H686.268C682.696 415.971 679.276 413.059 678.644 409.479L676.573 397.731C676.277 396.052 676.648 394.49 677.619 393.334C678.563 392.208 679.983 391.587 681.616 391.587H682.647C686.151 391.587 688.962 389.347 689.643 386.013C689.83 385.103 690.045 384.199 690.285 383.325C691.165 380.112 689.894 376.473 687.048 374.054L686.189 373.324C683.247 370.822 682.484 366.806 684.489 364.372L691.332 356.064C692.277 354.917 693.706 354.285 695.356 354.285C697.074 354.285 698.816 354.962 700.261 356.19L701.12 356.921C702.917 358.448 705.114 359.29 707.308 359.289C708.527 359.289 709.671 359.032 710.709 358.524C711.522 358.126 712.359 357.752 713.197 357.41C716.308 356.141 717.984 352.943 717.368 349.452L717.186 348.421C716.89 346.741 717.261 345.179 718.232 344.023C719.176 342.897 720.596 342.276 722.229 342.276H733.978C737.55 342.276 740.97 345.188 741.601 348.767L741.784 349.799C742.385 353.209 744.987 356.203 748.415 357.425C749.381 357.769 750.357 358.147 751.319 358.548C752.498 359.04 753.702 359.289 754.9 359.289C757.162 359.289 759.136 358.403 760.462 356.795L761.065 356.064C762.009 354.917 763.438 354.285 765.089 354.285C766.806 354.285 768.548 354.962 769.993 356.19L779.765 364.497C782.707 366.999 783.47 371.015 781.465 373.449L780.863 374.179C778.799 376.685 778.763 380.38 780.774 383.59C781.335 384.486 781.873 385.396 782.374 386.297C784.163 389.51 787.529 391.586 790.949 391.586H791.98C795.552 391.586 798.972 394.498 799.604 398.078L801.675 409.826C801.971 411.505 801.6 413.067 800.629 414.223C799.685 415.349 798.265 415.97 796.632 415.97H795.601C792.096 415.97 789.285 418.21 788.604 421.544C788.422 422.436 788.207 423.341 787.962 424.233C787.083 427.444 788.354 431.083 791.2 433.502L792.059 434.232C795.001 436.734 795.764 440.751 793.759 443.184L786.917 451.491C785.972 452.638 784.542 453.27 782.892 453.27C781.174 453.27 779.433 452.593 777.988 451.365L777.128 450.634C775.332 449.107 773.135 448.266 770.94 448.266C769.722 448.266 768.579 448.523 767.54 449.031C766.729 449.427 765.893 449.802 765.052 450.145C761.94 451.415 760.264 454.613 760.88 458.104L761.062 459.135C761.358 460.815 760.987 462.376 760.016 463.533C759.072 464.659 757.652 465.279 756.019 465.279H744.27V465.281ZM734.855 378.575C733.105 378.575 731.376 378.761 729.712 379.126C726.772 379.773 724.097 380.975 721.761 382.697C720.436 383.675 719.247 384.799 718.227 386.037C717.208 387.272 716.331 388.659 715.617 390.158C714.361 392.793 713.67 395.675 713.561 398.723C713.499 400.445 713.624 402.204 713.934 403.954C714.242 405.701 714.735 407.454 715.399 409.165C716.569 412.177 718.253 415.019 720.402 417.61C721.616 419.076 722.956 420.435 724.385 421.65C725.812 422.862 727.364 423.962 729 424.921C731.896 426.616 734.949 427.798 738.076 428.438C739.855 428.801 741.643 428.986 743.39 428.986C745.143 428.986 746.873 428.8 748.533 428.435C751.474 427.788 754.15 426.586 756.484 424.864C757.807 423.887 758.997 422.764 760.018 421.526C761.038 420.286 761.915 418.899 762.628 417.403C763.884 414.772 764.575 411.89 764.684 408.838C764.746 407.117 764.621 405.358 764.311 403.608C764.003 401.862 763.51 400.11 762.847 398.399C761.675 395.385 759.993 392.543 757.843 389.952C756.624 388.482 755.284 387.123 753.861 385.913C752.434 384.7 750.881 383.599 749.244 382.641C746.35 380.947 743.298 379.764 740.17 379.125C738.39 378.759 736.601 378.575 734.855 378.575Z" fill="#CCE8F8"/>
<path d="M733.977 343.279C737.034 343.279 740.074 345.873 740.616 348.944L740.798 349.976C741.461 353.735 744.319 357.03 748.079 358.371C749.03 358.71 749.991 359.082 750.934 359.475C752.235 360.018 753.569 360.293 754.899 360.293C757.428 360.293 759.737 359.251 761.233 357.434L761.835 356.703C762.587 355.79 763.742 355.288 765.088 355.288C766.569 355.288 768.081 355.88 769.345 356.955L779.117 365.262C781.646 367.412 782.353 370.801 780.694 372.816L780.092 373.547C777.749 376.391 777.685 380.543 779.928 384.124C780.475 384.997 781.005 385.893 781.502 386.787C783.464 390.311 787.173 392.589 790.95 392.589H791.981C795.038 392.589 798.078 395.183 798.62 398.254L800.691 410.002C800.935 411.386 800.641 412.658 799.865 413.583C799.113 414.479 797.966 414.972 796.634 414.972H795.603C791.61 414.972 788.405 417.534 787.626 421.347C787.446 422.227 787.236 423.11 787 423.971C786.019 427.556 787.414 431.597 790.554 434.267L791.414 434.998C793.943 437.148 794.65 440.537 792.99 442.552L786.148 450.859C785.396 451.771 784.241 452.274 782.895 452.274C781.414 452.274 779.902 451.682 778.638 450.607L777.779 449.876C775.802 448.195 773.374 447.27 770.942 447.27C769.571 447.27 768.279 447.562 767.103 448.137C766.312 448.524 765.495 448.889 764.676 449.223C761.118 450.674 759.197 454.313 759.897 458.281L760.079 459.313C760.323 460.697 760.029 461.968 759.253 462.894C758.501 463.79 757.354 464.283 756.022 464.283H744.273C741.216 464.283 738.176 461.689 737.634 458.618L737.452 457.586C736.789 453.826 733.931 450.532 730.17 449.191C729.218 448.851 728.258 448.479 727.316 448.088C726.015 447.546 724.681 447.27 723.351 447.27C720.822 447.27 718.513 448.312 717.017 450.128L716.415 450.859C715.663 451.771 714.508 452.274 713.162 452.274C711.682 452.274 710.17 451.682 708.905 450.607L704.019 446.453L699.133 442.299C696.604 440.149 695.897 436.761 697.557 434.745L698.159 434.014C700.502 431.17 700.566 427.018 698.323 423.437C697.776 422.563 697.246 421.667 696.748 420.773C694.786 417.249 691.077 414.972 687.3 414.972H686.269C683.212 414.972 680.172 412.378 679.63 409.307L677.559 397.559C677.315 396.175 677.608 394.904 678.385 393.978C679.137 393.082 680.284 392.589 681.617 392.589H682.648C686.641 392.589 689.846 390.027 690.625 386.215C690.805 385.335 691.015 384.452 691.251 383.591C692.233 380.006 690.838 375.965 687.697 373.295L686.837 372.564C684.308 370.414 683.601 367.025 685.261 365.01L688.682 360.856L692.103 356.702C692.855 355.79 694.01 355.287 695.356 355.287C696.837 355.287 698.348 355.879 699.613 356.954L700.473 357.685C702.45 359.366 704.878 360.291 707.31 360.291C708.682 360.291 709.974 359.999 711.15 359.424C711.94 359.038 712.757 358.672 713.577 358.338C717.135 356.887 719.055 353.247 718.356 349.28L718.174 348.249C717.93 346.865 718.224 345.593 719 344.668C719.752 343.772 720.899 343.279 722.232 343.279H733.977ZM743.391 429.985C745.215 429.985 747.018 429.792 748.749 429.411C751.828 428.733 754.63 427.473 757.078 425.667C758.467 424.641 759.716 423.461 760.791 422.158C761.862 420.855 762.784 419.401 763.531 417.832C764.845 415.076 765.57 412.062 765.684 408.871C765.747 407.082 765.617 405.252 765.296 403.432C764.977 401.622 764.466 399.806 763.779 398.034C762.57 394.92 760.832 391.986 758.614 389.311C757.36 387.799 755.979 386.399 754.509 385.148C753.037 383.897 751.436 382.763 749.75 381.775C746.761 380.025 743.605 378.803 740.37 378.142C738.523 377.765 736.667 377.574 734.855 377.574C733.032 377.574 731.23 377.767 729.497 378.149C726.419 378.826 723.617 380.085 721.167 381.892C719.775 382.919 718.526 384.1 717.455 385.4C716.383 386.701 715.461 388.157 714.713 389.727C713.398 392.485 712.674 395.5 712.561 398.687C712.497 400.477 712.627 402.307 712.948 404.127C713.267 405.937 713.778 407.753 714.466 409.526C715.675 412.64 717.413 415.574 719.63 418.247C720.882 419.758 722.264 421.159 723.737 422.411C725.208 423.661 726.809 424.795 728.495 425.783C731.484 427.532 734.64 428.755 737.876 429.416C739.723 429.794 741.578 429.985 743.391 429.985ZM733.977 341.279H722.228C718.186 341.279 715.488 344.555 716.2 348.597L716.382 349.628C716.922 352.688 715.485 355.398 712.818 356.487C711.95 356.841 711.1 357.222 710.268 357.628C709.357 358.073 708.346 358.292 707.306 358.292C705.407 358.292 703.414 357.564 701.765 356.162L700.905 355.431C699.224 354.002 697.225 353.288 695.353 353.288C693.48 353.288 691.733 354.002 690.556 355.431L687.135 359.585L683.714 363.739C681.36 366.597 682.177 371.23 685.539 374.088L686.399 374.819C688.95 376.988 690.085 380.266 689.319 383.063C689.072 383.966 688.853 384.884 688.663 385.815C688.079 388.675 685.706 390.589 682.646 390.589H681.615C677.573 390.589 674.875 393.865 675.587 397.907L677.658 409.655C678.371 413.697 682.225 416.973 686.266 416.973H687.297C690.357 416.973 693.405 418.887 694.998 421.747C695.516 422.678 696.059 423.596 696.625 424.499C698.377 427.296 698.398 430.574 696.612 432.743L696.01 433.474C693.656 436.332 694.473 440.965 697.835 443.823L702.721 447.977L707.607 452.131C709.288 453.56 711.287 454.274 713.159 454.274C715.032 454.274 716.778 453.56 717.956 452.131L718.558 451.4C719.713 449.998 721.449 449.27 723.348 449.27C724.387 449.27 725.475 449.488 726.543 449.933C727.518 450.339 728.502 450.72 729.495 451.074C732.547 452.161 734.939 454.873 735.479 457.933L735.661 458.965C736.374 463.007 740.228 466.283 744.269 466.283H756.018C760.06 466.283 762.758 463.007 762.045 458.965L761.863 457.933C761.323 454.873 762.76 452.161 765.428 451.074C766.296 450.72 767.147 450.339 767.978 449.933C768.889 449.488 769.9 449.27 770.939 449.27C772.838 449.27 774.831 449.998 776.48 451.4L777.339 452.131C779.02 453.56 781.019 454.274 782.892 454.274C784.765 454.274 786.512 453.56 787.688 452.131L794.53 443.824C796.884 440.965 796.067 436.333 792.705 433.475L791.845 432.744C789.294 430.575 788.159 427.297 788.925 424.5C789.172 423.596 789.391 422.679 789.581 421.748C790.165 418.888 792.538 416.973 795.598 416.973H796.629C800.671 416.973 803.369 413.697 802.656 409.655L800.585 397.907C799.872 393.865 796.018 390.589 791.977 390.589H790.946C787.886 390.589 784.838 388.675 783.245 385.814C782.727 384.883 782.184 383.966 781.618 383.063C779.866 380.266 779.845 376.988 781.631 374.819L782.233 374.088C784.587 371.23 783.77 366.597 780.408 363.739L770.636 355.432C768.955 354.003 766.956 353.289 765.084 353.289C763.211 353.289 761.464 354.003 760.287 355.432L759.685 356.163C758.53 357.565 756.794 358.293 754.895 358.293C753.855 358.293 752.768 358.075 751.7 357.629C750.725 357.222 749.74 356.841 748.747 356.487C745.695 355.399 743.303 352.688 742.764 349.628L742.582 348.597C741.873 344.555 738.019 341.279 733.977 341.279ZM743.391 427.985C741.67 427.985 739.959 427.801 738.277 427.458C735.208 426.831 732.243 425.66 729.506 424.059C727.931 423.136 726.43 422.076 725.032 420.889C723.634 419.7 722.342 418.386 721.171 416.973C719.137 414.521 717.479 411.761 716.331 408.804C715.701 407.182 715.222 405.503 714.918 403.782C714.615 402.061 714.502 400.382 714.56 398.76C714.665 395.801 715.349 393.043 716.519 390.59C717.192 389.177 718.02 387.862 718.999 386.674C719.977 385.486 721.105 384.426 722.355 383.503C724.526 381.901 727.078 380.731 729.927 380.104C731.487 379.761 733.134 379.576 734.855 379.576C736.577 379.576 738.288 379.761 739.97 380.104C743.038 380.731 746.004 381.902 748.739 383.503C750.314 384.425 751.815 385.486 753.213 386.674C754.61 387.863 755.902 389.177 757.074 390.59C759.109 393.043 760.765 395.802 761.915 398.76C762.544 400.381 763.023 402.06 763.327 403.782C763.63 405.503 763.743 407.183 763.686 408.803C763.58 411.761 762.896 414.521 761.727 416.973C761.054 418.386 760.225 419.701 759.247 420.889C758.268 422.076 757.141 423.136 755.891 424.059C753.72 425.66 751.167 426.831 748.319 427.458C746.76 427.801 745.114 427.985 743.391 427.985Z" fill="white"/>
<path d="M848.264 441.344L847.498 436.998C847.234 435.503 845.809 434.291 844.314 434.291L843.273 434.649C842.141 434.649 841.672 433.583 841.083 432.525C840.891 432.181 840.691 431.841 840.481 431.507C839.833 430.472 839.825 429.26 840.486 428.457L840.709 428.187C841.58 427.13 841.277 425.416 840.034 424.359L836.419 421.286C835.175 420.229 833.461 420.229 832.591 421.286L832.368 421.556C831.707 422.358 830.531 422.564 829.414 422.099C829.053 421.949 828.689 421.808 828.321 421.677C827.192 421.274 826.307 420.272 826.108 419.14L826.041 418.758C825.777 417.263 824.352 416.051 822.857 416.051H818.511C817.016 416.051 816.018 417.263 816.281 418.758L816.348 419.14C816.548 420.272 816.016 421.275 815.029 421.677C814.708 421.808 814.393 421.949 814.086 422.099C813.133 422.565 811.884 422.359 810.94 421.557L810.622 421.287C809.378 420.23 807.664 420.23 806.794 421.287L805.528 422.824L804.262 424.361C803.391 425.418 803.694 427.132 804.937 428.189L805.255 428.459C806.199 429.261 806.619 430.474 806.335 431.509C806.243 431.843 806.162 432.183 806.092 432.527C805.876 433.585 804.998 434.293 803.866 434.293H803.485C801.99 434.293 800.992 435.505 801.255 437L802.021 441.346C802.285 442.841 803.71 444.053 805.205 444.053H805.586C806.718 444.053 807.846 444.761 808.435 445.819C808.627 446.163 808.828 446.503 809.037 446.837C809.685 447.872 809.693 449.084 809.032 449.887L808.809 450.157C807.938 451.214 808.241 452.928 809.484 453.985L811.291 455.522L813.099 457.059C814.343 458.116 816.057 458.116 816.927 457.059L817.15 456.789C817.811 455.987 818.987 455.781 820.104 456.246C820.465 456.396 820.829 456.537 821.196 456.668C822.325 457.071 823.21 458.073 823.41 459.205L823.477 459.587C823.741 461.082 825.166 462.294 826.661 462.294H831.007C832.502 462.294 833.5 461.082 833.237 459.587L833.17 459.205C832.97 458.073 833.502 457.07 834.489 456.668C834.81 456.537 835.125 456.396 835.432 456.246C836.385 455.78 837.634 455.986 838.577 456.789L838.895 457.059C840.139 458.116 841.853 458.116 842.723 457.059L845.254 453.986C846.125 452.929 845.823 451.215 844.579 450.158L844.261 449.888C843.317 449.086 842.897 447.873 843.181 446.838C843.273 446.504 843.354 446.164 843.424 445.82C843.64 444.762 844.518 444.054 845.65 444.054H846.031C847.53 444.052 848.528 442.84 848.264 441.344ZM833.847 441.029C833.808 442.123 833.555 443.144 833.122 444.051C832.873 444.574 832.566 445.06 832.205 445.5C831.843 445.939 831.426 446.331 830.963 446.673C830.16 447.265 829.215 447.699 828.162 447.931C827.585 448.058 826.976 448.126 826.339 448.126C825.702 448.126 825.069 448.058 824.447 447.931C823.312 447.699 822.215 447.266 821.202 446.673C820.619 446.332 820.064 445.939 819.547 445.5C819.03 445.06 818.552 444.574 818.119 444.051C817.366 443.144 816.753 442.123 816.328 441.029C816.095 440.429 815.918 439.808 815.805 439.171C815.692 438.534 815.651 437.913 815.672 437.313C815.711 436.218 815.964 435.198 816.397 434.291C816.646 433.768 816.952 433.282 817.314 432.842C817.676 432.402 818.093 432.01 818.555 431.669C819.358 431.077 820.302 430.643 821.356 430.412C821.933 430.285 822.542 430.217 823.179 430.217C823.816 430.217 824.449 430.285 825.071 430.412C826.206 430.644 827.303 431.077 828.315 431.669C828.898 432.01 829.453 432.402 829.97 432.842C830.487 433.282 830.965 433.768 831.398 434.291C832.151 435.199 832.764 436.219 833.189 437.313C833.422 437.913 833.599 438.534 833.711 439.171C833.826 439.808 833.868 440.43 833.847 441.029Z" fill="url(#paint3_linear_24_24692)"/>
<path d="M822.867 466.656C821.605 466.656 820.398 465.627 820.175 464.362L820.108 463.98C819.879 462.673 818.881 461.527 817.57 461.059C817.211 460.931 816.855 460.792 816.503 460.646C816.051 460.458 815.589 460.362 815.129 460.362C814.252 460.362 813.485 460.707 812.971 461.332L812.748 461.603C812.423 461.997 811.93 462.213 811.359 462.213C810.755 462.213 810.14 461.974 809.63 461.539L806.015 458.466C804.98 457.586 804.704 456.183 805.402 455.337L805.625 455.066C806.425 454.096 806.441 452.67 805.668 451.433C805.462 451.106 805.267 450.774 805.078 450.436C804.394 449.208 803.104 448.415 801.793 448.415H801.412C800.15 448.415 798.943 447.386 798.72 446.121L797.953 441.775C797.85 441.192 797.977 440.652 798.311 440.254C798.635 439.867 799.125 439.654 799.69 439.654H800.072C801.432 439.654 802.523 438.783 802.788 437.487C802.855 437.155 802.934 436.826 803.023 436.503C803.361 435.265 802.876 433.866 801.785 432.94L801.467 432.669C800.432 431.789 800.157 430.385 800.854 429.539L803.385 426.466C803.709 426.072 804.203 425.855 804.774 425.855C805.378 425.855 805.993 426.094 806.503 426.529L806.821 426.8C807.509 427.385 808.351 427.707 809.194 427.707C809.665 427.707 810.108 427.607 810.51 427.411C810.808 427.265 811.112 427.129 811.423 427.002C812.631 426.509 813.282 425.269 813.044 423.915L812.977 423.534C812.874 422.951 813.001 422.411 813.335 422.013C813.659 421.626 814.149 421.413 814.714 421.413H819.061C820.323 421.413 821.53 422.442 821.753 423.707L821.82 424.088C822.049 425.395 823.046 426.542 824.357 427.009C824.715 427.137 825.072 427.275 825.425 427.422C825.877 427.61 826.34 427.706 826.8 427.706C827.676 427.706 828.443 427.361 828.957 426.736L829.18 426.466C829.505 426.072 829.998 425.855 830.569 425.855C831.173 425.855 831.788 426.094 832.298 426.529L835.913 429.602C836.948 430.482 837.223 431.886 836.526 432.731L836.303 433.002C835.503 433.972 835.487 435.398 836.26 436.635C836.466 436.962 836.661 437.293 836.85 437.631C837.534 438.86 838.824 439.653 840.135 439.653H840.516C841.778 439.653 842.985 440.682 843.208 441.947L843.975 446.293C844.078 446.876 843.951 447.416 843.617 447.814C843.293 448.201 842.803 448.414 842.238 448.414H841.856C840.496 448.414 839.405 449.285 839.14 450.581C839.073 450.913 838.994 451.242 838.905 451.565C838.567 452.802 839.053 454.201 840.143 455.128L840.461 455.399C841.496 456.279 841.772 457.682 841.074 458.528L838.543 461.601C838.219 461.995 837.726 462.211 837.154 462.211C836.55 462.211 835.935 461.973 835.425 461.538L835.107 461.267C834.419 460.682 833.577 460.36 832.733 460.36C832.262 460.36 831.82 460.46 831.419 460.656C831.12 460.802 830.816 460.938 830.506 461.065C829.296 461.558 828.645 462.799 828.884 464.152L828.951 464.534C829.054 465.117 828.927 465.656 828.593 466.055C828.269 466.442 827.779 466.655 827.213 466.655H822.867V466.656ZM819.385 434.581C818.729 434.581 818.078 434.65 817.454 434.788C816.35 435.03 815.344 435.482 814.464 436.131C813.964 436.5 813.517 436.923 813.133 437.388C812.748 437.856 812.418 438.378 812.151 438.941C811.679 439.93 811.419 441.013 811.378 442.161C811.356 442.805 811.402 443.465 811.519 444.123C811.633 444.775 811.818 445.433 812.068 446.075C812.506 447.203 813.135 448.266 813.939 449.235C814.396 449.786 814.897 450.294 815.429 450.745C815.962 451.199 816.543 451.611 817.156 451.969C818.239 452.604 819.382 453.046 820.552 453.285C821.22 453.421 821.89 453.49 822.543 453.49C823.199 453.49 823.85 453.421 824.474 453.283C825.579 453.04 826.585 452.588 827.464 451.939C827.961 451.573 828.409 451.15 828.795 450.682C829.179 450.214 829.51 449.693 829.777 449.13C830.249 448.141 830.509 447.058 830.55 445.91C830.572 445.266 830.526 444.606 830.409 443.948C830.293 443.291 830.108 442.634 829.86 441.996C829.422 440.868 828.793 439.805 827.989 438.836C827.536 438.289 827.035 437.78 826.5 437.325C825.97 436.874 825.389 436.463 824.773 436.101C823.688 435.466 822.545 435.024 821.376 434.786C820.708 434.65 820.038 434.581 819.385 434.581Z" fill="#CCE8F8"/>
<path d="M819.06 421.913C820.073 421.913 821.08 422.774 821.26 423.794L821.327 424.176C821.588 425.657 822.712 426.955 824.189 427.482C824.54 427.607 824.888 427.742 825.232 427.886C825.745 428.1 826.272 428.208 826.799 428.208C827.813 428.208 828.74 427.788 829.343 427.056L829.565 426.786C829.793 426.509 830.149 426.357 830.568 426.357C831.047 426.357 831.56 426.559 831.974 426.912L835.589 429.985C836.403 430.677 836.655 431.79 836.14 432.416L835.917 432.686C834.992 433.809 834.96 435.503 835.837 436.902C836.037 437.222 836.229 437.546 836.413 437.876C837.184 439.261 838.645 440.156 840.136 440.156H840.517C841.53 440.156 842.537 441.017 842.717 442.037L843.483 446.383C843.56 446.818 843.471 447.213 843.234 447.496C843.006 447.767 842.652 447.917 842.238 447.917H841.857C840.253 447.917 838.965 448.948 838.651 450.483C838.585 450.804 838.509 451.125 838.423 451.437C838.033 452.86 838.582 454.46 839.82 455.513L840.138 455.783C840.952 456.475 841.204 457.588 840.689 458.214L838.158 461.287C837.851 461.66 837.398 461.716 837.155 461.716C836.669 461.716 836.17 461.519 835.749 461.161L835.431 460.891C834.653 460.229 833.695 459.865 832.733 459.865C832.186 459.865 831.67 459.982 831.198 460.212C830.911 460.352 830.614 460.485 830.316 460.607C828.884 461.191 828.109 462.653 828.39 464.244L828.457 464.625C828.534 465.06 828.445 465.455 828.208 465.737C827.98 466.008 827.626 466.158 827.212 466.158H822.866C821.853 466.158 820.846 465.297 820.666 464.277L820.599 463.895C820.338 462.414 819.214 461.116 817.737 460.589C817.386 460.464 817.038 460.329 816.694 460.186C816.181 459.972 815.654 459.864 815.127 459.864C814.113 459.864 813.186 460.284 812.583 461.016L812.36 461.286C812.053 461.659 811.6 461.715 811.357 461.715C810.878 461.715 810.366 461.513 809.951 461.16L808.143 459.623L806.336 458.086C805.522 457.394 805.27 456.281 805.785 455.655L806.008 455.385C806.933 454.263 806.965 452.568 806.088 451.169C805.888 450.849 805.696 450.525 805.512 450.195C804.741 448.81 803.28 447.915 801.79 447.915H801.409C800.396 447.915 799.389 447.054 799.209 446.034L798.443 441.688C798.366 441.253 798.455 440.858 798.692 440.575C798.92 440.304 799.274 440.154 799.688 440.154H800.069C801.673 440.154 802.961 439.123 803.275 437.588C803.341 437.267 803.417 436.946 803.503 436.634C803.893 435.211 803.344 433.611 802.106 432.558L801.788 432.288C800.974 431.596 800.722 430.483 801.237 429.857L802.503 428.32L803.769 426.783C804.076 426.41 804.529 426.354 804.772 426.354C805.258 426.354 805.757 426.551 806.178 426.909L806.496 427.18C807.274 427.842 808.232 428.206 809.194 428.206C809.741 428.206 810.258 428.089 810.729 427.859C811.017 427.718 811.313 427.586 811.611 427.464C813.043 426.88 813.817 425.418 813.537 423.827L813.47 423.445C813.393 423.01 813.482 422.615 813.719 422.332C813.947 422.061 814.301 421.911 814.715 421.911H819.06V421.913ZM822.542 453.989C823.236 453.989 823.921 453.915 824.58 453.77C825.755 453.511 826.825 453.03 827.76 452.34C828.291 451.948 828.769 451.497 829.18 450.998C829.59 450.5 829.942 449.943 830.228 449.344C830.73 448.292 831.006 447.143 831.05 445.926C831.074 445.246 831.025 444.55 830.903 443.859C830.782 443.173 830.589 442.485 830.328 441.813C829.87 440.635 829.213 439.525 828.375 438.514C827.902 437.943 827.38 437.414 826.825 436.942C826.269 436.469 825.664 436.041 825.027 435.668C823.897 435.006 822.703 434.544 821.478 434.294C820.778 434.151 820.074 434.078 819.386 434.078C818.693 434.078 818.007 434.152 817.348 434.297C816.173 434.555 815.104 435.036 814.168 435.726C813.636 436.118 813.158 436.57 812.749 437.068C812.339 437.565 811.986 438.122 811.701 438.722C811.199 439.775 810.923 440.925 810.88 442.139C810.856 442.819 810.905 443.515 811.027 444.206C811.148 444.892 811.341 445.581 811.602 446.252C812.059 447.43 812.716 448.54 813.555 449.55C814.028 450.121 814.55 450.65 815.106 451.123C815.662 451.595 816.266 452.023 816.903 452.397C818.033 453.059 819.228 453.521 820.453 453.771C821.15 453.916 821.854 453.989 822.542 453.989ZM819.06 420.913H814.714C813.219 420.913 812.221 422.125 812.484 423.62L812.551 424.002C812.751 425.134 812.219 426.137 811.232 426.539C810.911 426.67 810.597 426.811 810.289 426.961C809.952 427.126 809.578 427.206 809.193 427.206C808.49 427.206 807.753 426.937 807.143 426.418L806.825 426.148C806.203 425.619 805.464 425.355 804.771 425.355C804.078 425.355 803.432 425.619 802.997 426.148L801.731 427.685L800.465 429.222C799.594 430.279 799.897 431.993 801.14 433.05L801.458 433.32C802.402 434.122 802.822 435.335 802.538 436.37C802.446 436.704 802.365 437.044 802.295 437.388C802.079 438.446 801.201 439.154 800.069 439.154H799.688C798.193 439.154 797.195 440.366 797.458 441.861L798.224 446.207C798.488 447.702 799.913 448.914 801.408 448.914H801.789C802.921 448.914 804.049 449.622 804.638 450.68C804.83 451.024 805.031 451.364 805.24 451.698C805.888 452.733 805.896 453.945 805.235 454.748L805.012 455.018C804.141 456.075 804.443 457.789 805.687 458.846L807.494 460.383L809.302 461.92C809.924 462.449 810.663 462.713 811.356 462.713C812.049 462.713 812.695 462.449 813.13 461.92L813.353 461.65C813.78 461.132 814.423 460.862 815.125 460.862C815.51 460.862 815.912 460.943 816.307 461.107C816.668 461.257 817.032 461.398 817.399 461.529C818.528 461.932 819.413 462.934 819.613 464.066L819.68 464.448C819.944 465.943 821.369 467.155 822.864 467.155H827.21C828.705 467.155 829.703 465.943 829.44 464.448L829.373 464.066C829.173 462.934 829.705 461.931 830.692 461.529C831.013 461.398 831.328 461.257 831.635 461.107C831.972 460.942 832.346 460.862 832.73 460.862C833.433 460.862 834.17 461.131 834.78 461.65L835.098 461.92C835.72 462.449 836.459 462.713 837.152 462.713C837.845 462.713 838.491 462.449 838.926 461.92L841.457 458.847C842.328 457.79 842.026 456.076 840.782 455.019L840.464 454.749C839.52 453.947 839.1 452.734 839.384 451.699C839.476 451.365 839.557 451.025 839.627 450.681C839.843 449.623 840.721 448.915 841.853 448.915H842.234C843.729 448.915 844.727 447.703 844.464 446.208L843.698 441.862C843.434 440.367 842.009 439.155 840.514 439.155H840.133C839.001 439.155 837.873 438.447 837.284 437.389C837.092 437.045 836.892 436.705 836.682 436.371C836.034 435.336 836.026 434.124 836.687 433.321L836.91 433.051C837.781 431.994 837.479 430.28 836.235 429.223L832.62 426.15C831.998 425.621 831.259 425.357 830.566 425.357C829.873 425.357 829.227 425.621 828.791 426.15L828.568 426.42C828.141 426.939 827.498 427.208 826.796 427.208C826.411 427.208 826.009 427.127 825.614 426.963C825.253 426.813 824.889 426.672 824.522 426.541C823.393 426.138 822.508 425.136 822.309 424.004L822.242 423.622C821.98 422.125 820.555 420.913 819.06 420.913ZM822.542 452.989C821.905 452.989 821.272 452.921 820.65 452.794C819.515 452.562 818.418 452.129 817.405 451.536C816.822 451.195 816.267 450.802 815.75 450.363C815.233 449.923 814.755 449.437 814.322 448.914C813.569 448.007 812.956 446.986 812.532 445.892C812.299 445.292 812.122 444.671 812.009 444.034C811.897 443.397 811.855 442.776 811.877 442.176C811.916 441.081 812.169 440.061 812.602 439.154C812.851 438.631 813.157 438.145 813.519 437.705C813.881 437.265 814.298 436.873 814.76 436.532C815.563 435.94 816.507 435.506 817.561 435.275C818.138 435.148 818.747 435.08 819.384 435.08C820.021 435.08 820.654 435.148 821.276 435.275C822.411 435.507 823.508 435.94 824.52 436.532C825.103 436.873 825.658 437.265 826.175 437.705C826.692 438.145 827.17 438.631 827.603 439.154C828.356 440.062 828.969 441.082 829.394 442.176C829.627 442.776 829.804 443.397 829.916 444.034C830.028 444.671 830.07 445.292 830.049 445.891C830.01 446.985 829.757 448.006 829.324 448.913C829.075 449.436 828.769 449.922 828.407 450.362C828.045 450.801 827.628 451.193 827.165 451.535C826.362 452.127 825.417 452.561 824.364 452.793C823.788 452.921 823.179 452.989 822.542 452.989Z" fill="white"/>
<path d="M518.099 368.519V403.309C518.099 406.769 516.499 409.789 514.049 411.749V465.159L404.179 444.189C394.379 442.319 387.289 433.749 387.289 423.769V158.259L496.439 175.179C506.569 176.749 514.049 185.469 514.049 195.729V360.079C516.539 362.079 518.099 365.149 518.099 368.519Z" fill="url(#paint4_linear_24_24692)"/>
<path d="M514.049 195.729V473.299C514.049 486.349 502.169 496.169 489.349 493.729L373.479 471.609C363.679 469.74 356.579 461.159 356.579 451.179V177.779C356.579 165.019 367.959 155.269 380.559 157.219L387.289 158.259L496.439 175.179C506.569 176.749 514.049 185.469 514.049 195.729Z" fill="url(#paint5_linear_24_24692)"/>
<path d="M414.471 189.051L442.423 194.431C447.517 195.411 451.198 199.869 451.198 205.056V239.853C451.198 246.616 445.063 251.722 438.412 250.493L409.205 245.096C403.929 244.121 400.165 239.428 400.358 234.066L401.613 199.286C401.853 192.652 407.953 187.796 414.471 189.051Z" fill="#2F5F96"/>
<path d="M410.061 191.595L438.013 196.975C443.107 197.955 446.788 202.413 446.788 207.6V242.397C446.788 249.16 440.653 254.266 434.002 253.037L404.795 247.64C399.519 246.665 395.755 241.972 395.948 236.61L397.203 201.83C397.442 195.196 403.543 190.34 410.061 191.595Z" fill="url(#paint6_linear_24_24692)" stroke="white" stroke-width="2"/>
<path d="M514.05 209.89V261.56C512.96 262.44 511.69 263.1 510.33 263.5C508.76 263.97 507.05 264.08 505.31 263.76L476.1 258.37C470.83 257.39 467.06 252.7 467.26 247.34L468.51 212.56C468.62 209.59 469.9 206.97 471.87 205.11C474.3 202.8 477.77 201.63 481.37 202.32L509.32 207.7C511.1 208.04 512.71 208.81 514.05 209.89Z" fill="#2F5F96"/>
<path d="M476.959 204.866L504.911 210.246C510.005 211.226 513.686 215.684 513.686 220.871V255.668C513.686 262.431 507.551 267.537 500.9 266.308L471.693 260.911C466.417 259.936 462.653 255.243 462.846 249.881L464.101 215.101C464.34 208.468 470.441 203.612 476.959 204.866Z" fill="url(#paint7_linear_24_24692)"/>
<path d="M414.471 264.144L442.423 269.524C447.517 270.504 451.198 274.962 451.198 280.149V314.946C451.198 321.709 445.063 326.815 438.412 325.586L409.205 320.189C403.929 319.215 400.165 314.521 400.358 309.159L401.613 274.379C401.853 267.745 407.953 262.889 414.471 264.144Z" fill="#2F5F96"/>
<path d="M410.061 266.689L438.013 272.069C443.107 273.049 446.788 277.507 446.788 282.694V317.491C446.788 324.254 440.653 329.36 434.002 328.131L404.795 322.734C399.519 321.759 395.755 317.066 395.948 311.704L397.203 276.924C397.442 270.29 403.543 265.434 410.061 266.689Z" fill="url(#paint8_linear_24_24692)"/>
<path d="M514.05 284.989V336.649C512.96 337.529 511.69 338.199 510.32 338.599C508.76 339.069 507.05 339.179 505.31 338.859L476.1 333.459C470.83 332.489 467.06 327.789 467.26 322.429L468.51 287.649C468.62 284.679 469.9 282.069 471.87 280.199C474.3 277.889 477.77 276.719 481.37 277.419L509.32 282.799C511.1 283.139 512.71 283.909 514.05 284.989Z" fill="#2F5F96"/>
<path d="M476.959 279.959L504.911 285.339C510.005 286.319 513.686 290.777 513.686 295.964V330.761C513.686 337.524 507.551 342.63 500.9 341.401L471.693 336.004C466.417 335.029 462.653 330.336 462.846 324.974L464.101 290.194C464.34 283.561 470.441 278.705 476.959 279.959Z" fill="url(#paint9_linear_24_24692)"/>
<path d="M414.471 339.239L442.423 344.619C447.517 345.599 451.198 350.057 451.198 355.244V390.041C451.198 396.804 445.063 401.91 438.412 400.681L409.205 395.284C403.929 394.309 400.165 389.616 400.358 384.254L401.613 349.474C401.853 342.841 407.953 337.985 414.471 339.239Z" fill="#2F5F96"/>
<path d="M410.061 341.783L438.013 347.163C443.107 348.143 446.788 352.601 446.788 357.788V392.585C446.788 399.348 440.653 404.454 434.002 403.225L404.795 397.828C399.519 396.853 395.755 392.16 395.948 386.798L397.203 352.018C397.442 345.385 403.543 340.529 410.061 341.783Z" fill="url(#paint10_linear_24_24692)"/>
<path d="M518.1 368.52V403.31C518.1 406.77 516.5 409.79 514.05 411.75C512.96 412.63 511.69 413.29 510.33 413.69C508.76 414.16 507.05 414.27 505.31 413.95L476.1 408.56C470.83 407.58 467.06 402.889 467.26 397.529L468.51 362.75C468.62 359.77 469.9 357.15 471.88 355.29C474.31 352.99 477.78 351.82 481.37 352.51L509.32 357.89C511.1 358.23 512.71 359 514.05 360.08C516.54 362.08 518.1 365.15 518.1 368.52Z" fill="#2F5F96"/>
<path d="M476.959 355.055L504.911 360.435C510.005 361.415 513.686 365.873 513.686 371.06V405.857C513.686 412.62 507.551 417.726 500.9 416.497L471.693 411.1C466.417 410.125 462.653 405.431 462.846 400.069L464.101 365.29C464.34 358.656 470.441 353.8 476.959 355.055Z" fill="url(#paint11_linear_24_24692)"/>
<path d="M897.43 275.759C895.28 281.459 892.56 287.519 890.1 292.729C886.3 300.749 877.65 305.289 868.9 303.839L539.45 249.489C531.08 248.109 526.79 243.519 524.69 238.309C523.29 234.849 522.99 231.199 523.61 227.729C528.61 230.419 537.49 232.069 553.08 230.579C554.62 230.429 556.12 230.279 557.59 230.119C596.59 225.869 612.41 217.769 653.64 240.289C696.43 263.659 720.81 274.009 780.94 261.339C841.08 248.679 860.67 289.419 879.52 279.299C889.06 274.179 893.78 267.549 896.13 262.249C898.6 266.239 899.15 271.229 897.43 275.759Z" fill="url(#paint12_linear_24_24692)"/>
<path d="M897.43 275.759C895.28 281.459 892.56 287.519 890.1 292.729C886.3 300.749 877.65 305.289 868.9 303.839L539.45 249.489C531.08 248.109 526.79 243.519 524.69 238.309C523.29 234.849 522.99 231.199 523.61 227.729C524.63 221.969 528.2 216.699 533.57 213.609L547.23 205.719C547.61 205.499 548.01 205.299 548.42 205.149C557.05 201.779 563.63 201.789 568.23 202.809C571.83 203.599 572.5 208.439 569.27 210.199C562.73 213.739 564.73 214.529 564.73 214.529C564.73 214.529 838.45 258.869 859.3 261.479C870.25 262.849 873.66 259.469 874.42 255.959C875.22 252.309 879.28 250.409 882.69 251.929C886.79 253.759 890.35 256.319 893.19 258.789C894.36 259.809 895.34 260.979 896.13 262.249C898.6 266.239 899.15 271.229 897.43 275.759Z" fill="url(#paint13_linear_24_24692)"/>
<path d="M797.6 286.64C800.458 286.64 802.775 284.324 802.775 281.465C802.775 278.607 800.458 276.29 797.6 276.29C794.742 276.29 792.425 278.607 792.425 281.465C792.425 284.324 794.742 286.64 797.6 286.64Z" fill="white"/>
<path d="M757.357 269.647C760.215 269.647 762.532 267.33 762.532 264.472C762.532 261.613 760.215 259.297 757.357 259.297C754.499 259.297 752.182 261.613 752.182 264.472C752.182 267.33 754.499 269.647 757.357 269.647Z" fill="white"/>
<path d="M621.612 261.362C624.47 261.362 626.787 259.046 626.787 256.187C626.787 253.329 624.47 251.012 621.612 251.012C618.753 251.012 616.437 253.329 616.437 256.187C616.437 259.046 618.753 261.362 621.612 261.362Z" fill="white"/>
<path d="M551.406 227.265C554.265 227.265 556.581 224.949 556.581 222.09C556.581 219.232 554.265 216.915 551.406 216.915C548.548 216.915 546.231 219.232 546.231 222.09C546.231 224.949 548.548 227.265 551.406 227.265Z" fill="white"/>
<path d="M564.206 241.808C564.544 240.42 563.691 239.021 562.302 238.683C560.912 238.345 559.512 239.196 559.175 240.585C558.837 241.973 559.69 243.372 561.079 243.71C562.469 244.048 563.869 243.197 564.206 241.808Z" fill="white"/>
<path d="M604.252 230.648C604.59 229.26 603.737 227.861 602.348 227.523C600.958 227.185 599.558 228.037 599.221 229.425C598.883 230.813 599.736 232.213 601.125 232.55C602.515 232.888 603.915 232.037 604.252 230.648Z" fill="white"/>
<path d="M653.122 260.767C653.46 259.379 652.607 257.979 651.218 257.641C649.828 257.303 648.428 258.155 648.091 259.543C647.753 260.932 648.606 262.331 649.995 262.669C651.385 263.007 652.785 262.155 653.122 260.767Z" fill="white"/>
<path d="M703.795 248.479C704.133 247.091 703.28 245.691 701.891 245.353C700.501 245.015 699.101 245.867 698.764 247.255C698.426 248.644 699.279 250.043 700.668 250.381C702.057 250.719 703.457 249.867 703.795 248.479Z" fill="white"/>
<path d="M704.848 255.11C705.185 253.722 704.333 252.323 702.943 251.985C701.554 251.647 700.154 252.498 699.816 253.887C699.479 255.275 700.331 256.674 701.721 257.012C703.11 257.35 704.51 256.499 704.848 255.11Z" fill="white"/>
<path d="M818.688 268.332C819.025 266.944 818.173 265.544 816.783 265.206C815.394 264.868 813.994 265.72 813.656 267.108C813.319 268.497 814.171 269.896 815.561 270.234C816.95 270.572 818.35 269.72 818.688 268.332Z" fill="white"/>
<path d="M871.998 298.419C872.336 297.03 871.483 295.631 870.094 295.293C868.704 294.955 867.304 295.807 866.967 297.195C866.629 298.583 867.482 299.983 868.871 300.321C870.261 300.659 871.661 299.807 871.998 298.419Z" fill="white"/>
<path d="M884.694 258.677C885.031 257.288 884.179 255.889 882.789 255.551C881.4 255.213 880 256.065 879.662 257.453C879.324 258.841 880.177 260.241 881.567 260.579C882.956 260.917 884.356 260.065 884.694 258.677Z" fill="white"/>
<path d="M882.932 276.878C883.269 275.49 882.417 274.091 881.027 273.753C879.638 273.415 878.238 274.266 877.9 275.655C877.563 277.043 878.415 278.442 879.805 278.78C881.194 279.118 882.594 278.267 882.932 276.878Z" fill="white"/>
<path d="M388.579 242.07C388.579 242.07 390.063 229.707 392.506 228.078C394.949 226.449 408.307 221.562 410.262 219.282C412.217 217.001 411.891 222.377 409.122 224.332C406.353 226.287 405.375 226.613 405.375 226.613C405.375 226.613 408.307 226.45 409.122 227.102C409.936 227.754 409.33 229.871 411.506 232.64C413.682 235.409 409.773 242.088 409.773 243.391C409.773 243.391 407.492 242.739 408.47 239.97C408.47 239.97 407.852 248.869 404.496 251.261C401.14 253.653 391.203 246.974 391.203 246.974L388.579 242.07Z" fill="#FCDFD8"/>
<path d="M303.931 575.427C303.931 575.427 296.887 561.527 288.707 571.428C280.527 581.329 285.592 583.246 297.755 596.277C309.918 609.309 322.081 602.358 316.505 596.277C310.929 590.196 303.931 575.427 303.931 575.427Z" fill="url(#paint14_linear_24_24692)"/>
<path d="M352.489 548.494C347.711 543.933 345.322 531.77 345.322 531.77L331.556 522.221C325.175 529.613 325.991 534.593 327.946 535.679C329.901 536.765 331.855 538.285 339.023 546.322C346.191 554.359 357.267 553.055 352.489 548.494Z" fill="url(#paint15_linear_24_24692)"/>
<path d="M377.336 472.304C369.216 489.204 345.756 533.604 345.756 533.604L330.766 524.144C330.766 524.144 331.056 523.434 331.576 522.154C331.576 522.145 331.576 522.144 331.576 522.144C335.576 512.304 352.756 469.214 350.696 461.774C349.726 458.284 340.186 454.664 329.026 449.234C328.016 448.744 326.986 448.234 325.956 447.704C325.886 447.674 325.826 447.634 325.756 447.604C331.336 458.884 337.546 474.564 336.166 486.324C333.736 506.904 306.656 580.884 306.656 580.884L288.706 571.424C288.706 571.424 291.996 545.624 296.626 524.144C301.256 502.674 296.626 499.994 296.626 499.994C269.526 454.965 251.926 420.134 251.926 420.134L291.266 405.974C290.366 378.384 320.306 389.944 320.306 389.944C320.306 389.944 339.506 413.644 360.086 429.594C380.676 445.535 385.456 455.415 377.336 472.304Z" fill="#2A2E6C"/>
<path d="M358.566 461.835C357.716 472.305 332.366 520.675 331.576 522.185C331.566 522.175 331.566 522.165 331.576 522.155C331.576 522.145 331.576 522.145 331.576 522.145C335.576 512.305 352.756 469.215 350.696 461.775C349.726 458.285 340.186 454.665 329.026 449.235C328.016 448.745 326.986 448.235 325.956 447.705C317.066 436.445 306.876 422.955 306.876 422.955C335.766 423.825 359.436 451.195 358.566 461.835Z" fill="#222357"/>
<path d="M314.271 239.624C314.271 239.624 296.461 235.284 289.901 260.914C288.331 267.047 287.296 271.974 286.622 275.938C286.372 275.958 286.16 276.369 286.034 277.417C285.484 281.978 283.651 292.186 283.651 292.186L288.743 291.477V291.474L300.812 292.184C300.812 292.184 300.642 290.074 301.042 287.644C301.282 286.174 301.732 284.594 302.552 283.284C304.242 280.574 305.802 280.894 309.072 279.024C310.002 278.484 311.072 277.774 312.322 276.764C317.971 272.204 314.271 239.624 314.271 239.624Z" fill="#FCDFD8"/>
<path d="M404.351 252.184C403.271 258.794 395.671 299.024 367.911 317.834C355.061 326.534 345.071 327.994 337.451 328.744C331.981 329.284 327.811 329.154 325.251 328.944C324.671 328.894 324.121 329.024 323.651 329.294C322.811 329.754 322.231 330.634 322.201 331.664L322.151 333.284L320.321 389.644C320.311 389.854 320.281 390.054 320.231 390.254C319.731 392.144 316.621 402.404 305.501 410.604C295.791 417.764 279.971 423.364 254.451 420.444C253.021 420.284 251.931 419.074 251.931 417.634C251.931 417.634 248.141 394.484 256.281 352.674C260.421 331.434 266.011 297.944 275.181 292.184C284.351 286.434 300.921 289.494 300.921 289.494C361.611 292.854 360.711 298.124 372.471 278.294C382.061 262.134 386.721 248.254 388.111 243.674C388.441 242.584 389.381 241.804 390.511 241.684C392.961 241.444 397.371 241.814 401.311 246.344C402.271 247.444 403.211 248.794 404.081 250.444C404.361 250.974 404.451 251.594 404.351 252.184Z" fill="#3B7EBD"/>
<path d="M320.465 237.996C320.465 237.996 316.556 245.163 308.736 248.421C300.917 251.679 300.473 259.498 300.473 259.498C300.473 259.498 298.962 254.937 296.681 255.914C294.4 256.891 295.142 269.597 300.473 268.946C300.473 268.946 294.727 275.788 293.749 278.72C292.771 281.652 286.907 281.001 283.65 280.023C280.392 279.046 265.033 266.438 266.01 251.778C266.987 237.117 276.808 229.526 291.143 226.919C305.478 224.313 304.826 222.684 305.804 220.077C306.781 217.471 312.646 221.054 312.646 223.987C312.646 223.987 312.646 218.123 309.714 216.168C306.782 214.214 328.284 219.1 320.465 237.996Z" fill="#2A2E6C"/>
<path d="M309.071 279.024C305.801 280.894 304.241 280.575 302.551 283.285C301.731 284.595 301.281 286.175 301.041 287.645C299.831 285.815 298.801 277.724 301.081 278.804C303.061 279.744 306.601 279.414 309.071 279.024Z" fill="#EBBEB8"/>
<path d="M404.081 250.445C404.072 250.428 404.064 250.412 404.055 250.396C403.137 248.664 400.555 248.974 400.012 250.858L395.721 265.766C390.131 285.186 372.481 306.956 339.901 313.906C317.66 318.65 308.682 316.917 305.224 315.339C304.023 314.791 302.624 315.42 302.225 316.678C300.272 322.833 296.083 339.365 296.252 367.555C296.389 391.852 301.006 403.49 304.109 408.582C304.804 409.722 306.356 409.984 307.386 409.135C316.979 401.224 319.761 392.033 320.231 390.255C320.281 390.055 320.311 389.855 320.321 389.645L322.148 333.285C322.149 333.285 322.15 333.285 322.151 333.285L322.201 331.665C322.231 330.635 322.811 329.755 323.651 329.295C324.121 329.025 324.671 328.895 325.251 328.945C327.811 329.155 331.981 329.285 337.451 328.745C345.071 327.995 355.061 326.535 367.911 317.835C395.671 299.025 403.271 258.795 404.351 252.185C404.451 251.595 404.361 250.975 404.081 250.445Z" fill="#2F5F96"/>
<path d="M657.66 758.286C657.66 758.286 658.963 774.413 662.547 779.137C666.131 783.861 667.108 788.096 663.85 787.77C660.592 787.444 650.167 781.743 646.583 774.087C642.999 766.431 635.995 761.87 636.646 758.286C637.298 754.702 637.786 748.187 648.049 746.883C658.311 745.58 657.66 758.286 657.66 758.286Z" fill="url(#paint16_linear_24_24692)"/>
<path d="M637.461 737.761C637.461 737.761 638.401 749.164 643.388 756.983C648.375 764.802 650.638 770.764 642.584 767.783C634.529 764.802 630.294 754.051 624.919 751.119C619.543 748.187 616.774 746.069 617.914 741.671C619.054 737.273 622.638 731.572 623.941 730.594C625.244 729.616 637.461 737.761 637.461 737.761Z" fill="url(#paint17_linear_24_24692)"/>
<path d="M770.346 525.452C770.346 525.452 776.464 519.154 772.989 511.987C772.989 511.987 769.405 506.666 765.17 507.209C760.935 507.752 756.374 511.553 756.374 511.553L770.346 525.452Z" fill="#FCDFD8"/>
<path d="M750.396 612.626L657.82 595.204C652.513 594.206 648.668 589.57 648.668 584.169V439.216C648.668 432.182 655.061 426.88 661.974 428.181L754.55 445.604C759.857 446.603 763.702 451.237 763.702 456.639V601.591C763.701 608.625 757.308 613.927 750.396 612.626Z" fill="url(#paint18_linear_24_24692)" stroke="#73A9D3" stroke-width="3"/>
<path d="M617.912 597.229C617.912 597.229 618.238 612.656 631.269 636.439C644.301 660.222 622.473 732.222 622.473 732.222C622.473 732.222 628.663 736.783 637.459 737.76C637.459 737.76 661.568 686.285 666.454 661.525C671.34 636.765 667.431 631.552 666.454 626.34C665.477 621.128 617.912 597.229 617.912 597.229Z" fill="#222357"/>
<path d="M689.888 585.768C689.888 585.768 721.21 643.362 720.212 655.335C717.931 682.701 679.814 727.661 671.343 739.389C662.872 751.117 657.66 758.285 657.66 758.285L643.977 747.86C643.977 747.86 670.04 694.43 674.601 682.702C679.162 670.974 679.814 649.471 667.434 635.788C655.054 622.105 615.173 613.087 618.24 594.087C621.306 575.086 689.888 585.768 689.888 585.768Z" fill="#2A2E6C"/>
<path d="M672.861 461.384C670.491 464.864 667.701 465.574 665.221 466.594C664.991 466.684 664.771 466.785 664.551 466.884C662.971 467.614 661.541 468.604 660.481 470.724C659.781 472.124 659.261 473.294 658.861 474.264C657.661 477.214 657.661 478.324 657.661 478.324H645.501C645.501 478.324 645.661 477.734 645.901 476.744C643.191 476.965 639.871 475.664 639.871 475.664V463.604L646.971 461.874C646.721 460.014 646.261 458.204 645.501 456.604C641.591 448.344 635.071 429.014 645.501 417.944C655.921 406.864 675.471 412.074 673.951 427.494C673.951 427.494 676.991 455.294 672.861 461.384Z" fill="#FCDFD8"/>
<path d="M663.957 435.752C663.957 435.752 662.002 432.277 659.83 432.277C657.658 432.277 658.961 447.263 661.893 446.395C661.893 446.395 660.698 455.517 654.183 456.169C647.667 456.821 654.183 471.807 634.636 465.291C615.089 458.775 632.681 444.006 622.256 437.925C611.831 431.844 602.274 415.671 616.609 412.029C630.944 408.387 642.273 402.523 639.866 394.921C637.46 387.319 648.754 372.116 663.957 383.41C679.161 394.704 677.857 396.224 684.808 392.532C691.758 388.84 702.184 404.478 692.41 417.727C682.636 430.976 667.433 433.582 666.781 437.926C666.129 442.27 666.129 442.27 666.129 442.27L663.957 435.752Z" fill="#2A2E6C"/>
<path d="M665.221 466.594C664.991 466.684 664.771 466.784 664.551 466.884C662.971 467.614 661.541 468.604 660.481 470.724C659.781 472.124 659.261 473.294 658.861 474.264C658.251 473.704 657.471 471.584 656.901 465.074C656.901 465.074 660.301 467.034 665.221 466.594Z" fill="#EBBEB8"/>
<path d="M765.242 531.004C751.132 541.764 687.962 519.804 687.962 519.804L687.982 519.984L695.782 597.314C695.782 597.314 685.272 606.224 669.172 609.564C657.392 612.014 642.622 611.494 626.782 602.354L617.912 597.224C617.912 597.224 611.372 576.164 610.412 540.004C609.442 503.844 605.172 491.114 617.912 479.424C617.912 479.424 638.702 463.734 677.822 480.534C716.952 497.324 725.622 505.914 750.512 509.794L764.842 512.314C764.842 512.314 779.342 520.234 765.242 531.004Z" fill="#BC89AC"/>
<path d="M669.172 609.564C669.272 599.154 669.102 556.464 661.062 535.014C651.862 510.464 663.312 493.744 668.732 502.644C672.422 508.704 682.142 515.954 687.982 519.984L695.782 597.314C695.782 597.314 685.272 606.224 669.172 609.564Z" fill="#9F7193"/>
<path d="M610.927 489.547C610.927 489.547 603.361 502.608 602.926 516.311C602.491 530.014 610.927 551.163 610.927 551.163C610.927 551.163 609.431 519.046 610.927 489.547Z" fill="#9F7193"/>
<path d="M620.203 170.766L523.301 155.029V84.9335L620.203 100.67V170.766Z" fill="#CCE8F8"/>
<path d="M621.491 55.7365C621.281 56.1765 617.961 63.2965 616.031 64.8065V61.1765C616.031 61.1765 615.891 61.3265 615.621 61.5665C615.961 61.1465 616.371 60.7465 616.811 60.4065C616.811 60.4065 620.321 57.2965 621.491 55.7365Z" fill="#EBBEB8"/>
<path d="M736.119 93.5065C736.119 132.556 695.929 163.863 646.353 171.471C596.777 179.079 518.664 128.03 518.664 78.5705C518.664 29.1105 600.116 89.0125 649.693 81.4045C699.27 73.7955 736.119 44.0465 736.119 93.5065Z" fill="url(#paint19_linear_24_24692)"/>
<path d="M639.381 67.4245C633.301 75.5245 621.661 85.6545 608.081 96.0145C582.881 115.254 551.011 135.304 535.691 144.704C530.051 148.164 526.651 150.174 526.651 150.174C526.651 150.174 500.271 139.534 505.801 115.204C511.341 90.8845 574.871 84.3645 586.931 40.7145C586.931 40.7145 586.931 34.5245 579.111 30.6145C571.291 26.7045 573.241 -2.94551 595.721 1.94449C618.201 6.82449 628.631 13.6645 628.631 13.6645C628.631 13.6645 637.751 11.7145 641.661 20.1845C645.571 28.6545 660.881 38.7545 639.381 67.4245Z" fill="#2A2E6C"/>
<path d="M603.74 70.5405C604.12 70.3335 609.278 68.7485 609.278 68.7485C614.059 68.2945 638.363 63.6135 662.075 76.7645C687.921 91.0995 689.007 145.181 689.441 153.217C689.875 161.253 662.761 157.956 650.598 161.688C616.436 172.168 627.697 158.511 622.274 160.837C621.053 161.361 617.152 171.673 616.243 170.703L592.928 145.808C592.808 145.68 592.677 145.562 592.537 145.455L562.935 122.9C560.376 120.95 562.034 116.87 565.227 117.257C566.793 117.447 568.263 116.455 568.658 114.927C570.89 106.317 580.862 83.0095 603.74 70.5405Z" fill="white"/>
<path d="M627.321 45.0545C627.321 45.0545 631.951 52.0045 631.951 55.9145V68.5145C631.951 68.5145 629.061 73.2845 619.791 74.5945C610.521 75.8945 616.031 68.0745 616.031 68.0745V61.0925C616.031 61.0925 615.467 61.6125 615.198 61.8525C613.748 63.1525 608.077 66.8225 601.492 62.4245C594.294 57.6165 592.842 35.9545 592.762 30.2245C596.082 31.0745 600.212 31.2245 605.172 29.8545C620.812 25.5045 620.812 25.5045 620.812 25.5045C620.812 25.5045 627.032 28.1045 625.462 36.3045C625.612 35.7245 626.912 31.0745 630.582 29.8545C634.492 28.5445 635.142 33.7645 632.752 38.9745C630.361 44.1845 627.321 45.0545 627.321 45.0545Z" fill="#FCDFD8"/>
<path d="M634.15 151.479C634.15 151.479 650.055 143.833 660.265 141.237C673.08 137.979 668.736 136.024 668.736 136.024C668.736 136.024 658.093 108.658 663.741 91.0655C663.741 91.0655 658.746 98.6675 658.311 112.784C657.876 126.901 658.805 132.983 650.6 140.368C642.395 147.753 626.984 149.558 623.594 151.479C620.204 153.4 620.204 153.4 620.204 153.4V158.404L634.15 151.479Z" fill="#A5D9F5"/>
<path d="M595.271 101.001C595.271 101.001 595.107 87.7605 596.573 84.9335C596.573 84.9335 589.569 93.3455 589.244 97.5815C588.919 101.817 595.271 101.001 595.271 101.001Z" fill="#A5D9F5"/>
<path d="M634.15 151.479C634.15 151.479 638.661 162.019 634.15 165.898C629.639 169.777 624.667 168.095 623.661 169.833C623.661 169.833 622.329 168.856 624.936 167.227C627.542 165.598 626.239 166.141 626.239 166.141C626.239 166.141 622.873 166.466 621.678 168.203C620.483 169.94 618.529 170.702 618.637 169.833C618.746 168.964 620.157 166.574 622.221 165.162C622.221 165.162 620.909 165.271 618.633 166.682C616.357 168.094 611.002 159.189 634.15 151.479Z" fill="#FCDFD8"/>
<path d="M625.565 25.5045C625.565 25.5045 624.662 31.6895 621.491 34.8655C618.32 38.0415 610.175 38.9375 612.455 35.7615C612.455 35.7615 606.835 39.5895 604.229 39.5085C601.623 39.4275 604.799 35.7615 604.799 35.7615C604.799 35.7615 600.564 39.9155 597.306 40.1595C594.048 40.4035 597.306 35.5985 597.306 35.5985C597.306 35.5985 593.967 39.1825 591.93 39.1825C589.893 39.1825 591.93 28.1055 591.93 28.1055C591.93 28.1055 624.753 20.3675 626.953 22.9745C629.152 25.5815 625.565 25.5045 625.565 25.5045Z" fill="#2A2E6C"/>
<path d="M627.321 45.0545C627.321 45.0545 628.012 51.1555 626.464 54.8205C624.916 58.4855 623.613 59.7885 623.613 59.7885C623.613 59.7885 623.124 62.3135 626.952 60.3585C630.78 58.4035 630.943 57.2635 630.943 57.2635C630.943 57.2635 630.128 65.3355 626.219 67.5715C622.31 69.8075 632.653 71.0285 637.052 66.3855C641.451 61.7435 630.865 44.8185 627.321 45.0545Z" fill="#2A2E6C"/>
<path d="M523.801 154.604V85.5215L619.703 101.095V170.178L523.801 154.604Z" fill="url(#paint20_linear_24_24692)"/>
<path d="M524.301 86.1085L619.203 101.52V169.59L524.301 154.178V86.1085ZM523.301 84.9335V155.029L620.203 170.766V100.67L523.301 84.9335Z" fill="#3B7EBD"/>
<path d="M567.324 128.343L572.666 132.976C571.324 134.524 569.373 135.414 567.324 135.414C563.445 135.414 560.253 132.222 560.253 128.343C560.253 124.464 563.445 121.272 567.324 121.272C571.203 121.272 574.395 124.464 574.395 128.343H567.324Z" fill="white"/>
<path opacity="0.46" d="M953.107 375.951L743.171 496.839C735.214 501.421 725.28 495.678 725.28 486.496V421.514C725.28 417.245 727.56 413.301 731.259 411.171L941.195 290.283C949.152 285.701 959.086 291.444 959.086 300.626V365.608C959.087 369.877 956.807 373.821 953.107 375.951Z" fill="#E1F3FC"/>
<path opacity="0.46" d="M903.349 635.787L693.413 756.675C685.456 761.257 675.522 755.514 675.522 746.332V681.35C675.522 677.081 677.802 673.137 681.501 671.007L891.437 550.119C899.394 545.537 909.328 551.28 909.328 560.462V625.444C909.328 629.713 907.048 633.657 903.349 635.787Z" fill="#E1F3FC"/>
</g>
<defs>
<linearGradient id="paint0_linear_24_24692" x1="306.745" y1="344.984" x2="1020.12" y2="344.984" gradientUnits="userSpaceOnUse">
<stop stop-color="#1B75BA"/>
<stop offset="0.8911" stop-color="#26A7DF" stop-opacity="0"/>
</linearGradient>
<linearGradient id="paint1_linear_24_24692" x1="667.289" y1="403.782" x2="847.429" y2="403.782" gradientUnits="userSpaceOnUse">
<stop offset="0.0607" stop-color="#26A7DF"/>
<stop offset="0.9984" stop-color="#28AAE1" stop-opacity="0"/>
</linearGradient>
<linearGradient id="paint2_linear_24_24692" x1="685.736" y1="390.634" x2="813.037" y2="390.634" gradientUnits="userSpaceOnUse">
<stop offset="0.0607" stop-color="#26A7DF"/>
<stop offset="0.9984" stop-color="#28AAE1" stop-opacity="0"/>
</linearGradient>
<linearGradient id="paint3_linear_24_24692" x1="801.214" y1="439.171" x2="848.307" y2="439.171" gradientUnits="userSpaceOnUse">
<stop offset="0.0607" stop-color="#26A7DF"/>
<stop offset="0.9984" stop-color="#28AAE1" stop-opacity="0"/>
</linearGradient>
<linearGradient id="paint4_linear_24_24692" x1="387.289" y1="311.709" x2="518.099" y2="311.709" gradientUnits="userSpaceOnUse">
<stop offset="0.0607" stop-color="#26A7DF"/>
<stop offset="0.9984" stop-color="#26A7DF" stop-opacity="0"/>
</linearGradient>
<linearGradient id="paint5_linear_24_24692" x1="356.579" y1="325.537" x2="514.049" y2="325.537" gradientUnits="userSpaceOnUse">
<stop offset="0.0607" stop-color="#26A7DF"/>
<stop offset="0.9984" stop-color="#28AAE1" stop-opacity="0"/>
</linearGradient>
<linearGradient id="paint6_linear_24_24692" x1="395.941" y1="222.307" x2="446.787" y2="222.307" gradientUnits="userSpaceOnUse">
<stop offset="0.0607" stop-color="#26A7DF"/>
<stop offset="0.9984" stop-color="#28AAE1" stop-opacity="0"/>
</linearGradient>
<linearGradient id="paint7_linear_24_24692" x1="462.839" y1="235.579" x2="513.686" y2="235.579" gradientUnits="userSpaceOnUse">
<stop offset="0.0607" stop-color="#26A7DF"/>
<stop offset="0.9984" stop-color="#28AAE1" stop-opacity="0"/>
</linearGradient>
<linearGradient id="paint8_linear_24_24692" x1="395.941" y1="297.402" x2="446.787" y2="297.402" gradientUnits="userSpaceOnUse">
<stop offset="0.0607" stop-color="#26A7DF"/>
<stop offset="0.9984" stop-color="#28AAE1" stop-opacity="0"/>
</linearGradient>
<linearGradient id="paint9_linear_24_24692" x1="462.839" y1="310.673" x2="513.686" y2="310.673" gradientUnits="userSpaceOnUse">
<stop offset="0.0607" stop-color="#26A7DF"/>
<stop offset="0.9984" stop-color="#28AAE1" stop-opacity="0"/>
</linearGradient>
<linearGradient id="paint10_linear_24_24692" x1="395.941" y1="372.496" x2="446.787" y2="372.496" gradientUnits="userSpaceOnUse">
<stop offset="0.0607" stop-color="#26A7DF"/>
<stop offset="0.9984" stop-color="#28AAE1" stop-opacity="0"/>
</linearGradient>
<linearGradient id="paint11_linear_24_24692" x1="462.839" y1="385.768" x2="513.686" y2="385.768" gradientUnits="userSpaceOnUse">
<stop offset="0.0607" stop-color="#26A7DF"/>
<stop offset="0.9984" stop-color="#28AAE1" stop-opacity="0"/>
</linearGradient>
<linearGradient id="paint12_linear_24_24692" x1="523.303" y1="264.629" x2="898.427" y2="264.629" gradientUnits="userSpaceOnUse">
<stop offset="0.0607" stop-color="#26A7DF"/>
<stop offset="0.9984" stop-color="#26A7DF" stop-opacity="0"/>
</linearGradient>
<linearGradient id="paint13_linear_24_24692" x1="523.303" y1="253.159" x2="898.427" y2="253.159" gradientUnits="userSpaceOnUse">
<stop offset="0.0607" stop-color="#26A7DF"/>
<stop offset="0.9984" stop-color="#26A7DF" stop-opacity="0"/>
</linearGradient>
<linearGradient id="paint14_linear_24_24692" x1="284.715" y1="585.768" x2="317.898" y2="585.768" gradientUnits="userSpaceOnUse">
<stop offset="0.1116" stop-color="#204496"/>
<stop offset="0.9984" stop-color="#204496" stop-opacity="0"/>
</linearGradient>
<linearGradient id="paint15_linear_24_24692" x1="326.533" y1="537.18" x2="353.648" y2="537.18" gradientUnits="userSpaceOnUse">
<stop offset="0.1116" stop-color="#204496"/>
<stop offset="0.9984" stop-color="#204496" stop-opacity="0"/>
</linearGradient>
<linearGradient id="paint16_linear_24_24692" x1="636.604" y1="767.288" x2="665.834" y2="767.288" gradientUnits="userSpaceOnUse">
<stop offset="0.1116" stop-color="#204496"/>
<stop offset="0.9984" stop-color="#204496" stop-opacity="0"/>
</linearGradient>
<linearGradient id="paint17_linear_24_24692" x1="617.659" y1="749.538" x2="647.891" y2="749.538" gradientUnits="userSpaceOnUse">
<stop offset="0.1116" stop-color="#204496"/>
<stop offset="0.9984" stop-color="#204496" stop-opacity="0"/>
</linearGradient>
<linearGradient id="paint18_linear_24_24692" x1="648.667" y1="520.404" x2="763.701" y2="520.404" gradientUnits="userSpaceOnUse">
<stop offset="0.0607" stop-color="#26A7DF"/>
<stop offset="0.9984" stop-color="#28AAE1" stop-opacity="0"/>
</linearGradient>
<linearGradient id="paint19_linear_24_24692" x1="518.665" y1="115.518" x2="736.119" y2="115.518" gradientUnits="userSpaceOnUse">
<stop offset="0.0607" stop-color="#26A7DF"/>
<stop offset="0.9984" stop-color="#26A7DF" stop-opacity="0"/>
</linearGradient>
<linearGradient id="paint20_linear_24_24692" x1="523.801" y1="127.85" x2="619.703" y2="127.85" gradientUnits="userSpaceOnUse">
<stop stop-color="#39AEE1"/>
<stop offset="1" stop-color="#2A2E6C"/>
</linearGradient>
<clipPath id="clip0_24_24692">
<rect width="960" height="817" fill="white" transform="translate(-0.000976562 0.859497)"/>
</clipPath>
</defs>
</svg>
