<svg width="1920" height="995" viewBox="0 0 1920 995" fill="none" xmlns="http://www.w3.org/2000/svg">
<path d="M0 276.892L127.292 346.5C254.583 416.94 478.743 482.435 733.327 449C987.91 414.267 1272.92 311.625 1527.5 276.892C1782.08 243.457 2036.67 379.793 2291.25 363.562C2545.83 347.332 2800.42 172.043 2927.71 86.6707L3055 0V831L2927.71 995.5C2800.42 995.5 2545.83 995.5 2291.25 995.5C2036.67 995.5 1782.08 995.5 1527.5 995.5C1272.92 995.5 1018.33 995.5 763.75 995.5C509.167 995.5 254.583 995.5 127.292 995.5H0L0 276.892Z" fill="#B070FF"/>
</svg>
